%TF.GenerationSoftware,KiCad,Pcbnew,(5.99.0-7547-g7565f60a03)*%
%TF.CreationDate,2020-12-15T07:52:55+08:00*%
%TF.ProjectId,STM32F4_REV2,53544d33-3246-4345-9f52-4556322e6b69,rev?*%
%TF.SameCoordinates,Original*%
%TF.FileFunction,Copper,L2,Inr*%
%TF.FilePolarity,Positive*%
%FSLAX46Y46*%
G04 Gerber Fmt 4.6, Leading zero omitted, Abs format (unit mm)*
G04 Created by KiCad (PCBNEW (5.99.0-7547-g7565f60a03)) date 2020-12-15 07:52:55*
%MOMM*%
%LPD*%
G01*
G04 APERTURE LIST*
G04 Aperture macros list*
%AMRoundRect*
0 Rectangle with rounded corners*
0 $1 Rounding radius*
0 $2 $3 $4 $5 $6 $7 $8 $9 X,Y pos of 4 corners*
0 Add a 4 corners polygon primitive as box body*
4,1,4,$2,$3,$4,$5,$6,$7,$8,$9,$2,$3,0*
0 Add four circle primitives for the rounded corners*
1,1,$1+$1,$2,$3,0*
1,1,$1+$1,$4,$5,0*
1,1,$1+$1,$6,$7,0*
1,1,$1+$1,$8,$9,0*
0 Add four rect primitives between the rounded corners*
20,1,$1+$1,$2,$3,$4,$5,0*
20,1,$1+$1,$4,$5,$6,$7,0*
20,1,$1+$1,$6,$7,$8,$9,0*
20,1,$1+$1,$8,$9,$2,$3,0*%
G04 Aperture macros list end*
%TA.AperFunction,ComponentPad*%
%ADD10O,1.700000X1.350000*%
%TD*%
%TA.AperFunction,ComponentPad*%
%ADD11O,1.500000X1.100000*%
%TD*%
%TA.AperFunction,ComponentPad*%
%ADD12R,2.400000X2.400000*%
%TD*%
%TA.AperFunction,ComponentPad*%
%ADD13C,2.400000*%
%TD*%
%TA.AperFunction,ComponentPad*%
%ADD14RoundRect,0.200000X0.200000X0.450000X-0.200000X0.450000X-0.200000X-0.450000X0.200000X-0.450000X0*%
%TD*%
%TA.AperFunction,ComponentPad*%
%ADD15O,0.800000X1.300000*%
%TD*%
%TA.AperFunction,ComponentPad*%
%ADD16C,0.900000*%
%TD*%
%TA.AperFunction,ComponentPad*%
%ADD17C,8.600000*%
%TD*%
%TA.AperFunction,ComponentPad*%
%ADD18RoundRect,0.200000X-0.200000X-0.450000X0.200000X-0.450000X0.200000X0.450000X-0.200000X0.450000X0*%
%TD*%
%TA.AperFunction,ViaPad*%
%ADD19C,0.800000*%
%TD*%
G04 APERTURE END LIST*
D10*
%TO.N,no_connect_43*%
%TO.C,J5*%
X138475000Y-81425000D03*
D11*
X135475000Y-81735000D03*
D10*
X138475000Y-86885000D03*
D11*
X135475000Y-86575000D03*
%TD*%
D12*
%TO.N,+12V*%
%TO.C,J1*%
X135150000Y-105620000D03*
D13*
%TO.N,GND*%
X135150000Y-102120000D03*
%TD*%
D14*
%TO.N,no_connect_38*%
%TO.C,J3*%
X103925000Y-71225000D03*
D15*
%TO.N,12C1_SCL*%
X102675000Y-71225000D03*
%TO.N,12C1_SDA*%
X101425000Y-71225000D03*
%TO.N,no_connect_39*%
X100175000Y-71225000D03*
%TD*%
D16*
%TO.N,GND*%
%TO.C,H2*%
X132919581Y-73390419D03*
X135200000Y-74335000D03*
X138425000Y-71110000D03*
X137480419Y-68829581D03*
D17*
X135200000Y-71110000D03*
D16*
X132919581Y-68829581D03*
X135200000Y-67885000D03*
X131975000Y-71110000D03*
X137480419Y-73390419D03*
%TD*%
%TO.N,GND*%
%TO.C,H4*%
X90200000Y-74475000D03*
X92480419Y-73530419D03*
X86975000Y-71250000D03*
X87919581Y-68969581D03*
X87919581Y-73530419D03*
X90200000Y-68025000D03*
X93425000Y-71250000D03*
X92480419Y-68969581D03*
D17*
X90200000Y-71250000D03*
%TD*%
D18*
%TO.N,no_connect_40*%
%TO.C,J4*%
X102050000Y-116650000D03*
D15*
%TO.N,USART3_TX*%
X103300000Y-116650000D03*
%TO.N,USART3_RX*%
X104550000Y-116650000D03*
%TO.N,no_connect_41*%
X105800000Y-116650000D03*
%TD*%
D16*
%TO.N,GND*%
%TO.C,H1*%
X93575000Y-116250000D03*
X92630419Y-118530419D03*
X92630419Y-113969581D03*
X90350000Y-113025000D03*
X87125000Y-116250000D03*
X90350000Y-119475000D03*
X88069581Y-113969581D03*
D17*
X90350000Y-116250000D03*
D16*
X88069581Y-118530419D03*
%TD*%
%TO.N,GND*%
%TO.C,H3*%
X132869581Y-113819581D03*
X135150000Y-112875000D03*
X135150000Y-119325000D03*
X137430419Y-113819581D03*
X131925000Y-116100000D03*
D17*
X135150000Y-116100000D03*
D16*
X132869581Y-118380419D03*
X137430419Y-118380419D03*
X138375000Y-116100000D03*
%TD*%
D19*
%TO.N,GND*%
X119125000Y-98125000D03*
X119100000Y-96975000D03*
X119100000Y-95800000D03*
%TO.N,+3V3*%
X109950000Y-89725000D03*
%TO.N,GND*%
X133625000Y-83150000D03*
X132700000Y-83175000D03*
X132725000Y-82150000D03*
X133575000Y-82150000D03*
X128850000Y-102275000D03*
X128850000Y-101375000D03*
X128050000Y-98750000D03*
X127125000Y-98750000D03*
X127125000Y-97850000D03*
X128050000Y-97850000D03*
X128050000Y-96925000D03*
X127125000Y-96925000D03*
X107925000Y-99725000D03*
X109825000Y-87825000D03*
X118725000Y-110850000D03*
X116775000Y-74025000D03*
X125225000Y-72400000D03*
X107600000Y-103250000D03*
X122150000Y-104975000D03*
X93875000Y-87600000D03*
X89475000Y-97125000D03*
X112900000Y-74125000D03*
X128450000Y-93250000D03*
X92700000Y-96050000D03*
X118750000Y-112425000D03*
X112675000Y-88950000D03*
X94825000Y-89000000D03*
X114225000Y-74100000D03*
X129800000Y-82575000D03*
X97025000Y-101200000D03*
X89700000Y-101000000D03*
X96225000Y-88800000D03*
X95600000Y-87050000D03*
X89975000Y-83275000D03*
X89750000Y-88125000D03*
X118725000Y-109000000D03*
X92625000Y-94775000D03*
X127775000Y-106350000D03*
X118775000Y-107725000D03*
%TO.N,+3V3*%
X112625000Y-107675000D03*
X99700000Y-81275000D03*
X94650000Y-83775000D03*
X106200000Y-100475000D03*
X112575000Y-112125000D03*
X94075000Y-98400000D03*
X130750000Y-103450000D03*
X93075000Y-90200000D03*
X104550000Y-81275000D03*
X112575000Y-108975000D03*
X125250000Y-74550000D03*
X112575000Y-111100000D03*
X110850000Y-74500000D03*
X90025000Y-79500000D03*
X89425000Y-85850000D03*
X99525000Y-101175000D03*
%TO.N,SWDIO*%
X105148942Y-90823942D03*
X108500000Y-70950000D03*
%TO.N,NRST*%
X102150000Y-91100000D03*
X107112852Y-69281456D03*
%TD*%
%TA.AperFunction,Conductor*%
%TO.N,GND*%
G36*
X135189223Y-66009729D02*
G01*
X135201168Y-66011729D01*
X135201175Y-66011730D01*
X135205962Y-66012531D01*
X135320579Y-66013838D01*
X135388982Y-66014618D01*
X135393041Y-66014730D01*
X135516174Y-66020106D01*
X135521660Y-66020465D01*
X135847170Y-66048944D01*
X135852633Y-66049543D01*
X135949176Y-66062252D01*
X135954603Y-66063087D01*
X136276426Y-66119833D01*
X136281808Y-66120904D01*
X136376865Y-66141978D01*
X136382190Y-66143281D01*
X136697855Y-66227865D01*
X136703133Y-66229403D01*
X136795995Y-66258683D01*
X136801199Y-66260450D01*
X136995927Y-66331324D01*
X137108233Y-66372200D01*
X137113327Y-66374180D01*
X137168177Y-66396899D01*
X137203368Y-66411476D01*
X137208399Y-66413690D01*
X137504493Y-66551761D01*
X137509423Y-66554192D01*
X137538506Y-66569331D01*
X137595844Y-66599180D01*
X137600650Y-66601817D01*
X137883658Y-66765213D01*
X137888335Y-66768051D01*
X137970457Y-66820369D01*
X137975003Y-66823406D01*
X138242672Y-67010831D01*
X138247104Y-67014081D01*
X138324394Y-67073387D01*
X138328672Y-67076820D01*
X138482638Y-67206013D01*
X138578963Y-67286839D01*
X138583096Y-67290464D01*
X138654941Y-67356298D01*
X138658912Y-67360100D01*
X138720096Y-67421284D01*
X138889945Y-67591134D01*
X138893691Y-67595046D01*
X138950313Y-67656838D01*
X138959531Y-67666898D01*
X138963155Y-67671030D01*
X139169345Y-67916757D01*
X139173182Y-67921330D01*
X139176623Y-67925618D01*
X139235917Y-68002893D01*
X139239167Y-68007325D01*
X139426580Y-68274976D01*
X139429634Y-68279547D01*
X139481953Y-68361671D01*
X139484800Y-68366363D01*
X139639188Y-68633769D01*
X139648184Y-68649351D01*
X139650812Y-68654140D01*
X139679250Y-68708769D01*
X139695798Y-68740557D01*
X139698229Y-68745487D01*
X139836327Y-69041639D01*
X139838524Y-69046631D01*
X139875837Y-69136714D01*
X139877789Y-69141737D01*
X139903652Y-69212793D01*
X139975582Y-69410421D01*
X139983180Y-69454077D01*
X139983074Y-69477844D01*
X139962768Y-69545875D01*
X139908906Y-69592128D01*
X139838587Y-69601918D01*
X139774139Y-69572138D01*
X139737379Y-69516636D01*
X139700216Y-69403605D01*
X139698179Y-69398243D01*
X139527031Y-69002744D01*
X139524527Y-68997610D01*
X139318238Y-68619248D01*
X139315275Y-68614357D01*
X139075546Y-68256252D01*
X139072151Y-68251649D01*
X138800961Y-67916757D01*
X138797155Y-67912469D01*
X138789859Y-67904967D01*
X138776027Y-67897161D01*
X138774659Y-67897240D01*
X138767334Y-67901876D01*
X135572022Y-71097188D01*
X135564408Y-71111132D01*
X135564539Y-71112965D01*
X135568790Y-71119580D01*
X138763478Y-74314268D01*
X138776924Y-74321610D01*
X138786760Y-74314690D01*
X139011440Y-74048818D01*
X139014937Y-74044277D01*
X139262106Y-73691281D01*
X139265173Y-73686450D01*
X139479339Y-73312495D01*
X139481951Y-73307413D01*
X139661347Y-72915578D01*
X139663485Y-72910286D01*
X139723423Y-72740083D01*
X139764916Y-72682474D01*
X139830969Y-72656443D01*
X139900609Y-72670255D01*
X139951726Y-72719524D01*
X139968268Y-72782500D01*
X139932312Y-80807971D01*
X139912005Y-80876001D01*
X139858141Y-80922253D01*
X139787823Y-80932042D01*
X139723375Y-80902260D01*
X139698028Y-80871829D01*
X139630009Y-80757500D01*
X139611517Y-80726417D01*
X139526662Y-80629659D01*
X139471920Y-80567238D01*
X139471917Y-80567235D01*
X139468109Y-80562893D01*
X139297303Y-80428240D01*
X139292192Y-80425551D01*
X139292189Y-80425549D01*
X139179204Y-80366105D01*
X139104819Y-80326969D01*
X138897103Y-80262472D01*
X138876311Y-80260011D01*
X138723603Y-80241936D01*
X138723596Y-80241936D01*
X138719916Y-80241500D01*
X138245587Y-80241500D01*
X138083413Y-80256402D01*
X138077851Y-80257971D01*
X138077849Y-80257971D01*
X137978747Y-80285921D01*
X137874080Y-80315440D01*
X137868897Y-80317996D01*
X137684190Y-80409082D01*
X137684186Y-80409085D01*
X137679010Y-80411637D01*
X137674384Y-80415091D01*
X137674383Y-80415092D01*
X137522304Y-80528655D01*
X137504738Y-80541772D01*
X137500824Y-80546006D01*
X137500822Y-80546008D01*
X137361616Y-80696602D01*
X137357100Y-80701487D01*
X137354019Y-80706370D01*
X137246990Y-80876001D01*
X137241039Y-80885432D01*
X137160443Y-81087448D01*
X137159317Y-81093108D01*
X137159316Y-81093112D01*
X137119138Y-81295101D01*
X137118011Y-81300768D01*
X137117935Y-81306543D01*
X137117935Y-81306547D01*
X137117613Y-81331147D01*
X137115164Y-81518249D01*
X137116143Y-81523946D01*
X137116143Y-81523947D01*
X137151018Y-81726909D01*
X137151997Y-81732606D01*
X137227277Y-81936662D01*
X137338483Y-82123583D01*
X137359127Y-82147123D01*
X137478080Y-82282762D01*
X137478083Y-82282765D01*
X137481891Y-82287107D01*
X137652697Y-82421760D01*
X137657808Y-82424449D01*
X137657811Y-82424451D01*
X137689110Y-82440918D01*
X137845181Y-82523031D01*
X138052897Y-82587528D01*
X138058634Y-82588207D01*
X138226397Y-82608064D01*
X138226404Y-82608064D01*
X138230084Y-82608500D01*
X138704413Y-82608500D01*
X138866587Y-82593598D01*
X138872149Y-82592029D01*
X138872151Y-82592029D01*
X138995974Y-82557107D01*
X139075920Y-82534560D01*
X139159136Y-82493523D01*
X139265810Y-82440918D01*
X139265814Y-82440915D01*
X139270990Y-82438363D01*
X139289621Y-82424451D01*
X139440638Y-82311681D01*
X139440639Y-82311680D01*
X139445262Y-82308228D01*
X139449178Y-82303992D01*
X139588980Y-82152754D01*
X139588982Y-82152752D01*
X139592900Y-82148513D01*
X139597492Y-82141236D01*
X139694160Y-81988026D01*
X139747427Y-81941088D01*
X139817614Y-81930399D01*
X139882438Y-81959354D01*
X139921318Y-82018758D01*
X139926721Y-82055826D01*
X139919670Y-83629659D01*
X139908295Y-86168764D01*
X139908033Y-86227160D01*
X139887726Y-86295191D01*
X139833862Y-86341443D01*
X139763544Y-86351232D01*
X139699096Y-86321450D01*
X139673749Y-86291019D01*
X139614470Y-86191381D01*
X139611517Y-86186417D01*
X139561811Y-86129739D01*
X139471920Y-86027238D01*
X139471917Y-86027235D01*
X139468109Y-86022893D01*
X139297303Y-85888240D01*
X139292192Y-85885551D01*
X139292189Y-85885549D01*
X139160904Y-85816477D01*
X139104819Y-85786969D01*
X138897103Y-85722472D01*
X138877373Y-85720137D01*
X138723603Y-85701936D01*
X138723596Y-85701936D01*
X138719916Y-85701500D01*
X138245587Y-85701500D01*
X138083413Y-85716402D01*
X138077851Y-85717971D01*
X138077849Y-85717971D01*
X137978747Y-85745921D01*
X137874080Y-85775440D01*
X137868897Y-85777996D01*
X137684190Y-85869082D01*
X137684186Y-85869085D01*
X137679010Y-85871637D01*
X137674384Y-85875091D01*
X137674383Y-85875092D01*
X137656776Y-85888240D01*
X137504738Y-86001772D01*
X137500824Y-86006006D01*
X137500822Y-86006008D01*
X137475536Y-86033363D01*
X137357100Y-86161487D01*
X137354019Y-86166370D01*
X137344111Y-86182074D01*
X137241039Y-86345432D01*
X137160443Y-86547448D01*
X137159317Y-86553108D01*
X137159316Y-86553112D01*
X137126895Y-86716105D01*
X137118011Y-86760768D01*
X137117935Y-86766543D01*
X137117935Y-86766547D01*
X137117643Y-86788846D01*
X137115164Y-86978249D01*
X137151997Y-87192606D01*
X137227277Y-87396662D01*
X137338483Y-87583583D01*
X137360346Y-87608513D01*
X137478080Y-87742762D01*
X137478083Y-87742765D01*
X137481891Y-87747107D01*
X137652697Y-87881760D01*
X137657808Y-87884449D01*
X137657811Y-87884451D01*
X137689110Y-87900918D01*
X137845181Y-87983031D01*
X138052897Y-88047528D01*
X138058634Y-88048207D01*
X138226397Y-88068064D01*
X138226404Y-88068064D01*
X138230084Y-88068500D01*
X138704413Y-88068500D01*
X138866587Y-88053598D01*
X138872149Y-88052029D01*
X138872151Y-88052029D01*
X138971254Y-88024079D01*
X139075920Y-87994560D01*
X139104758Y-87980339D01*
X139265810Y-87900918D01*
X139265814Y-87900915D01*
X139270990Y-87898363D01*
X139289621Y-87884451D01*
X139440638Y-87771681D01*
X139440639Y-87771680D01*
X139445262Y-87768228D01*
X139449178Y-87763992D01*
X139588980Y-87612754D01*
X139588982Y-87612752D01*
X139592900Y-87608513D01*
X139595981Y-87603630D01*
X139595984Y-87603626D01*
X139669523Y-87487074D01*
X139722790Y-87440135D01*
X139792977Y-87429446D01*
X139857801Y-87458401D01*
X139896681Y-87517805D01*
X139902084Y-87554874D01*
X139857565Y-97491504D01*
X139785354Y-113609248D01*
X139783189Y-114092369D01*
X139762882Y-114160399D01*
X139709018Y-114206651D01*
X139638700Y-114216440D01*
X139574252Y-114186658D01*
X139541553Y-114141844D01*
X139477035Y-113992752D01*
X139474527Y-113987610D01*
X139268238Y-113609248D01*
X139265275Y-113604357D01*
X139025546Y-113246252D01*
X139022151Y-113241649D01*
X138750961Y-112906757D01*
X138747155Y-112902469D01*
X138739859Y-112894967D01*
X138726027Y-112887161D01*
X138724659Y-112887240D01*
X138717334Y-112891876D01*
X135522022Y-116087188D01*
X135514408Y-116101132D01*
X135514539Y-116102965D01*
X135518790Y-116109580D01*
X138713478Y-119304268D01*
X138726923Y-119311610D01*
X138741523Y-119301338D01*
X138808746Y-119278501D01*
X138877645Y-119295632D01*
X138926345Y-119347293D01*
X138939383Y-119417082D01*
X138908689Y-119487543D01*
X138900310Y-119497082D01*
X138896726Y-119500992D01*
X138665197Y-119743044D01*
X138661469Y-119746780D01*
X138590086Y-119815338D01*
X138586188Y-119818926D01*
X138538043Y-119861393D01*
X138501135Y-119878644D01*
X138496600Y-119892708D01*
X138475783Y-119916311D01*
X138452298Y-119937026D01*
X138335009Y-120040483D01*
X138330929Y-120043931D01*
X138254034Y-120106167D01*
X138249811Y-120109439D01*
X137980803Y-120308901D01*
X137976466Y-120311977D01*
X137894525Y-120367511D01*
X137890070Y-120370394D01*
X137605114Y-120546369D01*
X137600510Y-120549079D01*
X137514225Y-120597437D01*
X137509511Y-120599949D01*
X137210669Y-120751159D01*
X137205852Y-120753470D01*
X137115774Y-120794349D01*
X137110864Y-120796452D01*
X136800324Y-120921794D01*
X136795330Y-120923688D01*
X136702102Y-120956796D01*
X136697031Y-120958477D01*
X136376945Y-121057081D01*
X136371814Y-121058543D01*
X136276107Y-121083638D01*
X136270966Y-121084870D01*
X135943660Y-121156013D01*
X135938430Y-121157035D01*
X135840948Y-121173932D01*
X135835691Y-121174728D01*
X135503547Y-121217893D01*
X135498279Y-121218465D01*
X135374340Y-121229254D01*
X135370391Y-121229536D01*
X135186738Y-121239720D01*
X135182338Y-121240601D01*
X135179257Y-121240993D01*
X135163356Y-121242000D01*
X91175881Y-121242000D01*
X91107760Y-121221998D01*
X91061267Y-121168342D01*
X91051163Y-121098068D01*
X91080657Y-121033488D01*
X91140383Y-120995104D01*
X91157910Y-120991288D01*
X91249044Y-120978156D01*
X91254639Y-120977088D01*
X91673867Y-120877214D01*
X91679347Y-120875643D01*
X92087787Y-120738187D01*
X92093117Y-120736119D01*
X92487419Y-120562212D01*
X92492526Y-120559677D01*
X92869438Y-120350751D01*
X92874316Y-120347750D01*
X93230716Y-120105541D01*
X93235329Y-120102090D01*
X93554890Y-119839599D01*
X93563351Y-119827167D01*
X93557101Y-119816311D01*
X93418312Y-119677522D01*
X131938018Y-119677522D01*
X131938098Y-119678653D01*
X131943080Y-119686228D01*
X131977672Y-119719402D01*
X131981951Y-119723148D01*
X132318774Y-119992030D01*
X132323357Y-119995360D01*
X132683160Y-120232606D01*
X132688056Y-120235524D01*
X133067837Y-120439161D01*
X133073010Y-120441640D01*
X133469703Y-120610026D01*
X133475038Y-120612010D01*
X133885357Y-120743749D01*
X133890880Y-120745249D01*
X134311437Y-120839256D01*
X134317060Y-120840247D01*
X134744420Y-120895751D01*
X134750126Y-120896230D01*
X135180738Y-120912773D01*
X135186464Y-120912733D01*
X135616809Y-120890179D01*
X135622493Y-120889622D01*
X136049044Y-120828156D01*
X136054639Y-120827088D01*
X136473867Y-120727214D01*
X136479347Y-120725643D01*
X136887787Y-120588187D01*
X136893117Y-120586119D01*
X137287419Y-120412212D01*
X137292526Y-120409677D01*
X137669438Y-120200751D01*
X137674316Y-120197750D01*
X138030716Y-119955541D01*
X138035315Y-119952100D01*
X138312457Y-119724454D01*
X138346262Y-119710079D01*
X138350527Y-119696011D01*
X138363351Y-119677167D01*
X138357101Y-119666311D01*
X135162812Y-116472022D01*
X135148868Y-116464408D01*
X135147035Y-116464539D01*
X135140420Y-116468790D01*
X131945632Y-119663578D01*
X131938018Y-119677522D01*
X93418312Y-119677522D01*
X89991922Y-116251132D01*
X90714408Y-116251132D01*
X90714539Y-116252965D01*
X90718790Y-116259580D01*
X93913478Y-119454268D01*
X93926924Y-119461610D01*
X93936760Y-119454690D01*
X94161440Y-119188818D01*
X94164937Y-119184277D01*
X94412106Y-118831281D01*
X94415173Y-118826450D01*
X94629339Y-118452495D01*
X94631951Y-118447413D01*
X94811347Y-118055578D01*
X94813485Y-118050286D01*
X94956628Y-117643810D01*
X94958281Y-117638336D01*
X95063993Y-117220567D01*
X95065144Y-117214961D01*
X95132559Y-116789315D01*
X95133194Y-116783653D01*
X95161828Y-116352547D01*
X95161962Y-116349040D01*
X95162981Y-116251773D01*
X95162919Y-116248225D01*
X95157121Y-116120525D01*
X101141500Y-116120525D01*
X101141500Y-117141317D01*
X101157096Y-117270194D01*
X101217694Y-117430562D01*
X101221995Y-117436820D01*
X101309694Y-117564422D01*
X101314796Y-117571846D01*
X101320466Y-117576898D01*
X101320467Y-117576899D01*
X101437123Y-117680836D01*
X101437125Y-117680838D01*
X101442796Y-117685890D01*
X101449505Y-117689442D01*
X101449509Y-117689445D01*
X101587589Y-117762555D01*
X101587592Y-117762556D01*
X101594304Y-117766110D01*
X101601673Y-117767961D01*
X101610436Y-117770162D01*
X101760575Y-117807874D01*
X101766338Y-117808237D01*
X101766341Y-117808237D01*
X101768530Y-117808375D01*
X101768546Y-117808376D01*
X101770525Y-117808500D01*
X102291317Y-117808500D01*
X102420194Y-117792904D01*
X102580562Y-117732306D01*
X102671302Y-117669942D01*
X102738771Y-117647842D01*
X102807478Y-117665727D01*
X102816728Y-117671845D01*
X102837905Y-117687231D01*
X102837912Y-117687235D01*
X102843251Y-117691114D01*
X102849279Y-117693798D01*
X102849281Y-117693799D01*
X102941798Y-117734990D01*
X103017714Y-117768790D01*
X103111114Y-117788643D01*
X103198057Y-117807124D01*
X103198062Y-117807124D01*
X103204514Y-117808496D01*
X103395487Y-117808496D01*
X103401939Y-117807124D01*
X103401944Y-117807124D01*
X103488887Y-117788643D01*
X103582287Y-117768790D01*
X103658203Y-117734990D01*
X103750720Y-117693799D01*
X103750722Y-117693798D01*
X103756750Y-117691114D01*
X103833704Y-117635204D01*
X103850941Y-117622681D01*
X103917809Y-117598823D01*
X103986960Y-117614904D01*
X103999062Y-117622682D01*
X104058309Y-117665727D01*
X104093251Y-117691114D01*
X104099279Y-117693798D01*
X104099281Y-117693799D01*
X104191798Y-117734990D01*
X104267714Y-117768790D01*
X104361114Y-117788643D01*
X104448057Y-117807124D01*
X104448062Y-117807124D01*
X104454514Y-117808496D01*
X104645487Y-117808496D01*
X104651939Y-117807124D01*
X104651944Y-117807124D01*
X104738887Y-117788643D01*
X104832287Y-117768790D01*
X104908203Y-117734990D01*
X105000720Y-117693799D01*
X105000722Y-117693798D01*
X105006750Y-117691114D01*
X105083704Y-117635204D01*
X105100941Y-117622681D01*
X105167809Y-117598823D01*
X105236960Y-117614904D01*
X105249062Y-117622682D01*
X105308309Y-117665727D01*
X105343251Y-117691114D01*
X105349279Y-117693798D01*
X105349281Y-117693799D01*
X105441798Y-117734990D01*
X105517714Y-117768790D01*
X105611114Y-117788643D01*
X105698057Y-117807124D01*
X105698062Y-117807124D01*
X105704514Y-117808496D01*
X105895487Y-117808496D01*
X105901939Y-117807124D01*
X105901944Y-117807124D01*
X105988887Y-117788643D01*
X106082287Y-117768790D01*
X106158203Y-117734990D01*
X106250720Y-117693799D01*
X106250722Y-117693798D01*
X106256750Y-117691114D01*
X106285891Y-117669942D01*
X106405907Y-117582746D01*
X106405909Y-117582744D01*
X106411251Y-117578863D01*
X106425000Y-117563593D01*
X106534618Y-117441850D01*
X106534619Y-117441849D01*
X106539037Y-117436942D01*
X106634524Y-117271554D01*
X106693538Y-117089927D01*
X106708500Y-116947572D01*
X106708500Y-116352428D01*
X106699324Y-116265114D01*
X130339962Y-116265114D01*
X130340161Y-116270819D01*
X130374722Y-116700376D01*
X130375440Y-116706053D01*
X130448787Y-117130689D01*
X130450018Y-117136289D01*
X130561556Y-117552554D01*
X130563278Y-117557983D01*
X130712085Y-117962428D01*
X130714301Y-117967700D01*
X130899148Y-118356988D01*
X130901829Y-118362028D01*
X131121195Y-118732957D01*
X131124324Y-118737738D01*
X131376415Y-119087271D01*
X131379955Y-119091737D01*
X131562966Y-119302266D01*
X131576095Y-119310675D01*
X131586008Y-119304782D01*
X134777978Y-116112812D01*
X134785592Y-116098868D01*
X134785461Y-116097035D01*
X134781210Y-116090420D01*
X131588126Y-112897336D01*
X131574182Y-112889722D01*
X131573989Y-112889735D01*
X131565167Y-112895714D01*
X131443447Y-113029953D01*
X131439795Y-113034367D01*
X131180443Y-113378540D01*
X131177227Y-113383236D01*
X130950126Y-113749511D01*
X130947353Y-113754474D01*
X130754383Y-114139827D01*
X130752065Y-114145033D01*
X130594817Y-114546281D01*
X130592981Y-114551673D01*
X130472749Y-114965517D01*
X130471407Y-114971067D01*
X130389177Y-115394100D01*
X130388344Y-115399741D01*
X130344795Y-115828477D01*
X130344475Y-115834201D01*
X130339962Y-116265114D01*
X106699324Y-116265114D01*
X106697921Y-116251773D01*
X106694228Y-116216636D01*
X106694228Y-116216634D01*
X106693538Y-116210073D01*
X106634524Y-116028446D01*
X106539037Y-115863058D01*
X106411251Y-115721137D01*
X106256749Y-115608886D01*
X106250721Y-115606202D01*
X106088317Y-115533895D01*
X106088316Y-115533895D01*
X106082286Y-115531210D01*
X105968840Y-115507096D01*
X105901943Y-115492876D01*
X105901938Y-115492876D01*
X105895486Y-115491504D01*
X105704513Y-115491504D01*
X105698061Y-115492876D01*
X105698056Y-115492876D01*
X105631159Y-115507096D01*
X105517713Y-115531210D01*
X105511683Y-115533895D01*
X105511682Y-115533895D01*
X105349280Y-115606201D01*
X105349278Y-115606202D01*
X105343250Y-115608886D01*
X105337911Y-115612765D01*
X105337908Y-115612767D01*
X105249061Y-115677318D01*
X105182193Y-115701177D01*
X105113041Y-115685096D01*
X105100940Y-115677319D01*
X105012088Y-115612765D01*
X105006749Y-115608886D01*
X105000721Y-115606202D01*
X104838317Y-115533895D01*
X104838316Y-115533895D01*
X104832286Y-115531210D01*
X104718840Y-115507096D01*
X104651943Y-115492876D01*
X104651938Y-115492876D01*
X104645486Y-115491504D01*
X104454513Y-115491504D01*
X104448061Y-115492876D01*
X104448056Y-115492876D01*
X104381159Y-115507096D01*
X104267713Y-115531210D01*
X104261683Y-115533895D01*
X104261682Y-115533895D01*
X104099280Y-115606201D01*
X104099278Y-115606202D01*
X104093250Y-115608886D01*
X104087911Y-115612765D01*
X104087908Y-115612767D01*
X103999061Y-115677318D01*
X103932193Y-115701177D01*
X103863041Y-115685096D01*
X103850940Y-115677319D01*
X103762088Y-115612765D01*
X103756749Y-115608886D01*
X103750721Y-115606202D01*
X103588317Y-115533895D01*
X103588316Y-115533895D01*
X103582286Y-115531210D01*
X103468840Y-115507096D01*
X103401943Y-115492876D01*
X103401938Y-115492876D01*
X103395486Y-115491504D01*
X103204513Y-115491504D01*
X103198061Y-115492876D01*
X103198056Y-115492876D01*
X103131159Y-115507096D01*
X103017713Y-115531210D01*
X103011683Y-115533895D01*
X103011682Y-115533895D01*
X102849280Y-115606201D01*
X102849278Y-115606202D01*
X102843250Y-115608886D01*
X102836060Y-115614110D01*
X102819645Y-115626036D01*
X102752777Y-115649894D01*
X102683626Y-115633812D01*
X102669144Y-115623452D01*
X102669112Y-115623498D01*
X102662876Y-115619163D01*
X102657204Y-115614110D01*
X102650495Y-115610558D01*
X102650491Y-115610555D01*
X102512411Y-115537445D01*
X102512408Y-115537444D01*
X102505696Y-115533890D01*
X102495027Y-115531210D01*
X102409709Y-115509780D01*
X102339425Y-115492126D01*
X102333662Y-115491763D01*
X102333659Y-115491763D01*
X102331470Y-115491625D01*
X102331454Y-115491624D01*
X102329475Y-115491500D01*
X101808683Y-115491500D01*
X101679806Y-115507096D01*
X101519438Y-115567694D01*
X101513180Y-115571995D01*
X101399837Y-115649894D01*
X101378154Y-115664796D01*
X101373102Y-115670466D01*
X101373101Y-115670467D01*
X101314351Y-115736407D01*
X101264110Y-115792796D01*
X101260558Y-115799505D01*
X101260555Y-115799509D01*
X101187445Y-115937589D01*
X101183890Y-115944304D01*
X101142126Y-116110575D01*
X101141763Y-116116338D01*
X101141763Y-116116341D01*
X101141625Y-116118530D01*
X101141624Y-116118546D01*
X101141500Y-116120525D01*
X95157121Y-116120525D01*
X95143321Y-115816636D01*
X95142805Y-115810958D01*
X95084316Y-115383988D01*
X95083289Y-115378388D01*
X94986343Y-114958472D01*
X94984809Y-114952976D01*
X94850209Y-114543585D01*
X94848179Y-114538243D01*
X94677031Y-114142744D01*
X94674527Y-114137610D01*
X94468238Y-113759248D01*
X94465275Y-113754357D01*
X94225546Y-113396252D01*
X94222151Y-113391649D01*
X93950961Y-113056757D01*
X93947155Y-113052469D01*
X93939859Y-113044967D01*
X93926027Y-113037161D01*
X93924659Y-113037240D01*
X93917334Y-113041876D01*
X90722022Y-116237188D01*
X90714408Y-116251132D01*
X89991922Y-116251132D01*
X86788126Y-113047336D01*
X86774182Y-113039722D01*
X86773989Y-113039735D01*
X86765167Y-113045714D01*
X86643447Y-113179953D01*
X86639795Y-113184367D01*
X86380443Y-113528540D01*
X86377227Y-113533236D01*
X86150126Y-113899511D01*
X86147353Y-113904474D01*
X85954383Y-114289827D01*
X85952065Y-114295033D01*
X85794817Y-114696281D01*
X85792981Y-114701673D01*
X85672749Y-115115517D01*
X85671407Y-115121067D01*
X85589177Y-115544100D01*
X85588344Y-115549741D01*
X85544795Y-115978477D01*
X85544475Y-115984201D01*
X85539962Y-116415114D01*
X85540161Y-116420819D01*
X85574722Y-116850376D01*
X85575440Y-116856053D01*
X85648787Y-117280689D01*
X85650018Y-117286289D01*
X85761556Y-117702554D01*
X85763278Y-117707983D01*
X85912085Y-118112428D01*
X85914301Y-118117700D01*
X86099148Y-118506988D01*
X86101829Y-118512028D01*
X86321195Y-118882957D01*
X86324324Y-118887738D01*
X86562756Y-119218333D01*
X86586381Y-119285284D01*
X86583497Y-119297495D01*
X86636891Y-119314097D01*
X86662190Y-119336337D01*
X86774911Y-119466007D01*
X86804507Y-119530541D01*
X86794515Y-119600831D01*
X86748107Y-119654561D01*
X86680018Y-119674671D01*
X86611866Y-119654777D01*
X86586921Y-119633795D01*
X86540474Y-119583107D01*
X86536850Y-119578974D01*
X86470576Y-119499992D01*
X86442111Y-119434952D01*
X86445161Y-119415893D01*
X86383273Y-119391549D01*
X86364040Y-119373029D01*
X86326818Y-119328669D01*
X86323378Y-119324383D01*
X86313577Y-119311610D01*
X86264068Y-119247089D01*
X86260837Y-119242682D01*
X86152017Y-119087271D01*
X86073413Y-118975014D01*
X86070376Y-118970468D01*
X86018053Y-118888338D01*
X86015202Y-118883640D01*
X85996830Y-118851819D01*
X85851789Y-118600601D01*
X85849195Y-118595874D01*
X85804189Y-118509418D01*
X85801786Y-118504544D01*
X85663684Y-118208385D01*
X85661470Y-118203353D01*
X85624183Y-118113335D01*
X85622191Y-118108211D01*
X85616811Y-118093427D01*
X85528235Y-117850066D01*
X85510452Y-117801207D01*
X85508685Y-117796003D01*
X85487245Y-117728005D01*
X85479395Y-117703109D01*
X85477860Y-117697844D01*
X85475610Y-117689445D01*
X85393284Y-117382204D01*
X85391978Y-117376866D01*
X85370894Y-117281764D01*
X85369837Y-117276448D01*
X85313083Y-116954582D01*
X85312251Y-116949171D01*
X85311608Y-116944282D01*
X85304582Y-116890918D01*
X85299544Y-116852646D01*
X85298946Y-116847183D01*
X85270465Y-116521663D01*
X85270108Y-116516219D01*
X85264729Y-116393033D01*
X85264618Y-116388997D01*
X85264239Y-116355718D01*
X85262568Y-116209240D01*
X85259484Y-116189327D01*
X85258000Y-116170043D01*
X85258000Y-112676483D01*
X87139492Y-112676483D01*
X87139504Y-112676912D01*
X87144872Y-112685662D01*
X90337188Y-115877978D01*
X90351132Y-115885592D01*
X90352965Y-115885461D01*
X90359580Y-115881210D01*
X93553614Y-112687176D01*
X93561022Y-112673609D01*
X93554280Y-112663953D01*
X93315353Y-112459167D01*
X93310841Y-112455642D01*
X92959578Y-112206013D01*
X92954773Y-112202916D01*
X92582300Y-111986131D01*
X92577266Y-111983500D01*
X92186688Y-111801370D01*
X92181395Y-111799189D01*
X91775933Y-111653213D01*
X91770473Y-111651524D01*
X91353448Y-111542897D01*
X91347858Y-111541709D01*
X90922698Y-111471324D01*
X90917033Y-111470648D01*
X90487233Y-111439086D01*
X90481532Y-111438927D01*
X90050640Y-111446447D01*
X90044952Y-111446805D01*
X89616533Y-111493347D01*
X89610863Y-111494225D01*
X89188437Y-111579401D01*
X89182892Y-111580783D01*
X88769906Y-111703900D01*
X88764502Y-111705782D01*
X88364388Y-111865816D01*
X88359181Y-111868178D01*
X87975201Y-112063825D01*
X87970236Y-112066646D01*
X87605578Y-112296284D01*
X87600883Y-112299547D01*
X87258544Y-112561284D01*
X87254149Y-112564972D01*
X87147681Y-112662874D01*
X87139492Y-112676483D01*
X85258000Y-112676483D01*
X85258000Y-111100000D01*
X111661500Y-111100000D01*
X111681462Y-111289927D01*
X111740476Y-111471554D01*
X111743779Y-111477276D01*
X111743780Y-111477277D01*
X111785478Y-111549500D01*
X111802216Y-111618495D01*
X111785478Y-111675500D01*
X111740476Y-111753446D01*
X111681462Y-111935073D01*
X111680772Y-111941636D01*
X111680772Y-111941637D01*
X111676372Y-111983500D01*
X111661500Y-112125000D01*
X111662190Y-112131565D01*
X111679846Y-112299547D01*
X111681462Y-112314927D01*
X111740476Y-112496554D01*
X111743779Y-112502276D01*
X111743780Y-112502277D01*
X111758003Y-112526912D01*
X111835963Y-112661942D01*
X111840381Y-112666849D01*
X111840382Y-112666850D01*
X111935900Y-112772934D01*
X111963749Y-112803863D01*
X111969091Y-112807744D01*
X111969093Y-112807746D01*
X112092404Y-112897336D01*
X112118250Y-112916114D01*
X112124278Y-112918798D01*
X112124280Y-112918799D01*
X112286682Y-112991105D01*
X112292713Y-112993790D01*
X112386113Y-113013643D01*
X112473056Y-113032124D01*
X112473061Y-113032124D01*
X112479513Y-113033496D01*
X112670487Y-113033496D01*
X112676939Y-113032124D01*
X112676944Y-113032124D01*
X112763887Y-113013643D01*
X112857287Y-112993790D01*
X112863318Y-112991105D01*
X113025720Y-112918799D01*
X113025722Y-112918798D01*
X113031750Y-112916114D01*
X113057596Y-112897336D01*
X113180907Y-112807746D01*
X113180909Y-112807744D01*
X113186251Y-112803863D01*
X113214100Y-112772934D01*
X113309618Y-112666850D01*
X113309619Y-112666849D01*
X113314037Y-112661942D01*
X113363891Y-112575592D01*
X128315656Y-112575592D01*
X128354240Y-112778821D01*
X128430558Y-112971088D01*
X128433782Y-112976138D01*
X128433783Y-112976141D01*
X128479227Y-113047336D01*
X128541856Y-113145455D01*
X128684118Y-113295631D01*
X128688983Y-113299120D01*
X128688986Y-113299123D01*
X128847340Y-113412702D01*
X128847345Y-113412705D01*
X128852211Y-113416195D01*
X129040070Y-113502799D01*
X129045886Y-113504233D01*
X129045889Y-113504234D01*
X129235091Y-113550882D01*
X129235093Y-113550882D01*
X129240916Y-113552318D01*
X129246907Y-113552627D01*
X129246909Y-113552627D01*
X129306466Y-113555696D01*
X129447502Y-113562964D01*
X129453437Y-113562135D01*
X129453441Y-113562135D01*
X129574183Y-113545273D01*
X129652373Y-113534353D01*
X129794058Y-113485981D01*
X129842460Y-113469457D01*
X129842462Y-113469456D01*
X129848139Y-113467518D01*
X130027735Y-113364871D01*
X130184680Y-113230115D01*
X130313312Y-113068112D01*
X130321473Y-113052469D01*
X130406216Y-112890026D01*
X130406217Y-112890024D01*
X130408990Y-112884708D01*
X130468260Y-112686521D01*
X130470533Y-112663953D01*
X130484375Y-112526483D01*
X131939492Y-112526483D01*
X131939504Y-112526912D01*
X131944872Y-112535662D01*
X135137188Y-115727978D01*
X135151132Y-115735592D01*
X135152965Y-115735461D01*
X135159580Y-115731210D01*
X138353614Y-112537176D01*
X138361022Y-112523609D01*
X138354280Y-112513953D01*
X138115353Y-112309167D01*
X138110841Y-112305642D01*
X137759578Y-112056013D01*
X137754773Y-112052916D01*
X137382300Y-111836131D01*
X137377266Y-111833500D01*
X136986688Y-111651370D01*
X136981395Y-111649189D01*
X136575933Y-111503213D01*
X136570473Y-111501524D01*
X136153448Y-111392897D01*
X136147858Y-111391709D01*
X135722698Y-111321324D01*
X135717033Y-111320648D01*
X135287233Y-111289086D01*
X135281532Y-111288927D01*
X134850640Y-111296447D01*
X134844952Y-111296805D01*
X134416533Y-111343347D01*
X134410863Y-111344225D01*
X133988437Y-111429401D01*
X133982892Y-111430783D01*
X133569906Y-111553900D01*
X133564502Y-111555782D01*
X133164388Y-111715816D01*
X133159181Y-111718178D01*
X132775201Y-111913825D01*
X132770236Y-111916646D01*
X132405578Y-112146284D01*
X132400883Y-112149547D01*
X132058544Y-112411284D01*
X132054149Y-112414972D01*
X131947681Y-112512874D01*
X131939492Y-112526483D01*
X130484375Y-112526483D01*
X130487389Y-112496554D01*
X130488985Y-112480702D01*
X130489000Y-112475000D01*
X130487490Y-112459167D01*
X130480709Y-112388097D01*
X130469353Y-112269075D01*
X130411121Y-112070580D01*
X130407642Y-112063825D01*
X130319151Y-111892009D01*
X130319149Y-111892006D01*
X130316405Y-111886678D01*
X130216687Y-111759731D01*
X130192329Y-111728721D01*
X130192325Y-111728716D01*
X130188623Y-111724004D01*
X130032386Y-111588428D01*
X129853330Y-111484842D01*
X129657917Y-111416983D01*
X129651982Y-111416122D01*
X129651980Y-111416122D01*
X129459137Y-111388161D01*
X129459134Y-111388161D01*
X129453197Y-111387300D01*
X129246559Y-111396864D01*
X129117816Y-111427891D01*
X129051289Y-111443924D01*
X129051287Y-111443925D01*
X129045456Y-111445330D01*
X129039998Y-111447812D01*
X129039994Y-111447813D01*
X128939848Y-111493347D01*
X128857147Y-111530949D01*
X128688425Y-111650632D01*
X128545379Y-111800061D01*
X128542127Y-111805098D01*
X128542125Y-111805100D01*
X128453964Y-111941637D01*
X128433169Y-111973842D01*
X128430927Y-111979405D01*
X128362358Y-112149547D01*
X128355845Y-112165707D01*
X128354697Y-112171588D01*
X128354695Y-112171593D01*
X128327986Y-112308363D01*
X128316197Y-112368732D01*
X128315656Y-112575592D01*
X113363891Y-112575592D01*
X113391997Y-112526912D01*
X113406220Y-112502277D01*
X113406221Y-112502276D01*
X113409524Y-112496554D01*
X113468538Y-112314927D01*
X113470155Y-112299547D01*
X113487810Y-112131565D01*
X113488500Y-112125000D01*
X113473628Y-111983500D01*
X113469228Y-111941637D01*
X113469228Y-111941636D01*
X113468538Y-111935073D01*
X113409524Y-111753446D01*
X113364522Y-111675500D01*
X113347784Y-111606505D01*
X113364522Y-111549500D01*
X113406220Y-111477277D01*
X113406221Y-111477276D01*
X113409524Y-111471554D01*
X113468538Y-111289927D01*
X113488500Y-111100000D01*
X113468538Y-110910073D01*
X113409524Y-110728446D01*
X113314037Y-110563058D01*
X113186251Y-110421137D01*
X113180909Y-110417256D01*
X113180907Y-110417254D01*
X113037092Y-110312767D01*
X113037091Y-110312766D01*
X113031750Y-110308886D01*
X113025722Y-110306202D01*
X113025720Y-110306201D01*
X112863318Y-110233895D01*
X112863317Y-110233895D01*
X112857287Y-110231210D01*
X112763887Y-110211357D01*
X112676944Y-110192876D01*
X112676939Y-110192876D01*
X112670487Y-110191504D01*
X112479513Y-110191504D01*
X112473061Y-110192876D01*
X112473056Y-110192876D01*
X112386113Y-110211357D01*
X112292713Y-110231210D01*
X112286683Y-110233895D01*
X112286682Y-110233895D01*
X112124280Y-110306201D01*
X112124278Y-110306202D01*
X112118250Y-110308886D01*
X112112909Y-110312766D01*
X112112908Y-110312767D01*
X111969093Y-110417254D01*
X111969091Y-110417256D01*
X111963749Y-110421137D01*
X111835963Y-110563058D01*
X111740476Y-110728446D01*
X111681462Y-110910073D01*
X111661500Y-111100000D01*
X85258000Y-111100000D01*
X85258000Y-108975000D01*
X111661500Y-108975000D01*
X111681462Y-109164927D01*
X111740476Y-109346554D01*
X111835963Y-109511942D01*
X111963749Y-109653863D01*
X111969091Y-109657744D01*
X111969093Y-109657746D01*
X112112908Y-109762233D01*
X112118250Y-109766114D01*
X112124278Y-109768798D01*
X112124280Y-109768799D01*
X112286682Y-109841105D01*
X112292713Y-109843790D01*
X112386113Y-109863643D01*
X112473056Y-109882124D01*
X112473061Y-109882124D01*
X112479513Y-109883496D01*
X112670487Y-109883496D01*
X112676939Y-109882124D01*
X112676944Y-109882124D01*
X112763887Y-109863643D01*
X112857287Y-109843790D01*
X112863318Y-109841105D01*
X113025720Y-109768799D01*
X113025722Y-109768798D01*
X113031750Y-109766114D01*
X113037092Y-109762233D01*
X113180907Y-109657746D01*
X113180909Y-109657744D01*
X113186251Y-109653863D01*
X113314037Y-109511942D01*
X113409524Y-109346554D01*
X113468538Y-109164927D01*
X113488500Y-108975000D01*
X113468538Y-108785073D01*
X113409524Y-108603446D01*
X113314037Y-108438058D01*
X113309617Y-108433150D01*
X113305738Y-108427810D01*
X113307936Y-108426213D01*
X113282433Y-108373055D01*
X113291205Y-108302603D01*
X113313152Y-108268456D01*
X113359618Y-108216850D01*
X113359619Y-108216849D01*
X113364037Y-108211942D01*
X113446301Y-108069457D01*
X113456220Y-108052277D01*
X113456221Y-108052276D01*
X113459524Y-108046554D01*
X113518538Y-107864927D01*
X113521787Y-107834020D01*
X113537810Y-107681565D01*
X113538500Y-107675000D01*
X113528110Y-107576141D01*
X113519228Y-107491637D01*
X113519228Y-107491636D01*
X113518538Y-107485073D01*
X113459524Y-107303446D01*
X113453071Y-107292268D01*
X113407275Y-107212949D01*
X113364037Y-107138058D01*
X113309827Y-107077851D01*
X113240673Y-107001048D01*
X113240672Y-107001047D01*
X113236251Y-106996137D01*
X113230909Y-106992256D01*
X113230907Y-106992254D01*
X113087092Y-106887767D01*
X113087091Y-106887766D01*
X113081750Y-106883886D01*
X113075722Y-106881202D01*
X113075720Y-106881201D01*
X112913318Y-106808895D01*
X112913317Y-106808895D01*
X112907287Y-106806210D01*
X112813887Y-106786357D01*
X112726944Y-106767876D01*
X112726939Y-106767876D01*
X112720487Y-106766504D01*
X112529513Y-106766504D01*
X112523061Y-106767876D01*
X112523056Y-106767876D01*
X112436113Y-106786357D01*
X112342713Y-106806210D01*
X112336683Y-106808895D01*
X112336682Y-106808895D01*
X112174280Y-106881201D01*
X112174278Y-106881202D01*
X112168250Y-106883886D01*
X112162909Y-106887766D01*
X112162908Y-106887767D01*
X112019093Y-106992254D01*
X112019091Y-106992256D01*
X112013749Y-106996137D01*
X112009328Y-107001047D01*
X112009327Y-107001048D01*
X111940174Y-107077851D01*
X111885963Y-107138058D01*
X111842725Y-107212949D01*
X111796930Y-107292268D01*
X111790476Y-107303446D01*
X111731462Y-107485073D01*
X111730772Y-107491636D01*
X111730772Y-107491637D01*
X111721890Y-107576141D01*
X111711500Y-107675000D01*
X111712190Y-107681565D01*
X111728214Y-107834020D01*
X111731462Y-107864927D01*
X111790476Y-108046554D01*
X111793779Y-108052276D01*
X111793780Y-108052277D01*
X111803699Y-108069457D01*
X111885963Y-108211942D01*
X111890383Y-108216850D01*
X111894262Y-108222190D01*
X111892064Y-108223787D01*
X111917567Y-108276945D01*
X111908795Y-108347397D01*
X111886848Y-108381544D01*
X111846628Y-108426213D01*
X111835963Y-108438058D01*
X111740476Y-108603446D01*
X111681462Y-108785073D01*
X111661500Y-108975000D01*
X85258000Y-108975000D01*
X85258000Y-107175592D01*
X97490656Y-107175592D01*
X97504039Y-107246082D01*
X97520636Y-107333500D01*
X97529240Y-107378821D01*
X97605558Y-107571088D01*
X97716856Y-107745455D01*
X97859118Y-107895631D01*
X97863983Y-107899120D01*
X97863986Y-107899123D01*
X98022340Y-108012702D01*
X98022345Y-108012705D01*
X98027211Y-108016195D01*
X98215070Y-108102799D01*
X98220886Y-108104233D01*
X98220889Y-108104234D01*
X98410091Y-108150882D01*
X98410093Y-108150882D01*
X98415916Y-108152318D01*
X98421907Y-108152627D01*
X98421909Y-108152627D01*
X98481466Y-108155696D01*
X98622502Y-108162964D01*
X98628437Y-108162135D01*
X98628441Y-108162135D01*
X98749183Y-108145273D01*
X98827373Y-108134353D01*
X98969058Y-108085981D01*
X99017460Y-108069457D01*
X99017462Y-108069456D01*
X99023139Y-108067518D01*
X99202735Y-107964871D01*
X99359680Y-107830115D01*
X99488312Y-107668112D01*
X99491087Y-107662793D01*
X99581216Y-107490026D01*
X99581217Y-107490024D01*
X99583990Y-107484708D01*
X99643260Y-107286521D01*
X99663985Y-107080702D01*
X99664000Y-107075000D01*
X99644353Y-106869075D01*
X99586121Y-106670580D01*
X99536298Y-106573842D01*
X99494151Y-106492009D01*
X99494149Y-106492006D01*
X99491405Y-106486678D01*
X99419961Y-106395725D01*
X99367329Y-106328721D01*
X99367325Y-106328716D01*
X99363623Y-106324004D01*
X99207386Y-106188428D01*
X99028330Y-106084842D01*
X98832917Y-106016983D01*
X98826982Y-106016122D01*
X98826980Y-106016122D01*
X98634137Y-105988161D01*
X98634134Y-105988161D01*
X98628197Y-105987300D01*
X98421559Y-105996864D01*
X98292816Y-106027891D01*
X98226289Y-106043924D01*
X98226287Y-106043925D01*
X98220456Y-106045330D01*
X98214998Y-106047812D01*
X98214994Y-106047813D01*
X98101896Y-106099236D01*
X98032147Y-106130949D01*
X97863425Y-106250632D01*
X97720379Y-106400061D01*
X97717127Y-106405098D01*
X97717125Y-106405100D01*
X97664451Y-106486678D01*
X97608169Y-106573842D01*
X97605927Y-106579405D01*
X97571330Y-106665252D01*
X97530845Y-106765707D01*
X97529697Y-106771588D01*
X97529695Y-106771593D01*
X97493731Y-106955754D01*
X97491197Y-106968732D01*
X97490656Y-107175592D01*
X85258000Y-107175592D01*
X85258000Y-104420000D01*
X133436500Y-104420000D01*
X133436500Y-106820000D01*
X133441727Y-106893079D01*
X133482904Y-107033316D01*
X133487775Y-107040895D01*
X133557051Y-107148691D01*
X133557053Y-107148694D01*
X133561923Y-107156271D01*
X133568733Y-107162172D01*
X133665569Y-107246082D01*
X133665572Y-107246084D01*
X133672381Y-107251984D01*
X133680579Y-107255728D01*
X133785067Y-107303446D01*
X133805330Y-107312700D01*
X133814245Y-107313982D01*
X133814246Y-107313982D01*
X133945552Y-107332861D01*
X133945559Y-107332862D01*
X133950000Y-107333500D01*
X136350000Y-107333500D01*
X136423079Y-107328273D01*
X136507633Y-107303446D01*
X136554670Y-107289635D01*
X136554672Y-107289634D01*
X136563316Y-107287096D01*
X136627135Y-107246082D01*
X136678691Y-107212949D01*
X136678694Y-107212947D01*
X136686271Y-107208077D01*
X136692172Y-107201267D01*
X136776082Y-107104431D01*
X136776084Y-107104428D01*
X136781984Y-107097619D01*
X136826087Y-107001048D01*
X136838958Y-106972864D01*
X136838958Y-106972863D01*
X136842700Y-106964670D01*
X136855585Y-106875052D01*
X136862861Y-106824448D01*
X136862862Y-106824441D01*
X136863500Y-106820000D01*
X136863500Y-104420000D01*
X136858273Y-104346921D01*
X136827994Y-104243799D01*
X136819635Y-104215330D01*
X136819634Y-104215328D01*
X136817096Y-104206684D01*
X136763927Y-104123952D01*
X136742949Y-104091309D01*
X136742947Y-104091306D01*
X136738077Y-104083729D01*
X136731267Y-104077828D01*
X136634431Y-103993918D01*
X136634428Y-103993916D01*
X136627619Y-103988016D01*
X136494670Y-103927300D01*
X136485755Y-103926018D01*
X136485754Y-103926018D01*
X136354448Y-103907139D01*
X136354441Y-103907138D01*
X136350000Y-103906500D01*
X135939131Y-103906500D01*
X135871010Y-103886498D01*
X135824517Y-103832842D01*
X135814413Y-103762568D01*
X135843907Y-103697988D01*
X135887356Y-103667258D01*
X135886787Y-103666080D01*
X135899687Y-103659844D01*
X136116117Y-103534131D01*
X136123977Y-103528729D01*
X136151711Y-103506391D01*
X136160177Y-103494203D01*
X136153813Y-103483023D01*
X135162812Y-102492022D01*
X135148868Y-102484408D01*
X135147035Y-102484539D01*
X135140420Y-102488790D01*
X134146396Y-103482814D01*
X134139180Y-103496029D01*
X134146436Y-103506201D01*
X134161323Y-103518452D01*
X134169125Y-103523934D01*
X134384223Y-103651905D01*
X134392780Y-103656152D01*
X134411454Y-103663716D01*
X134467083Y-103707828D01*
X134490032Y-103775013D01*
X134473016Y-103843940D01*
X134421436Y-103892726D01*
X134364152Y-103906500D01*
X133950000Y-103906500D01*
X133876921Y-103911727D01*
X133823884Y-103927300D01*
X133745330Y-103950365D01*
X133745328Y-103950366D01*
X133736684Y-103952904D01*
X133729105Y-103957775D01*
X133621309Y-104027051D01*
X133621306Y-104027053D01*
X133613729Y-104031923D01*
X133607828Y-104038733D01*
X133523918Y-104135569D01*
X133523916Y-104135572D01*
X133518016Y-104142381D01*
X133457300Y-104275330D01*
X133456018Y-104284245D01*
X133456018Y-104284246D01*
X133437139Y-104415552D01*
X133437138Y-104415559D01*
X133436500Y-104420000D01*
X85258000Y-104420000D01*
X85258000Y-103450000D01*
X129836500Y-103450000D01*
X129856462Y-103639927D01*
X129858502Y-103646205D01*
X129858502Y-103646206D01*
X129865342Y-103667258D01*
X129915476Y-103821554D01*
X129918779Y-103827276D01*
X129918780Y-103827277D01*
X129952689Y-103886008D01*
X130010963Y-103986942D01*
X130138749Y-104128863D01*
X130144091Y-104132744D01*
X130144093Y-104132746D01*
X130235429Y-104199105D01*
X130293250Y-104241114D01*
X130299278Y-104243798D01*
X130299280Y-104243799D01*
X130461682Y-104316105D01*
X130467713Y-104318790D01*
X130561113Y-104338643D01*
X130648056Y-104357124D01*
X130648061Y-104357124D01*
X130654513Y-104358496D01*
X130845487Y-104358496D01*
X130851939Y-104357124D01*
X130851944Y-104357124D01*
X130938887Y-104338643D01*
X131032287Y-104318790D01*
X131038318Y-104316105D01*
X131200720Y-104243799D01*
X131200722Y-104243798D01*
X131206750Y-104241114D01*
X131264571Y-104199105D01*
X131355907Y-104132746D01*
X131355909Y-104132744D01*
X131361251Y-104128863D01*
X131489037Y-103986942D01*
X131547311Y-103886008D01*
X131581220Y-103827277D01*
X131581221Y-103827276D01*
X131584524Y-103821554D01*
X131634658Y-103667258D01*
X131641498Y-103646206D01*
X131641498Y-103646205D01*
X131643538Y-103639927D01*
X131663500Y-103450000D01*
X131643538Y-103260073D01*
X131584524Y-103078446D01*
X131489037Y-102913058D01*
X131361251Y-102771137D01*
X131355909Y-102767256D01*
X131355907Y-102767254D01*
X131212092Y-102662767D01*
X131212091Y-102662766D01*
X131206750Y-102658886D01*
X131200722Y-102656202D01*
X131200720Y-102656201D01*
X131038318Y-102583895D01*
X131038317Y-102583895D01*
X131032287Y-102581210D01*
X130938887Y-102561357D01*
X130851944Y-102542876D01*
X130851939Y-102542876D01*
X130845487Y-102541504D01*
X130654513Y-102541504D01*
X130648061Y-102542876D01*
X130648056Y-102542876D01*
X130561113Y-102561357D01*
X130467713Y-102581210D01*
X130461683Y-102583895D01*
X130461682Y-102583895D01*
X130299280Y-102656201D01*
X130299278Y-102656202D01*
X130293250Y-102658886D01*
X130287909Y-102662766D01*
X130287908Y-102662767D01*
X130144093Y-102767254D01*
X130144091Y-102767256D01*
X130138749Y-102771137D01*
X130010963Y-102913058D01*
X129915476Y-103078446D01*
X129856462Y-103260073D01*
X129836500Y-103450000D01*
X85258000Y-103450000D01*
X85258000Y-102195909D01*
X133439040Y-102195909D01*
X133439490Y-102205447D01*
X133470208Y-102453839D01*
X133472093Y-102463190D01*
X133540032Y-102704078D01*
X133543314Y-102713048D01*
X133646906Y-102940888D01*
X133651506Y-102949253D01*
X133764090Y-103121627D01*
X133774815Y-103130783D01*
X133784531Y-103126259D01*
X134777978Y-102132812D01*
X134784355Y-102121132D01*
X135514408Y-102121132D01*
X135514539Y-102122965D01*
X135518790Y-102129580D01*
X136512514Y-103123304D01*
X136523860Y-103129500D01*
X136536349Y-103119618D01*
X136639729Y-102964899D01*
X136644416Y-102956581D01*
X136750392Y-102729832D01*
X136753760Y-102720920D01*
X136824221Y-102480741D01*
X136826204Y-102471413D01*
X136859723Y-102221861D01*
X136860255Y-102215323D01*
X136862905Y-102123295D01*
X136862750Y-102116710D01*
X136843653Y-101865657D01*
X136842211Y-101856234D01*
X136785695Y-101612407D01*
X136782839Y-101603295D01*
X136690096Y-101370834D01*
X136685893Y-101362254D01*
X136559059Y-101146501D01*
X136553600Y-101138648D01*
X136536750Y-101117950D01*
X136524427Y-101109484D01*
X136513423Y-101115787D01*
X135522022Y-102107188D01*
X135514408Y-102121132D01*
X134784355Y-102121132D01*
X134785592Y-102118868D01*
X134785461Y-102117035D01*
X134781210Y-102110420D01*
X133788851Y-101118061D01*
X133776592Y-101111367D01*
X133765152Y-101119989D01*
X133701726Y-101205861D01*
X133696649Y-101213954D01*
X133580114Y-101435450D01*
X133576325Y-101444208D01*
X133494634Y-101680785D01*
X133492210Y-101690023D01*
X133447244Y-101936234D01*
X133446246Y-101945727D01*
X133439040Y-102195909D01*
X85258000Y-102195909D01*
X85258000Y-101175000D01*
X98611500Y-101175000D01*
X98631462Y-101364927D01*
X98633502Y-101371205D01*
X98633502Y-101371206D01*
X98637495Y-101383496D01*
X98690476Y-101546554D01*
X98785963Y-101711942D01*
X98790381Y-101716849D01*
X98790382Y-101716850D01*
X98909327Y-101848952D01*
X98913749Y-101853863D01*
X98919091Y-101857744D01*
X98919093Y-101857746D01*
X99062908Y-101962233D01*
X99068250Y-101966114D01*
X99074278Y-101968798D01*
X99074280Y-101968799D01*
X99236682Y-102041105D01*
X99242713Y-102043790D01*
X99336113Y-102063643D01*
X99423056Y-102082124D01*
X99423061Y-102082124D01*
X99429513Y-102083496D01*
X99620487Y-102083496D01*
X99626939Y-102082124D01*
X99626944Y-102082124D01*
X99713887Y-102063643D01*
X99807287Y-102043790D01*
X99813318Y-102041105D01*
X99975720Y-101968799D01*
X99975722Y-101968798D01*
X99981750Y-101966114D01*
X99987092Y-101962233D01*
X100130907Y-101857746D01*
X100130909Y-101857744D01*
X100136251Y-101853863D01*
X100140673Y-101848952D01*
X100259618Y-101716850D01*
X100259619Y-101716849D01*
X100264037Y-101711942D01*
X100359524Y-101546554D01*
X100412505Y-101383496D01*
X100416498Y-101371206D01*
X100416498Y-101371205D01*
X100418538Y-101364927D01*
X100438500Y-101175000D01*
X100418538Y-100985073D01*
X100359524Y-100803446D01*
X100264037Y-100638058D01*
X100253059Y-100625865D01*
X100140673Y-100501048D01*
X100140672Y-100501047D01*
X100136251Y-100496137D01*
X100130909Y-100492256D01*
X100130907Y-100492254D01*
X100107159Y-100475000D01*
X105286500Y-100475000D01*
X105306462Y-100664927D01*
X105308502Y-100671205D01*
X105308502Y-100671206D01*
X105337060Y-100759098D01*
X105365476Y-100846554D01*
X105460963Y-101011942D01*
X105465381Y-101016849D01*
X105465382Y-101016850D01*
X105554465Y-101115787D01*
X105588749Y-101153863D01*
X105594091Y-101157744D01*
X105594093Y-101157746D01*
X105737908Y-101262233D01*
X105743250Y-101266114D01*
X105749278Y-101268798D01*
X105749280Y-101268799D01*
X105911682Y-101341105D01*
X105917713Y-101343790D01*
X106011113Y-101363643D01*
X106098056Y-101382124D01*
X106098061Y-101382124D01*
X106104513Y-101383496D01*
X106295487Y-101383496D01*
X106301939Y-101382124D01*
X106301944Y-101382124D01*
X106388887Y-101363643D01*
X106482287Y-101343790D01*
X106488318Y-101341105D01*
X106650720Y-101268799D01*
X106650722Y-101268798D01*
X106656750Y-101266114D01*
X106662092Y-101262233D01*
X106805907Y-101157746D01*
X106805909Y-101157744D01*
X106811251Y-101153863D01*
X106845535Y-101115787D01*
X106934618Y-101016850D01*
X106934619Y-101016849D01*
X106939037Y-101011942D01*
X107034524Y-100846554D01*
X107062940Y-100759098D01*
X107067089Y-100746327D01*
X134141431Y-100746327D01*
X134148308Y-100759098D01*
X135137188Y-101747978D01*
X135151132Y-101755592D01*
X135152965Y-101755461D01*
X135159580Y-101751210D01*
X136153626Y-100757164D01*
X136160386Y-100744784D01*
X136153825Y-100736019D01*
X135987085Y-100625865D01*
X135978747Y-100621224D01*
X135751456Y-100516442D01*
X135742502Y-100513112D01*
X135501968Y-100443912D01*
X135492635Y-100441980D01*
X135244388Y-100409959D01*
X135234874Y-100409461D01*
X134984644Y-100415357D01*
X134975161Y-100416304D01*
X134728703Y-100459982D01*
X134719463Y-100462355D01*
X134482455Y-100542809D01*
X134473684Y-100546550D01*
X134251567Y-100661931D01*
X134243467Y-100666953D01*
X134149859Y-100735338D01*
X134141431Y-100746327D01*
X107067089Y-100746327D01*
X107091498Y-100671206D01*
X107091498Y-100671205D01*
X107093538Y-100664927D01*
X107113500Y-100475000D01*
X107110233Y-100443912D01*
X107094228Y-100291637D01*
X107094228Y-100291636D01*
X107093538Y-100285073D01*
X107087951Y-100267876D01*
X107036566Y-100109731D01*
X107034524Y-100103446D01*
X106939037Y-99938058D01*
X106811251Y-99796137D01*
X106805909Y-99792256D01*
X106805907Y-99792254D01*
X106662092Y-99687767D01*
X106662091Y-99687766D01*
X106656750Y-99683886D01*
X106650722Y-99681202D01*
X106650720Y-99681201D01*
X106488318Y-99608895D01*
X106488317Y-99608895D01*
X106482287Y-99606210D01*
X106388887Y-99586357D01*
X106301944Y-99567876D01*
X106301939Y-99567876D01*
X106295487Y-99566504D01*
X106104513Y-99566504D01*
X106098061Y-99567876D01*
X106098056Y-99567876D01*
X106011113Y-99586357D01*
X105917713Y-99606210D01*
X105911683Y-99608895D01*
X105911682Y-99608895D01*
X105749280Y-99681201D01*
X105749278Y-99681202D01*
X105743250Y-99683886D01*
X105737909Y-99687766D01*
X105737908Y-99687767D01*
X105594093Y-99792254D01*
X105594091Y-99792256D01*
X105588749Y-99796137D01*
X105460963Y-99938058D01*
X105365476Y-100103446D01*
X105363434Y-100109731D01*
X105312050Y-100267876D01*
X105306462Y-100285073D01*
X105305772Y-100291636D01*
X105305772Y-100291637D01*
X105289767Y-100443912D01*
X105286500Y-100475000D01*
X100107159Y-100475000D01*
X99987092Y-100387767D01*
X99987091Y-100387766D01*
X99981750Y-100383886D01*
X99975722Y-100381202D01*
X99975720Y-100381201D01*
X99813318Y-100308895D01*
X99813317Y-100308895D01*
X99807287Y-100306210D01*
X99707846Y-100285073D01*
X99626944Y-100267876D01*
X99626939Y-100267876D01*
X99620487Y-100266504D01*
X99429513Y-100266504D01*
X99423061Y-100267876D01*
X99423056Y-100267876D01*
X99342154Y-100285073D01*
X99242713Y-100306210D01*
X99236683Y-100308895D01*
X99236682Y-100308895D01*
X99074280Y-100381201D01*
X99074278Y-100381202D01*
X99068250Y-100383886D01*
X99062909Y-100387766D01*
X99062908Y-100387767D01*
X98919093Y-100492254D01*
X98919091Y-100492256D01*
X98913749Y-100496137D01*
X98909328Y-100501047D01*
X98909327Y-100501048D01*
X98796942Y-100625865D01*
X98785963Y-100638058D01*
X98690476Y-100803446D01*
X98631462Y-100985073D01*
X98611500Y-101175000D01*
X85258000Y-101175000D01*
X85258000Y-98400000D01*
X93161500Y-98400000D01*
X93181462Y-98589927D01*
X93240476Y-98771554D01*
X93335963Y-98936942D01*
X93463749Y-99078863D01*
X93469091Y-99082744D01*
X93469093Y-99082746D01*
X93612908Y-99187233D01*
X93618250Y-99191114D01*
X93624278Y-99193798D01*
X93624280Y-99193799D01*
X93786682Y-99266105D01*
X93792713Y-99268790D01*
X93886113Y-99288643D01*
X93973056Y-99307124D01*
X93973061Y-99307124D01*
X93979513Y-99308496D01*
X94170487Y-99308496D01*
X94176939Y-99307124D01*
X94176944Y-99307124D01*
X94263887Y-99288643D01*
X94357287Y-99268790D01*
X94363318Y-99266105D01*
X94525720Y-99193799D01*
X94525722Y-99193798D01*
X94531750Y-99191114D01*
X94537092Y-99187233D01*
X94680907Y-99082746D01*
X94680909Y-99082744D01*
X94686251Y-99078863D01*
X94814037Y-98936942D01*
X94909524Y-98771554D01*
X94968538Y-98589927D01*
X94988500Y-98400000D01*
X94968538Y-98210073D01*
X94909524Y-98028446D01*
X94814037Y-97863058D01*
X94686251Y-97721137D01*
X94680909Y-97717256D01*
X94680907Y-97717254D01*
X94537092Y-97612767D01*
X94537091Y-97612766D01*
X94531750Y-97608886D01*
X94525722Y-97606202D01*
X94525720Y-97606201D01*
X94363318Y-97533895D01*
X94363317Y-97533895D01*
X94357287Y-97531210D01*
X94263887Y-97511357D01*
X94176944Y-97492876D01*
X94176939Y-97492876D01*
X94170487Y-97491504D01*
X93979513Y-97491504D01*
X93973061Y-97492876D01*
X93973056Y-97492876D01*
X93886113Y-97511357D01*
X93792713Y-97531210D01*
X93786683Y-97533895D01*
X93786682Y-97533895D01*
X93624280Y-97606201D01*
X93624278Y-97606202D01*
X93618250Y-97608886D01*
X93612909Y-97612766D01*
X93612908Y-97612767D01*
X93469093Y-97717254D01*
X93469091Y-97717256D01*
X93463749Y-97721137D01*
X93335963Y-97863058D01*
X93240476Y-98028446D01*
X93181462Y-98210073D01*
X93161500Y-98400000D01*
X85258000Y-98400000D01*
X85258000Y-90200000D01*
X87550000Y-90200000D01*
X87550000Y-96400000D01*
X90750000Y-96400000D01*
X90750000Y-94726000D01*
X90770002Y-94657879D01*
X90823658Y-94611386D01*
X90876000Y-94600000D01*
X91225000Y-94600000D01*
X91225000Y-94251000D01*
X91245002Y-94182879D01*
X91298658Y-94136386D01*
X91351000Y-94125000D01*
X93875000Y-94125000D01*
X93875000Y-92901000D01*
X93895002Y-92832879D01*
X93948658Y-92786386D01*
X94001000Y-92775000D01*
X96775000Y-92775000D01*
X96775000Y-91750000D01*
X91276000Y-91750000D01*
X91207879Y-91729998D01*
X91161386Y-91676342D01*
X91150000Y-91624000D01*
X91150000Y-90200000D01*
X92161500Y-90200000D01*
X92181462Y-90389927D01*
X92240476Y-90571554D01*
X92335963Y-90736942D01*
X92463749Y-90878863D01*
X92469091Y-90882744D01*
X92469093Y-90882746D01*
X92612908Y-90987233D01*
X92618250Y-90991114D01*
X92624278Y-90993798D01*
X92624280Y-90993799D01*
X92683461Y-91020148D01*
X92792713Y-91068790D01*
X92886113Y-91088643D01*
X92973056Y-91107124D01*
X92973061Y-91107124D01*
X92979513Y-91108496D01*
X93170487Y-91108496D01*
X93176939Y-91107124D01*
X93176944Y-91107124D01*
X93210458Y-91100000D01*
X101236500Y-91100000D01*
X101256462Y-91289927D01*
X101315476Y-91471554D01*
X101410963Y-91636942D01*
X101538749Y-91778863D01*
X101544091Y-91782744D01*
X101544093Y-91782746D01*
X101687908Y-91887233D01*
X101693250Y-91891114D01*
X101699278Y-91893798D01*
X101699280Y-91893799D01*
X101861682Y-91966105D01*
X101867713Y-91968790D01*
X101961113Y-91988643D01*
X102048056Y-92007124D01*
X102048061Y-92007124D01*
X102054513Y-92008496D01*
X102245487Y-92008496D01*
X102251939Y-92007124D01*
X102251944Y-92007124D01*
X102338887Y-91988643D01*
X102432287Y-91968790D01*
X102438318Y-91966105D01*
X102600720Y-91893799D01*
X102600722Y-91893798D01*
X102606750Y-91891114D01*
X102612092Y-91887233D01*
X102755907Y-91782746D01*
X102755909Y-91782744D01*
X102761251Y-91778863D01*
X102889037Y-91636942D01*
X102984524Y-91471554D01*
X103043538Y-91289927D01*
X103063500Y-91100000D01*
X103043538Y-90910073D01*
X103015553Y-90823942D01*
X104235442Y-90823942D01*
X104236132Y-90830507D01*
X104253295Y-90993799D01*
X104255404Y-91013869D01*
X104314418Y-91195496D01*
X104409905Y-91360884D01*
X104414323Y-91365791D01*
X104414324Y-91365792D01*
X104533269Y-91497894D01*
X104537691Y-91502805D01*
X104543033Y-91506686D01*
X104543035Y-91506688D01*
X104686850Y-91611175D01*
X104692192Y-91615056D01*
X104698220Y-91617740D01*
X104698222Y-91617741D01*
X104752372Y-91641850D01*
X104866655Y-91692732D01*
X104960055Y-91712585D01*
X105046998Y-91731066D01*
X105047003Y-91731066D01*
X105053455Y-91732438D01*
X105244429Y-91732438D01*
X105250881Y-91731066D01*
X105250886Y-91731066D01*
X105337829Y-91712585D01*
X105431229Y-91692732D01*
X105545512Y-91641850D01*
X105599662Y-91617741D01*
X105599664Y-91617740D01*
X105605692Y-91615056D01*
X105611034Y-91611175D01*
X105754849Y-91506688D01*
X105754851Y-91506686D01*
X105760193Y-91502805D01*
X105764615Y-91497894D01*
X105883560Y-91365792D01*
X105883561Y-91365791D01*
X105887979Y-91360884D01*
X105983466Y-91195496D01*
X106042480Y-91013869D01*
X106044590Y-90993799D01*
X106061752Y-90830507D01*
X106062442Y-90823942D01*
X106042480Y-90634015D01*
X105983466Y-90452388D01*
X105887979Y-90287000D01*
X105760193Y-90145079D01*
X105754851Y-90141198D01*
X105754849Y-90141196D01*
X105611034Y-90036709D01*
X105611033Y-90036708D01*
X105605692Y-90032828D01*
X105599664Y-90030144D01*
X105599662Y-90030143D01*
X105437260Y-89957837D01*
X105437259Y-89957837D01*
X105431229Y-89955152D01*
X105337829Y-89935299D01*
X105250886Y-89916818D01*
X105250881Y-89916818D01*
X105244429Y-89915446D01*
X105053455Y-89915446D01*
X105047003Y-89916818D01*
X105046998Y-89916818D01*
X104960055Y-89935299D01*
X104866655Y-89955152D01*
X104860625Y-89957837D01*
X104860624Y-89957837D01*
X104698222Y-90030143D01*
X104698220Y-90030144D01*
X104692192Y-90032828D01*
X104686851Y-90036708D01*
X104686850Y-90036709D01*
X104543035Y-90141196D01*
X104543033Y-90141198D01*
X104537691Y-90145079D01*
X104409905Y-90287000D01*
X104314418Y-90452388D01*
X104255404Y-90634015D01*
X104235442Y-90823942D01*
X103015553Y-90823942D01*
X102984524Y-90728446D01*
X102889037Y-90563058D01*
X102789390Y-90452388D01*
X102765673Y-90426048D01*
X102765672Y-90426047D01*
X102761251Y-90421137D01*
X102755909Y-90417256D01*
X102755907Y-90417254D01*
X102612092Y-90312767D01*
X102612091Y-90312766D01*
X102606750Y-90308886D01*
X102600722Y-90306202D01*
X102600720Y-90306201D01*
X102438318Y-90233895D01*
X102438317Y-90233895D01*
X102432287Y-90231210D01*
X102316343Y-90206565D01*
X102251944Y-90192876D01*
X102251939Y-90192876D01*
X102245487Y-90191504D01*
X102054513Y-90191504D01*
X102048061Y-90192876D01*
X102048056Y-90192876D01*
X101983657Y-90206565D01*
X101867713Y-90231210D01*
X101861683Y-90233895D01*
X101861682Y-90233895D01*
X101699280Y-90306201D01*
X101699278Y-90306202D01*
X101693250Y-90308886D01*
X101687909Y-90312766D01*
X101687908Y-90312767D01*
X101544093Y-90417254D01*
X101544091Y-90417256D01*
X101538749Y-90421137D01*
X101534328Y-90426047D01*
X101534327Y-90426048D01*
X101510611Y-90452388D01*
X101410963Y-90563058D01*
X101315476Y-90728446D01*
X101256462Y-90910073D01*
X101236500Y-91100000D01*
X93210458Y-91100000D01*
X93263887Y-91088643D01*
X93357287Y-91068790D01*
X93466539Y-91020148D01*
X93525720Y-90993799D01*
X93525722Y-90993798D01*
X93531750Y-90991114D01*
X93537092Y-90987233D01*
X93680907Y-90882746D01*
X93680909Y-90882744D01*
X93686251Y-90878863D01*
X93814037Y-90736942D01*
X93909524Y-90571554D01*
X93968538Y-90389927D01*
X93988500Y-90200000D01*
X93982728Y-90145079D01*
X93969228Y-90016637D01*
X93969228Y-90016636D01*
X93968538Y-90010073D01*
X93909524Y-89828446D01*
X93849800Y-89725000D01*
X109036500Y-89725000D01*
X109037190Y-89731565D01*
X109047373Y-89828446D01*
X109056462Y-89914927D01*
X109115476Y-90096554D01*
X109210963Y-90261942D01*
X109215381Y-90266849D01*
X109215382Y-90266850D01*
X109334327Y-90398952D01*
X109338749Y-90403863D01*
X109344091Y-90407744D01*
X109344093Y-90407746D01*
X109487908Y-90512233D01*
X109493250Y-90516114D01*
X109499278Y-90518798D01*
X109499280Y-90518799D01*
X109617770Y-90571554D01*
X109667713Y-90593790D01*
X109761113Y-90613643D01*
X109848056Y-90632124D01*
X109848061Y-90632124D01*
X109854513Y-90633496D01*
X110045487Y-90633496D01*
X110051939Y-90632124D01*
X110051944Y-90632124D01*
X110138887Y-90613643D01*
X110232287Y-90593790D01*
X110282230Y-90571554D01*
X110400720Y-90518799D01*
X110400722Y-90518798D01*
X110406750Y-90516114D01*
X110412092Y-90512233D01*
X110555907Y-90407746D01*
X110555909Y-90407744D01*
X110561251Y-90403863D01*
X110565673Y-90398952D01*
X110684618Y-90266850D01*
X110684619Y-90266849D01*
X110689037Y-90261942D01*
X110784524Y-90096554D01*
X110843538Y-89914927D01*
X110852628Y-89828446D01*
X110862810Y-89731565D01*
X110863500Y-89725000D01*
X110843538Y-89535073D01*
X110784524Y-89353446D01*
X110689037Y-89188058D01*
X110561251Y-89046137D01*
X110555909Y-89042256D01*
X110555907Y-89042254D01*
X110412092Y-88937767D01*
X110412091Y-88937766D01*
X110406750Y-88933886D01*
X110400722Y-88931202D01*
X110400720Y-88931201D01*
X110238318Y-88858895D01*
X110238317Y-88858895D01*
X110232287Y-88856210D01*
X110138887Y-88836357D01*
X110051944Y-88817876D01*
X110051939Y-88817876D01*
X110045487Y-88816504D01*
X109854513Y-88816504D01*
X109848061Y-88817876D01*
X109848056Y-88817876D01*
X109761113Y-88836357D01*
X109667713Y-88856210D01*
X109661683Y-88858895D01*
X109661682Y-88858895D01*
X109499280Y-88931201D01*
X109499278Y-88931202D01*
X109493250Y-88933886D01*
X109487909Y-88937766D01*
X109487908Y-88937767D01*
X109344093Y-89042254D01*
X109344091Y-89042256D01*
X109338749Y-89046137D01*
X109210963Y-89188058D01*
X109115476Y-89353446D01*
X109056462Y-89535073D01*
X109036500Y-89725000D01*
X93849800Y-89725000D01*
X93814037Y-89663058D01*
X93693146Y-89528794D01*
X93690673Y-89526048D01*
X93690672Y-89526047D01*
X93686251Y-89521137D01*
X93680909Y-89517256D01*
X93680907Y-89517254D01*
X93537092Y-89412767D01*
X93537091Y-89412766D01*
X93531750Y-89408886D01*
X93525722Y-89406202D01*
X93525720Y-89406201D01*
X93363318Y-89333895D01*
X93363317Y-89333895D01*
X93357287Y-89331210D01*
X93263887Y-89311357D01*
X93176944Y-89292876D01*
X93176939Y-89292876D01*
X93170487Y-89291504D01*
X92979513Y-89291504D01*
X92973061Y-89292876D01*
X92973056Y-89292876D01*
X92886113Y-89311357D01*
X92792713Y-89331210D01*
X92786683Y-89333895D01*
X92786682Y-89333895D01*
X92624280Y-89406201D01*
X92624278Y-89406202D01*
X92618250Y-89408886D01*
X92612909Y-89412766D01*
X92612908Y-89412767D01*
X92469093Y-89517254D01*
X92469091Y-89517256D01*
X92463749Y-89521137D01*
X92459328Y-89526047D01*
X92459327Y-89526048D01*
X92456855Y-89528794D01*
X92335963Y-89663058D01*
X92240476Y-89828446D01*
X92181462Y-90010073D01*
X92180772Y-90016636D01*
X92180772Y-90016637D01*
X92167272Y-90145079D01*
X92161500Y-90200000D01*
X91150000Y-90200000D01*
X87550000Y-90200000D01*
X85258000Y-90200000D01*
X85258000Y-88646201D01*
X85258005Y-88645077D01*
X85282938Y-85850000D01*
X88511500Y-85850000D01*
X88531462Y-86039927D01*
X88590476Y-86221554D01*
X88685963Y-86386942D01*
X88813749Y-86528863D01*
X88819091Y-86532744D01*
X88819093Y-86532746D01*
X88962908Y-86637233D01*
X88968250Y-86641114D01*
X88974278Y-86643798D01*
X88974280Y-86643799D01*
X89136682Y-86716105D01*
X89142713Y-86718790D01*
X89236113Y-86738643D01*
X89323056Y-86757124D01*
X89323061Y-86757124D01*
X89329513Y-86758496D01*
X89520487Y-86758496D01*
X89526939Y-86757124D01*
X89526944Y-86757124D01*
X89613887Y-86738643D01*
X89707287Y-86718790D01*
X89713318Y-86716105D01*
X89875720Y-86643799D01*
X89875722Y-86643798D01*
X89881750Y-86641114D01*
X89887092Y-86637233D01*
X89982968Y-86567575D01*
X134211526Y-86567575D01*
X134218219Y-86641114D01*
X134228902Y-86758496D01*
X134230338Y-86774280D01*
X134232076Y-86780186D01*
X134232077Y-86780190D01*
X134276029Y-86929527D01*
X134288940Y-86973394D01*
X134385101Y-87157333D01*
X134515158Y-87319092D01*
X134674158Y-87452508D01*
X134679550Y-87455472D01*
X134679554Y-87455475D01*
X134737033Y-87487074D01*
X134856043Y-87552500D01*
X134861910Y-87554361D01*
X134861912Y-87554362D01*
X134879799Y-87560036D01*
X135053886Y-87615260D01*
X135216502Y-87633500D01*
X135725994Y-87633500D01*
X135881568Y-87618246D01*
X136080268Y-87558255D01*
X136171900Y-87509534D01*
X136258090Y-87463706D01*
X136258093Y-87463704D01*
X136263532Y-87460812D01*
X136268302Y-87456922D01*
X136268306Y-87456919D01*
X136419602Y-87333523D01*
X136424378Y-87329628D01*
X136556681Y-87169702D01*
X136655401Y-86987123D01*
X136716778Y-86788846D01*
X136724424Y-86716105D01*
X136737830Y-86588553D01*
X136737830Y-86588552D01*
X136738474Y-86582425D01*
X136721130Y-86391850D01*
X136720221Y-86381859D01*
X136720220Y-86381856D01*
X136719662Y-86375720D01*
X136713643Y-86355267D01*
X136665408Y-86191381D01*
X136661060Y-86176606D01*
X136564899Y-85992667D01*
X136434842Y-85830908D01*
X136275842Y-85697492D01*
X136270450Y-85694528D01*
X136270446Y-85694525D01*
X136099352Y-85600466D01*
X136099353Y-85600466D01*
X136093957Y-85597500D01*
X136088090Y-85595639D01*
X136088088Y-85595638D01*
X135995035Y-85566120D01*
X135896114Y-85534740D01*
X135733498Y-85516500D01*
X135224006Y-85516500D01*
X135068432Y-85531754D01*
X134869732Y-85591745D01*
X134778100Y-85640466D01*
X134691910Y-85686294D01*
X134691907Y-85686296D01*
X134686468Y-85689188D01*
X134681698Y-85693078D01*
X134681694Y-85693081D01*
X134582637Y-85773871D01*
X134525622Y-85820372D01*
X134521694Y-85825120D01*
X134521693Y-85825121D01*
X134501111Y-85850000D01*
X134393319Y-85980298D01*
X134294599Y-86162877D01*
X134274700Y-86227160D01*
X134236429Y-86350795D01*
X134233222Y-86361154D01*
X134232578Y-86367279D01*
X134232578Y-86367280D01*
X134229996Y-86391850D01*
X134211526Y-86567575D01*
X89982968Y-86567575D01*
X90030907Y-86532746D01*
X90030909Y-86532744D01*
X90036251Y-86528863D01*
X90164037Y-86386942D01*
X90259524Y-86221554D01*
X90318538Y-86039927D01*
X90338500Y-85850000D01*
X90330932Y-85777996D01*
X90319228Y-85666636D01*
X90319228Y-85666634D01*
X90318538Y-85660073D01*
X90259524Y-85478446D01*
X90164037Y-85313058D01*
X90036251Y-85171137D01*
X90030909Y-85167256D01*
X90030907Y-85167254D01*
X89887092Y-85062767D01*
X89887091Y-85062766D01*
X89881750Y-85058886D01*
X89875722Y-85056202D01*
X89875720Y-85056201D01*
X89713318Y-84983895D01*
X89713317Y-84983895D01*
X89707287Y-84981210D01*
X89613887Y-84961357D01*
X89526944Y-84942876D01*
X89526939Y-84942876D01*
X89520487Y-84941504D01*
X89329513Y-84941504D01*
X89323061Y-84942876D01*
X89323056Y-84942876D01*
X89236113Y-84961357D01*
X89142713Y-84981210D01*
X89136683Y-84983895D01*
X89136682Y-84983895D01*
X88974280Y-85056201D01*
X88974278Y-85056202D01*
X88968250Y-85058886D01*
X88962909Y-85062766D01*
X88962908Y-85062767D01*
X88819093Y-85167254D01*
X88819091Y-85167256D01*
X88813749Y-85171137D01*
X88685963Y-85313058D01*
X88590476Y-85478446D01*
X88531462Y-85660073D01*
X88530772Y-85666634D01*
X88530772Y-85666636D01*
X88519068Y-85777996D01*
X88511500Y-85850000D01*
X85282938Y-85850000D01*
X85305293Y-83344021D01*
X85961098Y-83344021D01*
X85999589Y-83534915D01*
X86075679Y-83714170D01*
X86186258Y-83874464D01*
X86326810Y-84009248D01*
X86491594Y-84113018D01*
X86673878Y-84181534D01*
X86680177Y-84182532D01*
X86680178Y-84182532D01*
X86757744Y-84194817D01*
X86866216Y-84211998D01*
X87060751Y-84203164D01*
X87146232Y-84181534D01*
X87243348Y-84156960D01*
X87243350Y-84156959D01*
X87249536Y-84155394D01*
X87255984Y-84152277D01*
X87419112Y-84073418D01*
X87419114Y-84073417D01*
X87424860Y-84070639D01*
X87429929Y-84066763D01*
X87429933Y-84066761D01*
X87519620Y-83998189D01*
X87579561Y-83952361D01*
X87707319Y-83805393D01*
X87724444Y-83775000D01*
X93736500Y-83775000D01*
X93756462Y-83964927D01*
X93758502Y-83971205D01*
X93758502Y-83971206D01*
X93770863Y-84009248D01*
X93815476Y-84146554D01*
X93910963Y-84311942D01*
X94038749Y-84453863D01*
X94044091Y-84457744D01*
X94044093Y-84457746D01*
X94187908Y-84562233D01*
X94193250Y-84566114D01*
X94199278Y-84568798D01*
X94199280Y-84568799D01*
X94361682Y-84641105D01*
X94367713Y-84643790D01*
X94461113Y-84663643D01*
X94548056Y-84682124D01*
X94548061Y-84682124D01*
X94554513Y-84683496D01*
X94745487Y-84683496D01*
X94751939Y-84682124D01*
X94751944Y-84682124D01*
X94838887Y-84663643D01*
X94932287Y-84643790D01*
X94938318Y-84641105D01*
X95100720Y-84568799D01*
X95100722Y-84568798D01*
X95106750Y-84566114D01*
X95112092Y-84562233D01*
X95255907Y-84457746D01*
X95255909Y-84457744D01*
X95261251Y-84453863D01*
X95389037Y-84311942D01*
X95484524Y-84146554D01*
X95529137Y-84009248D01*
X95541498Y-83971206D01*
X95541498Y-83971205D01*
X95543538Y-83964927D01*
X95563500Y-83775000D01*
X95543538Y-83585073D01*
X95484524Y-83403446D01*
X95389037Y-83238058D01*
X95309108Y-83149287D01*
X95265673Y-83101048D01*
X95265672Y-83101047D01*
X95261251Y-83096137D01*
X95255909Y-83092256D01*
X95255907Y-83092254D01*
X95112092Y-82987767D01*
X95112091Y-82987766D01*
X95106750Y-82983886D01*
X95100722Y-82981202D01*
X95100720Y-82981201D01*
X94938318Y-82908895D01*
X94938317Y-82908895D01*
X94932287Y-82906210D01*
X94838887Y-82886357D01*
X94751944Y-82867876D01*
X94751939Y-82867876D01*
X94745487Y-82866504D01*
X94554513Y-82866504D01*
X94548061Y-82867876D01*
X94548056Y-82867876D01*
X94461113Y-82886357D01*
X94367713Y-82906210D01*
X94361683Y-82908895D01*
X94361682Y-82908895D01*
X94199280Y-82981201D01*
X94199278Y-82981202D01*
X94193250Y-82983886D01*
X94187909Y-82987766D01*
X94187908Y-82987767D01*
X94044093Y-83092254D01*
X94044091Y-83092256D01*
X94038749Y-83096137D01*
X94034328Y-83101047D01*
X94034327Y-83101048D01*
X93990893Y-83149287D01*
X93910963Y-83238058D01*
X93815476Y-83403446D01*
X93756462Y-83585073D01*
X93736500Y-83775000D01*
X87724444Y-83775000D01*
X87802915Y-83635736D01*
X87862445Y-83450323D01*
X87883477Y-83256726D01*
X87883500Y-83250000D01*
X87881789Y-83233150D01*
X87864466Y-83062609D01*
X87864466Y-83062607D01*
X87863821Y-83056261D01*
X87805587Y-82870437D01*
X87711177Y-82700117D01*
X87584448Y-82552260D01*
X87430577Y-82432906D01*
X87255849Y-82346929D01*
X87249671Y-82345320D01*
X87249669Y-82345319D01*
X87073585Y-82299452D01*
X87073580Y-82299451D01*
X87067402Y-82297842D01*
X86981392Y-82293334D01*
X86879315Y-82287984D01*
X86879310Y-82287984D01*
X86872933Y-82287650D01*
X86680387Y-82316770D01*
X86674394Y-82318975D01*
X86503615Y-82381809D01*
X86503610Y-82381811D01*
X86497629Y-82384012D01*
X86492207Y-82387374D01*
X86337896Y-82483051D01*
X86332125Y-82486629D01*
X86327492Y-82491010D01*
X86327491Y-82491011D01*
X86293631Y-82523031D01*
X86190635Y-82620429D01*
X86186973Y-82625659D01*
X86186972Y-82625660D01*
X86082604Y-82774714D01*
X86078940Y-82779947D01*
X86001601Y-82958667D01*
X85961778Y-83149287D01*
X85961098Y-83344021D01*
X85305293Y-83344021D01*
X85323750Y-81275000D01*
X98786500Y-81275000D01*
X98806462Y-81464927D01*
X98865476Y-81646554D01*
X98960963Y-81811942D01*
X98965381Y-81816849D01*
X98965382Y-81816850D01*
X99071116Y-81934280D01*
X99088749Y-81953863D01*
X99094091Y-81957744D01*
X99094093Y-81957746D01*
X99237908Y-82062233D01*
X99243250Y-82066114D01*
X99249278Y-82068798D01*
X99249280Y-82068799D01*
X99394363Y-82133394D01*
X99417713Y-82143790D01*
X99511113Y-82163643D01*
X99598056Y-82182124D01*
X99598061Y-82182124D01*
X99604513Y-82183496D01*
X99795487Y-82183496D01*
X99801939Y-82182124D01*
X99801944Y-82182124D01*
X99888887Y-82163643D01*
X99982287Y-82143790D01*
X100005637Y-82133394D01*
X100150720Y-82068799D01*
X100150722Y-82068798D01*
X100156750Y-82066114D01*
X100162092Y-82062233D01*
X100305907Y-81957746D01*
X100305909Y-81957744D01*
X100311251Y-81953863D01*
X100328884Y-81934280D01*
X100434618Y-81816850D01*
X100434619Y-81816849D01*
X100439037Y-81811942D01*
X100534524Y-81646554D01*
X100593538Y-81464927D01*
X100613500Y-81275000D01*
X103636500Y-81275000D01*
X103656462Y-81464927D01*
X103715476Y-81646554D01*
X103810963Y-81811942D01*
X103815381Y-81816849D01*
X103815382Y-81816850D01*
X103921116Y-81934280D01*
X103938749Y-81953863D01*
X103944091Y-81957744D01*
X103944093Y-81957746D01*
X104087908Y-82062233D01*
X104093250Y-82066114D01*
X104099278Y-82068798D01*
X104099280Y-82068799D01*
X104244363Y-82133394D01*
X104267713Y-82143790D01*
X104361113Y-82163643D01*
X104448056Y-82182124D01*
X104448061Y-82182124D01*
X104454513Y-82183496D01*
X104645487Y-82183496D01*
X104651939Y-82182124D01*
X104651944Y-82182124D01*
X104738887Y-82163643D01*
X104832287Y-82143790D01*
X104855637Y-82133394D01*
X105000720Y-82068799D01*
X105000722Y-82068798D01*
X105006750Y-82066114D01*
X105012092Y-82062233D01*
X105155907Y-81957746D01*
X105155909Y-81957744D01*
X105161251Y-81953863D01*
X105178884Y-81934280D01*
X105284618Y-81816850D01*
X105284619Y-81816849D01*
X105289037Y-81811942D01*
X105337746Y-81727575D01*
X134211526Y-81727575D01*
X134230338Y-81934280D01*
X134232076Y-81940186D01*
X134232077Y-81940190D01*
X134239252Y-81964568D01*
X134288940Y-82133394D01*
X134385101Y-82317333D01*
X134515158Y-82479092D01*
X134674158Y-82612508D01*
X134679550Y-82615472D01*
X134679554Y-82615475D01*
X134698081Y-82625660D01*
X134856043Y-82712500D01*
X134861910Y-82714361D01*
X134861912Y-82714362D01*
X134879799Y-82720036D01*
X135053886Y-82775260D01*
X135216502Y-82793500D01*
X135725994Y-82793500D01*
X135881568Y-82778246D01*
X136080268Y-82718255D01*
X136171900Y-82669534D01*
X136258090Y-82623706D01*
X136258093Y-82623704D01*
X136263532Y-82620812D01*
X136268302Y-82616922D01*
X136268306Y-82616919D01*
X136419602Y-82493523D01*
X136424378Y-82489628D01*
X136429641Y-82483267D01*
X136540098Y-82349747D01*
X136556681Y-82329702D01*
X136655401Y-82147123D01*
X136704650Y-81988026D01*
X136714956Y-81954733D01*
X136714957Y-81954730D01*
X136716778Y-81948846D01*
X136717594Y-81941088D01*
X136737830Y-81748553D01*
X136737830Y-81748552D01*
X136738474Y-81742425D01*
X136719662Y-81535720D01*
X136713643Y-81515267D01*
X136662799Y-81342515D01*
X136661060Y-81336606D01*
X136564899Y-81152667D01*
X136434842Y-80990908D01*
X136275842Y-80857492D01*
X136270450Y-80854528D01*
X136270446Y-80854525D01*
X136099352Y-80760466D01*
X136099353Y-80760466D01*
X136093957Y-80757500D01*
X136088090Y-80755639D01*
X136088088Y-80755638D01*
X135982281Y-80722074D01*
X135896114Y-80694740D01*
X135733498Y-80676500D01*
X135224006Y-80676500D01*
X135068432Y-80691754D01*
X134869732Y-80751745D01*
X134779308Y-80799824D01*
X134691910Y-80846294D01*
X134691907Y-80846296D01*
X134686468Y-80849188D01*
X134681698Y-80853078D01*
X134681694Y-80853081D01*
X134607813Y-80913338D01*
X134525622Y-80980372D01*
X134521694Y-80985120D01*
X134521693Y-80985121D01*
X134498919Y-81012650D01*
X134393319Y-81140298D01*
X134294599Y-81322877D01*
X134233222Y-81521154D01*
X134211526Y-81727575D01*
X105337746Y-81727575D01*
X105384524Y-81646554D01*
X105443538Y-81464927D01*
X105463500Y-81275000D01*
X105443538Y-81085073D01*
X105384524Y-80903446D01*
X105289037Y-80738058D01*
X105278556Y-80726417D01*
X105165673Y-80601048D01*
X105165672Y-80601047D01*
X105161251Y-80596137D01*
X105155909Y-80592256D01*
X105155907Y-80592254D01*
X105012092Y-80487767D01*
X105012091Y-80487766D01*
X105006750Y-80483886D01*
X105000722Y-80481202D01*
X105000720Y-80481201D01*
X104838318Y-80408895D01*
X104838317Y-80408895D01*
X104832287Y-80406210D01*
X104738887Y-80386357D01*
X104651944Y-80367876D01*
X104651939Y-80367876D01*
X104645487Y-80366504D01*
X104454513Y-80366504D01*
X104448061Y-80367876D01*
X104448056Y-80367876D01*
X104361113Y-80386357D01*
X104267713Y-80406210D01*
X104261683Y-80408895D01*
X104261682Y-80408895D01*
X104099280Y-80481201D01*
X104099278Y-80481202D01*
X104093250Y-80483886D01*
X104087909Y-80487766D01*
X104087908Y-80487767D01*
X103944093Y-80592254D01*
X103944091Y-80592256D01*
X103938749Y-80596137D01*
X103934328Y-80601047D01*
X103934327Y-80601048D01*
X103821445Y-80726417D01*
X103810963Y-80738058D01*
X103715476Y-80903446D01*
X103656462Y-81085073D01*
X103636500Y-81275000D01*
X100613500Y-81275000D01*
X100593538Y-81085073D01*
X100534524Y-80903446D01*
X100439037Y-80738058D01*
X100428556Y-80726417D01*
X100315673Y-80601048D01*
X100315672Y-80601047D01*
X100311251Y-80596137D01*
X100305909Y-80592256D01*
X100305907Y-80592254D01*
X100162092Y-80487767D01*
X100162091Y-80487766D01*
X100156750Y-80483886D01*
X100150722Y-80481202D01*
X100150720Y-80481201D01*
X99988318Y-80408895D01*
X99988317Y-80408895D01*
X99982287Y-80406210D01*
X99888887Y-80386357D01*
X99801944Y-80367876D01*
X99801939Y-80367876D01*
X99795487Y-80366504D01*
X99604513Y-80366504D01*
X99598061Y-80367876D01*
X99598056Y-80367876D01*
X99511113Y-80386357D01*
X99417713Y-80406210D01*
X99411683Y-80408895D01*
X99411682Y-80408895D01*
X99249280Y-80481201D01*
X99249278Y-80481202D01*
X99243250Y-80483886D01*
X99237909Y-80487766D01*
X99237908Y-80487767D01*
X99094093Y-80592254D01*
X99094091Y-80592256D01*
X99088749Y-80596137D01*
X99084328Y-80601047D01*
X99084327Y-80601048D01*
X98971445Y-80726417D01*
X98960963Y-80738058D01*
X98865476Y-80903446D01*
X98806462Y-81085073D01*
X98786500Y-81275000D01*
X85323750Y-81275000D01*
X85332055Y-80344021D01*
X85961098Y-80344021D01*
X85999589Y-80534915D01*
X86075679Y-80714170D01*
X86186258Y-80874464D01*
X86326810Y-81009248D01*
X86491594Y-81113018D01*
X86497568Y-81115263D01*
X86497569Y-81115264D01*
X86604334Y-81155394D01*
X86673878Y-81181534D01*
X86680177Y-81182532D01*
X86680178Y-81182532D01*
X86757744Y-81194817D01*
X86866216Y-81211998D01*
X87060751Y-81203164D01*
X87146232Y-81181534D01*
X87243348Y-81156960D01*
X87243350Y-81156959D01*
X87249536Y-81155394D01*
X87255283Y-81152616D01*
X87419112Y-81073418D01*
X87419114Y-81073417D01*
X87424860Y-81070639D01*
X87429929Y-81066763D01*
X87429933Y-81066761D01*
X87542924Y-80980372D01*
X87579561Y-80952361D01*
X87707319Y-80805393D01*
X87802915Y-80635736D01*
X87862445Y-80450323D01*
X87883477Y-80256726D01*
X87883500Y-80250000D01*
X87876275Y-80178863D01*
X87864466Y-80062609D01*
X87864466Y-80062607D01*
X87863821Y-80056261D01*
X87805587Y-79870437D01*
X87711177Y-79700117D01*
X87584448Y-79552260D01*
X87517075Y-79500000D01*
X89111500Y-79500000D01*
X89112190Y-79506565D01*
X89124158Y-79620429D01*
X89131462Y-79689927D01*
X89190476Y-79871554D01*
X89285963Y-80036942D01*
X89290381Y-80041849D01*
X89290382Y-80041850D01*
X89381488Y-80143034D01*
X89413749Y-80178863D01*
X89419091Y-80182744D01*
X89419093Y-80182746D01*
X89522632Y-80257971D01*
X89568250Y-80291114D01*
X89574278Y-80293798D01*
X89574280Y-80293799D01*
X89736682Y-80366105D01*
X89742713Y-80368790D01*
X89836113Y-80388643D01*
X89923056Y-80407124D01*
X89923061Y-80407124D01*
X89929513Y-80408496D01*
X90120487Y-80408496D01*
X90126939Y-80407124D01*
X90126944Y-80407124D01*
X90213887Y-80388643D01*
X90307287Y-80368790D01*
X90313318Y-80366105D01*
X90475720Y-80293799D01*
X90475722Y-80293798D01*
X90481750Y-80291114D01*
X90527368Y-80257971D01*
X90630907Y-80182746D01*
X90630909Y-80182744D01*
X90636251Y-80178863D01*
X90668512Y-80143034D01*
X90759618Y-80041850D01*
X90759619Y-80041849D01*
X90764037Y-80036942D01*
X90859524Y-79871554D01*
X90918538Y-79689927D01*
X90925843Y-79620429D01*
X90937810Y-79506565D01*
X90938500Y-79500000D01*
X90922412Y-79346929D01*
X90919228Y-79316637D01*
X90919228Y-79316636D01*
X90918538Y-79310073D01*
X90914456Y-79297508D01*
X90861566Y-79134731D01*
X90859524Y-79128446D01*
X90764037Y-78963058D01*
X90636251Y-78821137D01*
X90630909Y-78817256D01*
X90630907Y-78817254D01*
X90487092Y-78712767D01*
X90487091Y-78712766D01*
X90481750Y-78708886D01*
X90475722Y-78706202D01*
X90475720Y-78706201D01*
X90313318Y-78633895D01*
X90313317Y-78633895D01*
X90307287Y-78631210D01*
X90213887Y-78611357D01*
X90126944Y-78592876D01*
X90126939Y-78592876D01*
X90120487Y-78591504D01*
X89929513Y-78591504D01*
X89923061Y-78592876D01*
X89923056Y-78592876D01*
X89836113Y-78611357D01*
X89742713Y-78631210D01*
X89736683Y-78633895D01*
X89736682Y-78633895D01*
X89574280Y-78706201D01*
X89574278Y-78706202D01*
X89568250Y-78708886D01*
X89562909Y-78712766D01*
X89562908Y-78712767D01*
X89419093Y-78817254D01*
X89419091Y-78817256D01*
X89413749Y-78821137D01*
X89285963Y-78963058D01*
X89190476Y-79128446D01*
X89188434Y-79134731D01*
X89135545Y-79297508D01*
X89131462Y-79310073D01*
X89130772Y-79316636D01*
X89130772Y-79316637D01*
X89127588Y-79346929D01*
X89111500Y-79500000D01*
X87517075Y-79500000D01*
X87430577Y-79432906D01*
X87255849Y-79346929D01*
X87249671Y-79345320D01*
X87249669Y-79345319D01*
X87073585Y-79299452D01*
X87073580Y-79299451D01*
X87067402Y-79297842D01*
X86981392Y-79293334D01*
X86879315Y-79287984D01*
X86879310Y-79287984D01*
X86872933Y-79287650D01*
X86680387Y-79316770D01*
X86674394Y-79318975D01*
X86503615Y-79381809D01*
X86503610Y-79381811D01*
X86497629Y-79384012D01*
X86332125Y-79486629D01*
X86327492Y-79491010D01*
X86327491Y-79491011D01*
X86311043Y-79506565D01*
X86190635Y-79620429D01*
X86078940Y-79779947D01*
X86001601Y-79958667D01*
X85961778Y-80149287D01*
X85961756Y-80155675D01*
X85961158Y-80326969D01*
X85961098Y-80344021D01*
X85332055Y-80344021D01*
X85381266Y-74827522D01*
X86988018Y-74827522D01*
X86988098Y-74828653D01*
X86993080Y-74836228D01*
X87027672Y-74869402D01*
X87031951Y-74873148D01*
X87368774Y-75142030D01*
X87373357Y-75145360D01*
X87733160Y-75382606D01*
X87738056Y-75385524D01*
X88117837Y-75589161D01*
X88123010Y-75591640D01*
X88519703Y-75760026D01*
X88525038Y-75762010D01*
X88935357Y-75893749D01*
X88940880Y-75895249D01*
X89361437Y-75989256D01*
X89367060Y-75990247D01*
X89794420Y-76045751D01*
X89800126Y-76046230D01*
X90230738Y-76062773D01*
X90236464Y-76062733D01*
X90666809Y-76040179D01*
X90672493Y-76039622D01*
X91099044Y-75978156D01*
X91104639Y-75977088D01*
X91523867Y-75877214D01*
X91529347Y-75875643D01*
X91937787Y-75738187D01*
X91943117Y-75736119D01*
X92337419Y-75562212D01*
X92342526Y-75559677D01*
X92719438Y-75350751D01*
X92724316Y-75347750D01*
X93080716Y-75105541D01*
X93085329Y-75102090D01*
X93404890Y-74839599D01*
X93413351Y-74827167D01*
X93407101Y-74816311D01*
X93090790Y-74500000D01*
X109936500Y-74500000D01*
X109956462Y-74689927D01*
X109958502Y-74696205D01*
X109958502Y-74696206D01*
X109969288Y-74729402D01*
X110015476Y-74871554D01*
X110110963Y-75036942D01*
X110115381Y-75041849D01*
X110115382Y-75041850D01*
X110155983Y-75086942D01*
X110238749Y-75178863D01*
X110244091Y-75182744D01*
X110244093Y-75182746D01*
X110282639Y-75210751D01*
X110393250Y-75291114D01*
X110399278Y-75293798D01*
X110399280Y-75293799D01*
X110561682Y-75366105D01*
X110567713Y-75368790D01*
X110661113Y-75388643D01*
X110748056Y-75407124D01*
X110748061Y-75407124D01*
X110754513Y-75408496D01*
X110945487Y-75408496D01*
X110951939Y-75407124D01*
X110951944Y-75407124D01*
X111038887Y-75388643D01*
X111132287Y-75368790D01*
X111138318Y-75366105D01*
X111300720Y-75293799D01*
X111300722Y-75293798D01*
X111306750Y-75291114D01*
X111417361Y-75210751D01*
X111455907Y-75182746D01*
X111455909Y-75182744D01*
X111461251Y-75178863D01*
X111544017Y-75086942D01*
X111584618Y-75041850D01*
X111584619Y-75041849D01*
X111589037Y-75036942D01*
X111684524Y-74871554D01*
X111730712Y-74729402D01*
X111741498Y-74696206D01*
X111741498Y-74696205D01*
X111743538Y-74689927D01*
X111758244Y-74550000D01*
X124336500Y-74550000D01*
X124337190Y-74556565D01*
X124355750Y-74733148D01*
X124356462Y-74739927D01*
X124415476Y-74921554D01*
X124418779Y-74927276D01*
X124418780Y-74927277D01*
X124440872Y-74965541D01*
X124510963Y-75086942D01*
X124515381Y-75091849D01*
X124515382Y-75091850D01*
X124560564Y-75142030D01*
X124638749Y-75228863D01*
X124644091Y-75232744D01*
X124644093Y-75232746D01*
X124728126Y-75293799D01*
X124793250Y-75341114D01*
X124799278Y-75343798D01*
X124799280Y-75343799D01*
X124944592Y-75408496D01*
X124967713Y-75418790D01*
X125061113Y-75438643D01*
X125148056Y-75457124D01*
X125148061Y-75457124D01*
X125154513Y-75458496D01*
X125345487Y-75458496D01*
X125351939Y-75457124D01*
X125351944Y-75457124D01*
X125438887Y-75438643D01*
X125532287Y-75418790D01*
X125555408Y-75408496D01*
X125700720Y-75343799D01*
X125700722Y-75343798D01*
X125706750Y-75341114D01*
X125771874Y-75293799D01*
X125855907Y-75232746D01*
X125855909Y-75232744D01*
X125861251Y-75228863D01*
X125939436Y-75142030D01*
X125984618Y-75091850D01*
X125984619Y-75091849D01*
X125989037Y-75086942D01*
X126059128Y-74965541D01*
X126081220Y-74927277D01*
X126081221Y-74927276D01*
X126084524Y-74921554D01*
X126143538Y-74739927D01*
X126144251Y-74733148D01*
X126149046Y-74687522D01*
X131988018Y-74687522D01*
X131988098Y-74688653D01*
X131993080Y-74696228D01*
X132027672Y-74729402D01*
X132031951Y-74733148D01*
X132368774Y-75002030D01*
X132373357Y-75005360D01*
X132733160Y-75242606D01*
X132738056Y-75245524D01*
X133117837Y-75449161D01*
X133123010Y-75451640D01*
X133519703Y-75620026D01*
X133525038Y-75622010D01*
X133935357Y-75753749D01*
X133940880Y-75755249D01*
X134361437Y-75849256D01*
X134367060Y-75850247D01*
X134794420Y-75905751D01*
X134800126Y-75906230D01*
X135230738Y-75922773D01*
X135236464Y-75922733D01*
X135666809Y-75900179D01*
X135672493Y-75899622D01*
X136099044Y-75838156D01*
X136104639Y-75837088D01*
X136523867Y-75737214D01*
X136529347Y-75735643D01*
X136937787Y-75598187D01*
X136943117Y-75596119D01*
X137337419Y-75422212D01*
X137342526Y-75419677D01*
X137719438Y-75210751D01*
X137724316Y-75207750D01*
X138080716Y-74965541D01*
X138085329Y-74962090D01*
X138404890Y-74699599D01*
X138413351Y-74687167D01*
X138407101Y-74676311D01*
X135212812Y-71482022D01*
X135198868Y-71474408D01*
X135197035Y-71474539D01*
X135190420Y-71478790D01*
X131995632Y-74673578D01*
X131988018Y-74687522D01*
X126149046Y-74687522D01*
X126162810Y-74556565D01*
X126163500Y-74550000D01*
X126143538Y-74360073D01*
X126084524Y-74178446D01*
X125989037Y-74013058D01*
X125949166Y-73968776D01*
X125865673Y-73876048D01*
X125865672Y-73876047D01*
X125861251Y-73871137D01*
X125855909Y-73867256D01*
X125855907Y-73867254D01*
X125712092Y-73762767D01*
X125712091Y-73762766D01*
X125706750Y-73758886D01*
X125700722Y-73756202D01*
X125700720Y-73756201D01*
X125538318Y-73683895D01*
X125538317Y-73683895D01*
X125532287Y-73681210D01*
X125438887Y-73661357D01*
X125351944Y-73642876D01*
X125351939Y-73642876D01*
X125345487Y-73641504D01*
X125154513Y-73641504D01*
X125148061Y-73642876D01*
X125148056Y-73642876D01*
X125061113Y-73661357D01*
X124967713Y-73681210D01*
X124961683Y-73683895D01*
X124961682Y-73683895D01*
X124799280Y-73756201D01*
X124799278Y-73756202D01*
X124793250Y-73758886D01*
X124787909Y-73762766D01*
X124787908Y-73762767D01*
X124644093Y-73867254D01*
X124644091Y-73867256D01*
X124638749Y-73871137D01*
X124634328Y-73876047D01*
X124634327Y-73876048D01*
X124550835Y-73968776D01*
X124510963Y-74013058D01*
X124415476Y-74178446D01*
X124356462Y-74360073D01*
X124336500Y-74550000D01*
X111758244Y-74550000D01*
X111763500Y-74500000D01*
X111743538Y-74310073D01*
X111684524Y-74128446D01*
X111589037Y-73963058D01*
X111461251Y-73821137D01*
X111455909Y-73817256D01*
X111455907Y-73817254D01*
X111312092Y-73712767D01*
X111312091Y-73712766D01*
X111306750Y-73708886D01*
X111300722Y-73706202D01*
X111300720Y-73706201D01*
X111138318Y-73633895D01*
X111138317Y-73633895D01*
X111132287Y-73631210D01*
X111038887Y-73611357D01*
X110951944Y-73592876D01*
X110951939Y-73592876D01*
X110945487Y-73591504D01*
X110754513Y-73591504D01*
X110748061Y-73592876D01*
X110748056Y-73592876D01*
X110661113Y-73611357D01*
X110567713Y-73631210D01*
X110561683Y-73633895D01*
X110561682Y-73633895D01*
X110399280Y-73706201D01*
X110399278Y-73706202D01*
X110393250Y-73708886D01*
X110387909Y-73712766D01*
X110387908Y-73712767D01*
X110244093Y-73817254D01*
X110244091Y-73817256D01*
X110238749Y-73821137D01*
X110110963Y-73963058D01*
X110015476Y-74128446D01*
X109956462Y-74310073D01*
X109936500Y-74500000D01*
X93090790Y-74500000D01*
X90212812Y-71622022D01*
X90198868Y-71614408D01*
X90197035Y-71614539D01*
X90190420Y-71618790D01*
X86995632Y-74813578D01*
X86988018Y-74827522D01*
X85381266Y-74827522D01*
X85399068Y-72831999D01*
X85419677Y-72764059D01*
X85473745Y-72718047D01*
X85544106Y-72708570D01*
X85608422Y-72738638D01*
X85643313Y-72789615D01*
X85762085Y-73112428D01*
X85764301Y-73117700D01*
X85949148Y-73506988D01*
X85951829Y-73512028D01*
X86171195Y-73882957D01*
X86174324Y-73887738D01*
X86426415Y-74237271D01*
X86429955Y-74241737D01*
X86612966Y-74452266D01*
X86626095Y-74460675D01*
X86636008Y-74454782D01*
X89839658Y-71251132D01*
X90564408Y-71251132D01*
X90564539Y-71252965D01*
X90568790Y-71259580D01*
X93763478Y-74454268D01*
X93776924Y-74461610D01*
X93786760Y-74454690D01*
X94011440Y-74188818D01*
X94014937Y-74184277D01*
X94262106Y-73831281D01*
X94265173Y-73826450D01*
X94479339Y-73452495D01*
X94481951Y-73447413D01*
X94661347Y-73055578D01*
X94663485Y-73050286D01*
X94806628Y-72643810D01*
X94808281Y-72638336D01*
X94913993Y-72220567D01*
X94915144Y-72214961D01*
X94982559Y-71789315D01*
X94983194Y-71783653D01*
X95011828Y-71352547D01*
X95011962Y-71349040D01*
X95012981Y-71251773D01*
X95012919Y-71248225D01*
X94998352Y-70927428D01*
X99266500Y-70927428D01*
X99266500Y-71522571D01*
X99281462Y-71664926D01*
X99340476Y-71846553D01*
X99435963Y-72011942D01*
X99563749Y-72153863D01*
X99569091Y-72157744D01*
X99569093Y-72157746D01*
X99661807Y-72225106D01*
X99718250Y-72266114D01*
X99724278Y-72268798D01*
X99724280Y-72268799D01*
X99816797Y-72309990D01*
X99892713Y-72343790D01*
X99986113Y-72363643D01*
X100073056Y-72382124D01*
X100073061Y-72382124D01*
X100079513Y-72383496D01*
X100270486Y-72383496D01*
X100276938Y-72382124D01*
X100276943Y-72382124D01*
X100363886Y-72363643D01*
X100457286Y-72343790D01*
X100539231Y-72307306D01*
X100625721Y-72268798D01*
X100625722Y-72268797D01*
X100631749Y-72266114D01*
X100725940Y-72197681D01*
X100792807Y-72173823D01*
X100861959Y-72189904D01*
X100874061Y-72197682D01*
X100968250Y-72266114D01*
X100974278Y-72268798D01*
X100974280Y-72268799D01*
X101066797Y-72309990D01*
X101142713Y-72343790D01*
X101236113Y-72363643D01*
X101323056Y-72382124D01*
X101323061Y-72382124D01*
X101329513Y-72383496D01*
X101520486Y-72383496D01*
X101526938Y-72382124D01*
X101526943Y-72382124D01*
X101613886Y-72363643D01*
X101707286Y-72343790D01*
X101789231Y-72307306D01*
X101875721Y-72268798D01*
X101875722Y-72268797D01*
X101881749Y-72266114D01*
X101975940Y-72197681D01*
X102042807Y-72173823D01*
X102111959Y-72189904D01*
X102124061Y-72197682D01*
X102218250Y-72266114D01*
X102224278Y-72268798D01*
X102224280Y-72268799D01*
X102316797Y-72309990D01*
X102392713Y-72343790D01*
X102486113Y-72363643D01*
X102573056Y-72382124D01*
X102573061Y-72382124D01*
X102579513Y-72383496D01*
X102770486Y-72383496D01*
X102776938Y-72382124D01*
X102776943Y-72382124D01*
X102863886Y-72363643D01*
X102957286Y-72343790D01*
X103039231Y-72307306D01*
X103125721Y-72268798D01*
X103125722Y-72268797D01*
X103131749Y-72266114D01*
X103155356Y-72248963D01*
X103222221Y-72225106D01*
X103291373Y-72241186D01*
X103305856Y-72251547D01*
X103305888Y-72251501D01*
X103312123Y-72255835D01*
X103317796Y-72260889D01*
X103469304Y-72341110D01*
X103476673Y-72342961D01*
X103485436Y-72345162D01*
X103635575Y-72382874D01*
X103641338Y-72383237D01*
X103641341Y-72383237D01*
X103643530Y-72383375D01*
X103643546Y-72383376D01*
X103645525Y-72383500D01*
X104166316Y-72383500D01*
X104295193Y-72367904D01*
X104455561Y-72307306D01*
X104511589Y-72268799D01*
X104590586Y-72214506D01*
X104590588Y-72214505D01*
X104596845Y-72210204D01*
X104615459Y-72189312D01*
X104705835Y-72087877D01*
X104705837Y-72087875D01*
X104710889Y-72082204D01*
X104714441Y-72075495D01*
X104714444Y-72075491D01*
X104787554Y-71937411D01*
X104787555Y-71937408D01*
X104791109Y-71930696D01*
X104832873Y-71764425D01*
X104833236Y-71758659D01*
X104833374Y-71756470D01*
X104833375Y-71756454D01*
X104833499Y-71754475D01*
X104833499Y-70950000D01*
X107586500Y-70950000D01*
X107587190Y-70956565D01*
X107603436Y-71111132D01*
X107606462Y-71139927D01*
X107665476Y-71321554D01*
X107760963Y-71486942D01*
X107888749Y-71628863D01*
X107894091Y-71632744D01*
X107894093Y-71632746D01*
X108008756Y-71716053D01*
X108043250Y-71741114D01*
X108049278Y-71743798D01*
X108049280Y-71743799D01*
X108095607Y-71764425D01*
X108217713Y-71818790D01*
X108311113Y-71838643D01*
X108398056Y-71857124D01*
X108398061Y-71857124D01*
X108404513Y-71858496D01*
X108595487Y-71858496D01*
X108601939Y-71857124D01*
X108601944Y-71857124D01*
X108688887Y-71838643D01*
X108782287Y-71818790D01*
X108904393Y-71764425D01*
X108950720Y-71743799D01*
X108950722Y-71743798D01*
X108956750Y-71741114D01*
X108991244Y-71716053D01*
X109105907Y-71632746D01*
X109105909Y-71632744D01*
X109111251Y-71628863D01*
X109239037Y-71486942D01*
X109334524Y-71321554D01*
X109349613Y-71275114D01*
X130389962Y-71275114D01*
X130390161Y-71280819D01*
X130424722Y-71710376D01*
X130425440Y-71716053D01*
X130498787Y-72140689D01*
X130500018Y-72146289D01*
X130611556Y-72562554D01*
X130613278Y-72567983D01*
X130762085Y-72972428D01*
X130764301Y-72977700D01*
X130949148Y-73366988D01*
X130951829Y-73372028D01*
X131171195Y-73742957D01*
X131174324Y-73747738D01*
X131426415Y-74097271D01*
X131429955Y-74101737D01*
X131612966Y-74312266D01*
X131626095Y-74320675D01*
X131636008Y-74314782D01*
X134827978Y-71122812D01*
X134835592Y-71108868D01*
X134835461Y-71107035D01*
X134831210Y-71100420D01*
X131638126Y-67907336D01*
X131624182Y-67899722D01*
X131623989Y-67899735D01*
X131615167Y-67905714D01*
X131493447Y-68039953D01*
X131489795Y-68044367D01*
X131230443Y-68388540D01*
X131227227Y-68393236D01*
X131000126Y-68759511D01*
X130997353Y-68764474D01*
X130804383Y-69149827D01*
X130802065Y-69155033D01*
X130644817Y-69556281D01*
X130642981Y-69561673D01*
X130522749Y-69975517D01*
X130521407Y-69981067D01*
X130439177Y-70404100D01*
X130438344Y-70409741D01*
X130394795Y-70838477D01*
X130394475Y-70844201D01*
X130389962Y-71275114D01*
X109349613Y-71275114D01*
X109393538Y-71139927D01*
X109396565Y-71111132D01*
X109412810Y-70956565D01*
X109413500Y-70950000D01*
X109393538Y-70760073D01*
X109383741Y-70729919D01*
X109336566Y-70584731D01*
X109334524Y-70578446D01*
X109239037Y-70413058D01*
X109111251Y-70271137D01*
X109105909Y-70267256D01*
X109105907Y-70267254D01*
X108962092Y-70162767D01*
X108962091Y-70162766D01*
X108956750Y-70158886D01*
X108950722Y-70156202D01*
X108950720Y-70156201D01*
X108788318Y-70083895D01*
X108788317Y-70083895D01*
X108782287Y-70081210D01*
X108688887Y-70061357D01*
X108601944Y-70042876D01*
X108601939Y-70042876D01*
X108595487Y-70041504D01*
X108404513Y-70041504D01*
X108398061Y-70042876D01*
X108398056Y-70042876D01*
X108311113Y-70061357D01*
X108217713Y-70081210D01*
X108211683Y-70083895D01*
X108211682Y-70083895D01*
X108049280Y-70156201D01*
X108049278Y-70156202D01*
X108043250Y-70158886D01*
X108037909Y-70162766D01*
X108037908Y-70162767D01*
X107894093Y-70267254D01*
X107894091Y-70267256D01*
X107888749Y-70271137D01*
X107760963Y-70413058D01*
X107665476Y-70578446D01*
X107663434Y-70584731D01*
X107616260Y-70729919D01*
X107606462Y-70760073D01*
X107586500Y-70950000D01*
X104833499Y-70950000D01*
X104833500Y-70733684D01*
X104817904Y-70604807D01*
X104757306Y-70444439D01*
X104711910Y-70378388D01*
X104664506Y-70309414D01*
X104664505Y-70309412D01*
X104660204Y-70303155D01*
X104654533Y-70298102D01*
X104537877Y-70194165D01*
X104537875Y-70194163D01*
X104532204Y-70189111D01*
X104461394Y-70151618D01*
X104387410Y-70112445D01*
X104380696Y-70108890D01*
X104370027Y-70106210D01*
X104281186Y-70083895D01*
X104214425Y-70067126D01*
X104208662Y-70066763D01*
X104208659Y-70066763D01*
X104206470Y-70066625D01*
X104206454Y-70066624D01*
X104204475Y-70066500D01*
X103683684Y-70066500D01*
X103554807Y-70082096D01*
X103394439Y-70142694D01*
X103388181Y-70146995D01*
X103303699Y-70205058D01*
X103236230Y-70227158D01*
X103167523Y-70209273D01*
X103158273Y-70203155D01*
X103137096Y-70187769D01*
X103137089Y-70187765D01*
X103131750Y-70183886D01*
X103125722Y-70181202D01*
X103125720Y-70181201D01*
X102963318Y-70108895D01*
X102963317Y-70108895D01*
X102957287Y-70106210D01*
X102856468Y-70084780D01*
X102776944Y-70067876D01*
X102776939Y-70067876D01*
X102770487Y-70066504D01*
X102579514Y-70066504D01*
X102573062Y-70067876D01*
X102573057Y-70067876D01*
X102493533Y-70084780D01*
X102392714Y-70106210D01*
X102386684Y-70108895D01*
X102386683Y-70108895D01*
X102224281Y-70181201D01*
X102224279Y-70181202D01*
X102218251Y-70183886D01*
X102189110Y-70205058D01*
X102124060Y-70252319D01*
X102057192Y-70276177D01*
X101988041Y-70260096D01*
X101975939Y-70252318D01*
X101887092Y-70187767D01*
X101887091Y-70187766D01*
X101881750Y-70183886D01*
X101875722Y-70181202D01*
X101875720Y-70181201D01*
X101713318Y-70108895D01*
X101713317Y-70108895D01*
X101707287Y-70106210D01*
X101606468Y-70084780D01*
X101526944Y-70067876D01*
X101526939Y-70067876D01*
X101520487Y-70066504D01*
X101329514Y-70066504D01*
X101323062Y-70067876D01*
X101323057Y-70067876D01*
X101243533Y-70084780D01*
X101142714Y-70106210D01*
X101136684Y-70108895D01*
X101136683Y-70108895D01*
X100974281Y-70181201D01*
X100974279Y-70181202D01*
X100968251Y-70183886D01*
X100939110Y-70205058D01*
X100874060Y-70252319D01*
X100807192Y-70276177D01*
X100738041Y-70260096D01*
X100725939Y-70252318D01*
X100637092Y-70187767D01*
X100637091Y-70187766D01*
X100631750Y-70183886D01*
X100625722Y-70181202D01*
X100625720Y-70181201D01*
X100463318Y-70108895D01*
X100463317Y-70108895D01*
X100457287Y-70106210D01*
X100356468Y-70084780D01*
X100276944Y-70067876D01*
X100276939Y-70067876D01*
X100270487Y-70066504D01*
X100079514Y-70066504D01*
X100073062Y-70067876D01*
X100073057Y-70067876D01*
X99993533Y-70084780D01*
X99892714Y-70106210D01*
X99886684Y-70108895D01*
X99886683Y-70108895D01*
X99724281Y-70181201D01*
X99724279Y-70181202D01*
X99718251Y-70183886D01*
X99712910Y-70187766D01*
X99712909Y-70187767D01*
X99569094Y-70292254D01*
X99569092Y-70292256D01*
X99563750Y-70296137D01*
X99435964Y-70438058D01*
X99340476Y-70603446D01*
X99281462Y-70785073D01*
X99266500Y-70927428D01*
X94998352Y-70927428D01*
X94993321Y-70816636D01*
X94992805Y-70810958D01*
X94934316Y-70383988D01*
X94933289Y-70378388D01*
X94836343Y-69958472D01*
X94834809Y-69952976D01*
X94700209Y-69543585D01*
X94698179Y-69538243D01*
X94527031Y-69142744D01*
X94524527Y-69137610D01*
X94318238Y-68759248D01*
X94315275Y-68754357D01*
X94296019Y-68725592D01*
X95015656Y-68725592D01*
X95019433Y-68745487D01*
X95052047Y-68917268D01*
X95054240Y-68928821D01*
X95130558Y-69121088D01*
X95133782Y-69126138D01*
X95133783Y-69126141D01*
X95189093Y-69212793D01*
X95241856Y-69295455D01*
X95245979Y-69299807D01*
X95350764Y-69410421D01*
X95384118Y-69445631D01*
X95388983Y-69449120D01*
X95388986Y-69449123D01*
X95547340Y-69562702D01*
X95547345Y-69562705D01*
X95552211Y-69566195D01*
X95608464Y-69592128D01*
X95720344Y-69643705D01*
X95740070Y-69652799D01*
X95745886Y-69654233D01*
X95745889Y-69654234D01*
X95935091Y-69700882D01*
X95935093Y-69700882D01*
X95940916Y-69702318D01*
X95946907Y-69702627D01*
X95946909Y-69702627D01*
X96006466Y-69705696D01*
X96147502Y-69712964D01*
X96153437Y-69712135D01*
X96153441Y-69712135D01*
X96274183Y-69695273D01*
X96352373Y-69684353D01*
X96494058Y-69635981D01*
X96542460Y-69619457D01*
X96542462Y-69619456D01*
X96548139Y-69617518D01*
X96727735Y-69514871D01*
X96884680Y-69380115D01*
X96963016Y-69281456D01*
X106199352Y-69281456D01*
X106200042Y-69288021D01*
X106209164Y-69374807D01*
X106219314Y-69471383D01*
X106221354Y-69477661D01*
X106221354Y-69477662D01*
X106234411Y-69517847D01*
X106278328Y-69653010D01*
X106373815Y-69818398D01*
X106378233Y-69823305D01*
X106378234Y-69823306D01*
X106494989Y-69952976D01*
X106501601Y-69960319D01*
X106506943Y-69964200D01*
X106506945Y-69964202D01*
X106650760Y-70068689D01*
X106656102Y-70072570D01*
X106662130Y-70075254D01*
X106662132Y-70075255D01*
X106813603Y-70142694D01*
X106830565Y-70150246D01*
X106923965Y-70170099D01*
X107010908Y-70188580D01*
X107010913Y-70188580D01*
X107017365Y-70189952D01*
X107208339Y-70189952D01*
X107214791Y-70188580D01*
X107214796Y-70188580D01*
X107301739Y-70170099D01*
X107395139Y-70150246D01*
X107412101Y-70142694D01*
X107563572Y-70075255D01*
X107563574Y-70075254D01*
X107569602Y-70072570D01*
X107574944Y-70068689D01*
X107718759Y-69964202D01*
X107718761Y-69964200D01*
X107724103Y-69960319D01*
X107730715Y-69952976D01*
X107847470Y-69823306D01*
X107847471Y-69823305D01*
X107851889Y-69818398D01*
X107947376Y-69653010D01*
X107991293Y-69517847D01*
X108004350Y-69477662D01*
X108004350Y-69477661D01*
X108006390Y-69471383D01*
X108016541Y-69374807D01*
X108025662Y-69288021D01*
X108026352Y-69281456D01*
X108013652Y-69160622D01*
X108007080Y-69098093D01*
X108007080Y-69098092D01*
X108006390Y-69091529D01*
X107979703Y-69009393D01*
X107956400Y-68937674D01*
X107947376Y-68909902D01*
X107884266Y-68800592D01*
X128340656Y-68800592D01*
X128359948Y-68902206D01*
X128378061Y-68997610D01*
X128379240Y-69003821D01*
X128455558Y-69196088D01*
X128458782Y-69201138D01*
X128458783Y-69201141D01*
X128469616Y-69218112D01*
X128566856Y-69370455D01*
X128576007Y-69380115D01*
X128703662Y-69514871D01*
X128709118Y-69520631D01*
X128713983Y-69524120D01*
X128713986Y-69524123D01*
X128872340Y-69637702D01*
X128872345Y-69637705D01*
X128877211Y-69641195D01*
X128902382Y-69652799D01*
X129033305Y-69713155D01*
X129065070Y-69727799D01*
X129070886Y-69729233D01*
X129070889Y-69729234D01*
X129260091Y-69775882D01*
X129260093Y-69775882D01*
X129265916Y-69777318D01*
X129271907Y-69777627D01*
X129271909Y-69777627D01*
X129331466Y-69780696D01*
X129472502Y-69787964D01*
X129478437Y-69787135D01*
X129478441Y-69787135D01*
X129599183Y-69770273D01*
X129677373Y-69759353D01*
X129857398Y-69697892D01*
X129867460Y-69694457D01*
X129867462Y-69694456D01*
X129873139Y-69692518D01*
X130052735Y-69589871D01*
X130209680Y-69455115D01*
X130338312Y-69293112D01*
X130380213Y-69212793D01*
X130431216Y-69115026D01*
X130431217Y-69115024D01*
X130433990Y-69109708D01*
X130493260Y-68911521D01*
X130493950Y-68904674D01*
X130513676Y-68708769D01*
X130513985Y-68705702D01*
X130514000Y-68700000D01*
X130512667Y-68686022D01*
X130504707Y-68602593D01*
X130494353Y-68494075D01*
X130436121Y-68295580D01*
X130433377Y-68290252D01*
X130344151Y-68117009D01*
X130344149Y-68117006D01*
X130341405Y-68111678D01*
X130269321Y-68019911D01*
X130217329Y-67953721D01*
X130217325Y-67953716D01*
X130213623Y-67949004D01*
X130153971Y-67897240D01*
X130061917Y-67817360D01*
X130057386Y-67813428D01*
X129878330Y-67709842D01*
X129682917Y-67641983D01*
X129676982Y-67641122D01*
X129676980Y-67641122D01*
X129484137Y-67613161D01*
X129484134Y-67613161D01*
X129478197Y-67612300D01*
X129271559Y-67621864D01*
X129142816Y-67652891D01*
X129076289Y-67668924D01*
X129076287Y-67668925D01*
X129070456Y-67670330D01*
X129064998Y-67672812D01*
X129064994Y-67672813D01*
X128951896Y-67724236D01*
X128882147Y-67755949D01*
X128713425Y-67875632D01*
X128709276Y-67879966D01*
X128709275Y-67879967D01*
X128674057Y-67916757D01*
X128570379Y-68025061D01*
X128567127Y-68030098D01*
X128567125Y-68030100D01*
X128509849Y-68118805D01*
X128458169Y-68198842D01*
X128455927Y-68204405D01*
X128390653Y-68366371D01*
X128380845Y-68390707D01*
X128379697Y-68396588D01*
X128379695Y-68396593D01*
X128353137Y-68532589D01*
X128341197Y-68593732D01*
X128341181Y-68599717D01*
X128341181Y-68599721D01*
X128341039Y-68654140D01*
X128340656Y-68800592D01*
X107884266Y-68800592D01*
X107851889Y-68744514D01*
X107811809Y-68700000D01*
X107728525Y-68607504D01*
X107728524Y-68607503D01*
X107724103Y-68602593D01*
X107718761Y-68598712D01*
X107718759Y-68598710D01*
X107574944Y-68494223D01*
X107574943Y-68494222D01*
X107569602Y-68490342D01*
X107563574Y-68487658D01*
X107563572Y-68487657D01*
X107401170Y-68415351D01*
X107401169Y-68415351D01*
X107395139Y-68412666D01*
X107291831Y-68390707D01*
X107214796Y-68374332D01*
X107214791Y-68374332D01*
X107208339Y-68372960D01*
X107017365Y-68372960D01*
X107010913Y-68374332D01*
X107010908Y-68374332D01*
X106933873Y-68390707D01*
X106830565Y-68412666D01*
X106824535Y-68415351D01*
X106824534Y-68415351D01*
X106662132Y-68487657D01*
X106662130Y-68487658D01*
X106656102Y-68490342D01*
X106650761Y-68494222D01*
X106650760Y-68494223D01*
X106506945Y-68598710D01*
X106506943Y-68598712D01*
X106501601Y-68602593D01*
X106497180Y-68607503D01*
X106497179Y-68607504D01*
X106413896Y-68700000D01*
X106373815Y-68744514D01*
X106278328Y-68909902D01*
X106269304Y-68937674D01*
X106246002Y-69009393D01*
X106219314Y-69091529D01*
X106218624Y-69098092D01*
X106218624Y-69098093D01*
X106212052Y-69160622D01*
X106199352Y-69281456D01*
X96963016Y-69281456D01*
X97013312Y-69218112D01*
X97016087Y-69212793D01*
X97106216Y-69040026D01*
X97106217Y-69040024D01*
X97108990Y-69034708D01*
X97168260Y-68836521D01*
X97188985Y-68630702D01*
X97189000Y-68625000D01*
X97169353Y-68419075D01*
X97111121Y-68220580D01*
X97097331Y-68193805D01*
X97019151Y-68042009D01*
X97019149Y-68042006D01*
X97016405Y-68036678D01*
X96970380Y-67978086D01*
X96892329Y-67878721D01*
X96892325Y-67878716D01*
X96888623Y-67874004D01*
X96732386Y-67738428D01*
X96553330Y-67634842D01*
X96357917Y-67566983D01*
X96351982Y-67566122D01*
X96351980Y-67566122D01*
X96159137Y-67538161D01*
X96159134Y-67538161D01*
X96153197Y-67537300D01*
X95946559Y-67546864D01*
X95826842Y-67575716D01*
X95751289Y-67593924D01*
X95751287Y-67593925D01*
X95745456Y-67595330D01*
X95739998Y-67597812D01*
X95739994Y-67597813D01*
X95644742Y-67641122D01*
X95557147Y-67680949D01*
X95388425Y-67800632D01*
X95384276Y-67804966D01*
X95384275Y-67804967D01*
X95343197Y-67847878D01*
X95245379Y-67950061D01*
X95242127Y-67955098D01*
X95242125Y-67955100D01*
X95144068Y-68106963D01*
X95133169Y-68123842D01*
X95130927Y-68129405D01*
X95066104Y-68290252D01*
X95055845Y-68315707D01*
X95054697Y-68321588D01*
X95054695Y-68321593D01*
X95017345Y-68512851D01*
X95016197Y-68518732D01*
X95016181Y-68524717D01*
X95016181Y-68524721D01*
X95016102Y-68555157D01*
X95015656Y-68725592D01*
X94296019Y-68725592D01*
X94075546Y-68396252D01*
X94072151Y-68391649D01*
X93800961Y-68056757D01*
X93797155Y-68052469D01*
X93789859Y-68044967D01*
X93776027Y-68037161D01*
X93774659Y-68037240D01*
X93767334Y-68041876D01*
X90572022Y-71237188D01*
X90564408Y-71251132D01*
X89839658Y-71251132D01*
X93403614Y-67687176D01*
X93411022Y-67673609D01*
X93404280Y-67663953D01*
X93255559Y-67536483D01*
X131989492Y-67536483D01*
X131989504Y-67536912D01*
X131994872Y-67545662D01*
X135187188Y-70737978D01*
X135201132Y-70745592D01*
X135202965Y-70745461D01*
X135209580Y-70741210D01*
X138403614Y-67547176D01*
X138411022Y-67533609D01*
X138404280Y-67523953D01*
X138165353Y-67319167D01*
X138160841Y-67315642D01*
X137809578Y-67066013D01*
X137804773Y-67062916D01*
X137432300Y-66846131D01*
X137427266Y-66843500D01*
X137036688Y-66661370D01*
X137031395Y-66659189D01*
X136625933Y-66513213D01*
X136620473Y-66511524D01*
X136203448Y-66402897D01*
X136197858Y-66401709D01*
X135772698Y-66331324D01*
X135767033Y-66330648D01*
X135337233Y-66299086D01*
X135331532Y-66298927D01*
X134900640Y-66306447D01*
X134894952Y-66306805D01*
X134466533Y-66353347D01*
X134460863Y-66354225D01*
X134038437Y-66439401D01*
X134032892Y-66440783D01*
X133619906Y-66563900D01*
X133614502Y-66565782D01*
X133214388Y-66725816D01*
X133209181Y-66728178D01*
X132825201Y-66923825D01*
X132820236Y-66926646D01*
X132455578Y-67156284D01*
X132450883Y-67159547D01*
X132108544Y-67421284D01*
X132104149Y-67424972D01*
X131997681Y-67522874D01*
X131989492Y-67536483D01*
X93255559Y-67536483D01*
X93165353Y-67459167D01*
X93160841Y-67455642D01*
X92809578Y-67206013D01*
X92804773Y-67202916D01*
X92432300Y-66986131D01*
X92427266Y-66983500D01*
X92036688Y-66801370D01*
X92031395Y-66799189D01*
X91625933Y-66653213D01*
X91620473Y-66651524D01*
X91203448Y-66542897D01*
X91197858Y-66541709D01*
X90772698Y-66471324D01*
X90767033Y-66470648D01*
X90337233Y-66439086D01*
X90331532Y-66438927D01*
X89900640Y-66446447D01*
X89894952Y-66446805D01*
X89466533Y-66493347D01*
X89460863Y-66494225D01*
X89038437Y-66579401D01*
X89032892Y-66580783D01*
X88619906Y-66703900D01*
X88614502Y-66705782D01*
X88478060Y-66760355D01*
X88407383Y-66767081D01*
X88344289Y-66734529D01*
X88308810Y-66673033D01*
X88312211Y-66602118D01*
X88353411Y-66544299D01*
X88377020Y-66529642D01*
X88415002Y-66511524D01*
X88424074Y-66507197D01*
X88428669Y-66505117D01*
X88741317Y-66371157D01*
X88746019Y-66369254D01*
X88831700Y-66336561D01*
X88836477Y-66334848D01*
X89158814Y-66226509D01*
X89163656Y-66224989D01*
X89251682Y-66199299D01*
X89256581Y-66197975D01*
X89586641Y-66115915D01*
X89591574Y-66114794D01*
X89681401Y-66096266D01*
X89686383Y-66095344D01*
X90021950Y-66040116D01*
X90026973Y-66039392D01*
X90139850Y-66025456D01*
X90143668Y-66025044D01*
X90321884Y-66008537D01*
X90333505Y-66008000D01*
X135168420Y-66008000D01*
X135189223Y-66009729D01*
G37*
%TD.AperFunction*%
%TA.AperFunction,Conductor*%
G36*
X88639700Y-117705256D02*
G01*
X88684763Y-117734217D01*
X88865783Y-117915237D01*
X88899809Y-117977549D01*
X88894744Y-118048364D01*
X88865783Y-118093427D01*
X87632589Y-119326621D01*
X87570277Y-119360647D01*
X87499462Y-119355582D01*
X87454399Y-119326621D01*
X87273379Y-119145601D01*
X87239353Y-119083289D01*
X87244418Y-119012474D01*
X87273379Y-118967411D01*
X88506573Y-117734217D01*
X88568885Y-117700191D01*
X88639700Y-117705256D01*
G37*
%TD.AperFunction*%
%TA.AperFunction,Conductor*%
G36*
X87437526Y-68144418D02*
G01*
X87482589Y-68173379D01*
X88715783Y-69406573D01*
X88749809Y-69468885D01*
X88744744Y-69539700D01*
X88715783Y-69584763D01*
X88534763Y-69765783D01*
X88472451Y-69799809D01*
X88401636Y-69794744D01*
X88356573Y-69765783D01*
X87123379Y-68532589D01*
X87089353Y-68470277D01*
X87094418Y-68399462D01*
X87123379Y-68354399D01*
X87304399Y-68173379D01*
X87366711Y-68139353D01*
X87437526Y-68144418D01*
G37*
%TD.AperFunction*%
%TD*%
M02*
