M48
; DRILL file {KiCad (5.99.0-7547-g7565f60a03)} date 12/15/20 07:52:50
; FORMAT={-:-/ absolute / inch / decimal}
; #@! TF.CreationDate,2020-12-15T07:52:50+08:00
; #@! TF.GenerationSoftware,Kicad,Pcbnew,(5.99.0-7547-g7565f60a03)
; #@! TF.FileFunction,Plated,1,4,PTH
FMAT,2
INCH
T1C0.0157
T2C0.0197
T3C0.0236
T4C0.0256
T5C0.0276
T6C0.0472
T7C0.1693
%
G90
G05
T1
X3.5207Y-3.3799
X3.5226Y-3.8238
X3.5315Y-3.9764
X3.5335Y-3.4695
X3.5423Y-3.2785
X3.5443Y-3.1299
X3.6467Y-3.7313
X3.6496Y-3.7815
X3.6644Y-3.5512
X3.6959Y-3.4488
X3.7037Y-3.874
X3.7264Y-3.2982
X3.7333Y-3.5039
X3.7638Y-3.4272
X3.7884Y-3.4961
X3.8199Y-3.9843
X3.9183Y-3.9833
X3.9252Y-3.1998
X4.0217Y-3.5866
X4.1161Y-3.1998
X4.1397Y-3.5757
X4.1811Y-3.9557
X4.217Y-2.7276
X4.2362Y-4.065
X4.249Y-3.9262
X4.2717Y-2.7933
X4.3238Y-3.4577
X4.3287Y-3.5325
X4.3642Y-2.9331
X4.4321Y-4.2904
X4.4321Y-4.374
X4.4321Y-4.4144
X4.4341Y-4.2392
X4.436Y-3.502
X4.4449Y-2.9183
X4.497Y-2.9173
X4.5974Y-2.9144
X4.6742Y-4.2913
X4.6742Y-4.3642
X4.6752Y-4.4262
X4.6762Y-4.2411
X4.689Y-3.7717
X4.689Y-3.8179
X4.69Y-3.8632
X4.8091Y-4.1329
X4.9301Y-2.8504
X4.9311Y-2.935
X5.0049Y-3.8159
X5.0049Y-3.8524
X5.0049Y-3.8878
X5.0305Y-4.187
X5.0413Y-3.8159
X5.0413Y-3.8524
X5.0413Y-3.8878
X5.0571Y-3.6713
X5.0728Y-3.9911
X5.0728Y-4.0266
X5.1102Y-3.251
X5.1476Y-4.0728
X5.2244Y-3.2746
X5.2254Y-3.2343
X5.2589Y-3.2343
X5.2608Y-3.2736
T2
X3.9439Y-2.8041
X3.9931Y-2.8041
X4.0177Y-4.5925
X4.0423Y-2.8041
X4.0669Y-4.5925
X4.0915Y-2.8041
X4.1161Y-4.5925
X4.1654Y-4.5925
T3
X3.4242Y-2.8051
X3.4301Y-4.5768
X3.4614Y-2.7153
X3.4614Y-2.8949
X3.4673Y-4.487
X3.4673Y-4.6666
X3.5512Y-2.6781
X3.5512Y-2.9321
X3.5571Y-4.4498
X3.5571Y-4.7037
X3.641Y-2.7153
X3.641Y-2.8949
X3.6469Y-4.487
X3.6469Y-4.6666
X3.6781Y-2.8051
X3.6841Y-4.5768
X5.1939Y-4.5709
X5.1959Y-2.7996
X5.2311Y-4.4811
X5.2311Y-4.6606
X5.2331Y-2.7098
X5.2331Y-2.8894
X5.3209Y-4.4439
X5.3209Y-4.6978
X5.3228Y-2.6726
X5.3228Y-2.9266
X5.4106Y-4.4811
X5.4106Y-4.6606
X5.4126Y-2.7098
X5.4126Y-2.8894
X5.4478Y-4.5709
X5.4498Y-2.7996
T6
X5.3209Y-4.0205
X5.3209Y-4.1583
T7
X3.5512Y-2.8051
X3.5571Y-4.5768
X5.3209Y-4.5709
X5.3228Y-2.7996
T4
G00X5.3415Y-3.2179
M15
G01X5.3258Y-3.2179
M16
G05
G00X5.3415Y-3.4085
M15
G01X5.3258Y-3.4085
M16
G05
T5
G00X5.4616Y-3.2057
M15
G01X5.4419Y-3.2057
M16
G05
G00X5.4616Y-3.4207
M15
G01X5.4419Y-3.4207
M16
G05
T0
M30
