%TF.GenerationSoftware,KiCad,Pcbnew,(5.99.0-7547-g7565f60a03)*%
%TF.CreationDate,2020-12-15T07:52:55+08:00*%
%TF.ProjectId,STM32F4_REV2,53544d33-3246-4345-9f52-4556322e6b69,rev?*%
%TF.SameCoordinates,Original*%
%TF.FileFunction,Copper,L4,Bot*%
%TF.FilePolarity,Positive*%
%FSLAX46Y46*%
G04 Gerber Fmt 4.6, Leading zero omitted, Abs format (unit mm)*
G04 Created by KiCad (PCBNEW (5.99.0-7547-g7565f60a03)) date 2020-12-15 07:52:55*
%MOMM*%
%LPD*%
G01*
G04 APERTURE LIST*
G04 Aperture macros list*
%AMRoundRect*
0 Rectangle with rounded corners*
0 $1 Rounding radius*
0 $2 $3 $4 $5 $6 $7 $8 $9 X,Y pos of 4 corners*
0 Add a 4 corners polygon primitive as box body*
4,1,4,$2,$3,$4,$5,$6,$7,$8,$9,$2,$3,0*
0 Add four circle primitives for the rounded corners*
1,1,$1+$1,$2,$3,0*
1,1,$1+$1,$4,$5,0*
1,1,$1+$1,$6,$7,0*
1,1,$1+$1,$8,$9,0*
0 Add four rect primitives between the rounded corners*
20,1,$1+$1,$2,$3,$4,$5,0*
20,1,$1+$1,$4,$5,$6,$7,0*
20,1,$1+$1,$6,$7,$8,$9,0*
20,1,$1+$1,$8,$9,$2,$3,0*%
G04 Aperture macros list end*
%TA.AperFunction,ComponentPad*%
%ADD10O,1.700000X1.350000*%
%TD*%
%TA.AperFunction,ComponentPad*%
%ADD11O,1.500000X1.100000*%
%TD*%
%TA.AperFunction,ComponentPad*%
%ADD12R,2.400000X2.400000*%
%TD*%
%TA.AperFunction,ComponentPad*%
%ADD13C,2.400000*%
%TD*%
%TA.AperFunction,ComponentPad*%
%ADD14RoundRect,0.200000X0.200000X0.450000X-0.200000X0.450000X-0.200000X-0.450000X0.200000X-0.450000X0*%
%TD*%
%TA.AperFunction,ComponentPad*%
%ADD15O,0.800000X1.300000*%
%TD*%
%TA.AperFunction,ComponentPad*%
%ADD16C,0.900000*%
%TD*%
%TA.AperFunction,ComponentPad*%
%ADD17C,8.600000*%
%TD*%
%TA.AperFunction,ComponentPad*%
%ADD18RoundRect,0.200000X-0.200000X-0.450000X0.200000X-0.450000X0.200000X0.450000X-0.200000X0.450000X0*%
%TD*%
%TA.AperFunction,ViaPad*%
%ADD19C,0.800000*%
%TD*%
%TA.AperFunction,Conductor*%
%ADD20C,0.300000*%
%TD*%
G04 APERTURE END LIST*
D10*
%TO.P,J5,6,Shield*%
%TO.N,no_connect_43*%
X138475000Y-81425000D03*
D11*
X135475000Y-81735000D03*
D10*
X138475000Y-86885000D03*
D11*
X135475000Y-86575000D03*
%TD*%
D12*
%TO.P,J1,1,Pin_1*%
%TO.N,+12V*%
X135150000Y-105620000D03*
D13*
%TO.P,J1,2,Pin_2*%
%TO.N,GND*%
X135150000Y-102120000D03*
%TD*%
D14*
%TO.P,J3,1,Pin_1*%
%TO.N,no_connect_38*%
X103925000Y-71225000D03*
D15*
%TO.P,J3,2,Pin_2*%
%TO.N,12C1_SCL*%
X102675000Y-71225000D03*
%TO.P,J3,3,Pin_3*%
%TO.N,12C1_SDA*%
X101425000Y-71225000D03*
%TO.P,J3,4,Pin_4*%
%TO.N,no_connect_39*%
X100175000Y-71225000D03*
%TD*%
D16*
%TO.P,H2,1,1*%
%TO.N,GND*%
X132919581Y-73390419D03*
X135200000Y-74335000D03*
X138425000Y-71110000D03*
X137480419Y-68829581D03*
D17*
X135200000Y-71110000D03*
D16*
X132919581Y-68829581D03*
X135200000Y-67885000D03*
X131975000Y-71110000D03*
X137480419Y-73390419D03*
%TD*%
%TO.P,H4,1,1*%
%TO.N,GND*%
X90200000Y-74475000D03*
X92480419Y-73530419D03*
X86975000Y-71250000D03*
X87919581Y-68969581D03*
X87919581Y-73530419D03*
X90200000Y-68025000D03*
X93425000Y-71250000D03*
X92480419Y-68969581D03*
D17*
X90200000Y-71250000D03*
%TD*%
D18*
%TO.P,J4,1,Pin_1*%
%TO.N,no_connect_40*%
X102050000Y-116650000D03*
D15*
%TO.P,J4,2,Pin_2*%
%TO.N,USART3_TX*%
X103300000Y-116650000D03*
%TO.P,J4,3,Pin_3*%
%TO.N,USART3_RX*%
X104550000Y-116650000D03*
%TO.P,J4,4,Pin_4*%
%TO.N,no_connect_41*%
X105800000Y-116650000D03*
%TD*%
D16*
%TO.P,H1,1,1*%
%TO.N,GND*%
X93575000Y-116250000D03*
X92630419Y-118530419D03*
X92630419Y-113969581D03*
X90350000Y-113025000D03*
X87125000Y-116250000D03*
X90350000Y-119475000D03*
X88069581Y-113969581D03*
D17*
X90350000Y-116250000D03*
D16*
X88069581Y-118530419D03*
%TD*%
%TO.P,H3,1,1*%
%TO.N,GND*%
X132869581Y-113819581D03*
X135150000Y-112875000D03*
X135150000Y-119325000D03*
X137430419Y-113819581D03*
X131925000Y-116100000D03*
D17*
X135150000Y-116100000D03*
D16*
X132869581Y-118380419D03*
X137430419Y-118380419D03*
X138375000Y-116100000D03*
%TD*%
D19*
%TO.N,GND*%
X119125000Y-98125000D03*
X119100000Y-96975000D03*
X119100000Y-95800000D03*
%TO.N,+3V3*%
X109950000Y-89725000D03*
%TO.N,GND*%
X133625000Y-83150000D03*
X132700000Y-83175000D03*
X132725000Y-82150000D03*
X133575000Y-82150000D03*
X128850000Y-102275000D03*
X128850000Y-101375000D03*
X128050000Y-98750000D03*
X127125000Y-98750000D03*
X127125000Y-97850000D03*
X128050000Y-97850000D03*
X128050000Y-96925000D03*
X127125000Y-96925000D03*
X107925000Y-99725000D03*
X109825000Y-87825000D03*
X118725000Y-110850000D03*
X116775000Y-74025000D03*
X125225000Y-72400000D03*
X107600000Y-103250000D03*
X122150000Y-104975000D03*
X93875000Y-87600000D03*
X89475000Y-97125000D03*
X112900000Y-74125000D03*
X128450000Y-93250000D03*
X92700000Y-96050000D03*
X118750000Y-112425000D03*
X112675000Y-88950000D03*
X94825000Y-89000000D03*
X114225000Y-74100000D03*
X129800000Y-82575000D03*
X97025000Y-101200000D03*
X89700000Y-101000000D03*
X96225000Y-88800000D03*
X95600000Y-87050000D03*
X89975000Y-83275000D03*
X89750000Y-88125000D03*
X118725000Y-109000000D03*
X92625000Y-94775000D03*
X127775000Y-106350000D03*
X118775000Y-107725000D03*
%TO.N,+3V3*%
X112625000Y-107675000D03*
X99700000Y-81275000D03*
X94650000Y-83775000D03*
X106200000Y-100475000D03*
X112575000Y-112125000D03*
X94075000Y-98400000D03*
X130750000Y-103450000D03*
X93075000Y-90200000D03*
X104550000Y-81275000D03*
X112575000Y-108975000D03*
X125250000Y-74550000D03*
X112575000Y-111100000D03*
X110850000Y-74500000D03*
X90025000Y-79500000D03*
X89425000Y-85850000D03*
X99525000Y-101175000D03*
%TO.N,SWDIO*%
X105148942Y-90823942D03*
X108500000Y-70950000D03*
%TO.N,NRST*%
X102150000Y-91100000D03*
X107112852Y-69281456D03*
%TD*%
D20*
%TO.N,SWDIO*%
X105148942Y-89701058D02*
X105148942Y-90823942D01*
X108500000Y-86350000D02*
X105148942Y-89701058D01*
X108500000Y-70950000D02*
X108500000Y-86350000D01*
%TO.N,NRST*%
X107112852Y-69281456D02*
X107112852Y-85787148D01*
X107112852Y-85787148D02*
X106050000Y-86850000D01*
X102100000Y-90800000D02*
X102100000Y-91050000D01*
X106050000Y-86850000D02*
X102100000Y-90800000D01*
X102100000Y-91050000D02*
X102150000Y-91100000D01*
%TD*%
M02*
