%TF.GenerationSoftware,KiCad,Pcbnew,(5.99.0-7547-g7565f60a03)*%
%TF.CreationDate,2020-12-15T07:52:55+08:00*%
%TF.ProjectId,STM32F4_REV2,53544d33-3246-4345-9f52-4556322e6b69,rev?*%
%TF.SameCoordinates,Original*%
%TF.FileFunction,Soldermask,Bot*%
%TF.FilePolarity,Negative*%
%FSLAX46Y46*%
G04 Gerber Fmt 4.6, Leading zero omitted, Abs format (unit mm)*
G04 Created by KiCad (PCBNEW (5.99.0-7547-g7565f60a03)) date 2020-12-15 07:52:55*
%MOMM*%
%LPD*%
G01*
G04 APERTURE LIST*
G04 Aperture macros list*
%AMRoundRect*
0 Rectangle with rounded corners*
0 $1 Rounding radius*
0 $2 $3 $4 $5 $6 $7 $8 $9 X,Y pos of 4 corners*
0 Add a 4 corners polygon primitive as box body*
4,1,4,$2,$3,$4,$5,$6,$7,$8,$9,$2,$3,0*
0 Add four circle primitives for the rounded corners*
1,1,$1+$1,$2,$3,0*
1,1,$1+$1,$4,$5,0*
1,1,$1+$1,$6,$7,0*
1,1,$1+$1,$8,$9,0*
0 Add four rect primitives between the rounded corners*
20,1,$1+$1,$2,$3,$4,$5,0*
20,1,$1+$1,$4,$5,$6,$7,0*
20,1,$1+$1,$6,$7,$8,$9,0*
20,1,$1+$1,$8,$9,$2,$3,0*%
G04 Aperture macros list end*
%ADD10O,1.700000X1.350000*%
%ADD11O,1.500000X1.100000*%
%ADD12R,2.400000X2.400000*%
%ADD13C,2.400000*%
%ADD14C,0.900000*%
%ADD15RoundRect,0.200000X0.200000X0.450000X-0.200000X0.450000X-0.200000X-0.450000X0.200000X-0.450000X0*%
%ADD16O,0.800000X1.300000*%
%ADD17C,8.600000*%
%ADD18RoundRect,0.200000X-0.200000X-0.450000X0.200000X-0.450000X0.200000X0.450000X-0.200000X0.450000X0*%
G04 APERTURE END LIST*
D10*
%TO.C,J5*%
X138475000Y-81425000D03*
D11*
X135475000Y-81735000D03*
D10*
X138475000Y-86885000D03*
D11*
X135475000Y-86575000D03*
%TD*%
D12*
%TO.C,J1*%
X135150000Y-105620000D03*
D13*
X135150000Y-102120000D03*
%TD*%
D14*
%TO.C,SW1*%
X86920000Y-80250000D03*
X86920000Y-83250000D03*
%TD*%
D15*
%TO.C,J3*%
X103925000Y-71225000D03*
D16*
X102675000Y-71225000D03*
X101425000Y-71225000D03*
X100175000Y-71225000D03*
%TD*%
D14*
%TO.C,H2*%
X132919581Y-73390419D03*
X135200000Y-74335000D03*
X138425000Y-71110000D03*
X137480419Y-68829581D03*
D17*
X135200000Y-71110000D03*
D14*
X132919581Y-68829581D03*
X135200000Y-67885000D03*
X131975000Y-71110000D03*
X137480419Y-73390419D03*
%TD*%
%TO.C,H4*%
X90200000Y-74475000D03*
X92480419Y-73530419D03*
X86975000Y-71250000D03*
X87919581Y-68969581D03*
X87919581Y-73530419D03*
X90200000Y-68025000D03*
X93425000Y-71250000D03*
X92480419Y-68969581D03*
D17*
X90200000Y-71250000D03*
%TD*%
D18*
%TO.C,J4*%
X102050000Y-116650000D03*
D16*
X103300000Y-116650000D03*
X104550000Y-116650000D03*
X105800000Y-116650000D03*
%TD*%
D14*
%TO.C,H1*%
X93575000Y-116250000D03*
X92630419Y-118530419D03*
X92630419Y-113969581D03*
X90350000Y-113025000D03*
X87125000Y-116250000D03*
X90350000Y-119475000D03*
X88069581Y-113969581D03*
D17*
X90350000Y-116250000D03*
D14*
X88069581Y-118530419D03*
%TD*%
%TO.C,H3*%
X132869581Y-113819581D03*
X135150000Y-112875000D03*
X135150000Y-119325000D03*
X137430419Y-113819581D03*
X131925000Y-116100000D03*
D17*
X135150000Y-116100000D03*
D14*
X132869581Y-118380419D03*
X137430419Y-118380419D03*
X138375000Y-116100000D03*
%TD*%
M02*
