%TF.GenerationSoftware,KiCad,Pcbnew,(5.99.0-7547-g7565f60a03)*%
%TF.CreationDate,2020-12-15T07:52:55+08:00*%
%TF.ProjectId,STM32F4_REV2,53544d33-3246-4345-9f52-4556322e6b69,rev?*%
%TF.SameCoordinates,Original*%
%TF.FileFunction,Copper,L1,Top*%
%TF.FilePolarity,Positive*%
%FSLAX46Y46*%
G04 Gerber Fmt 4.6, Leading zero omitted, Abs format (unit mm)*
G04 Created by KiCad (PCBNEW (5.99.0-7547-g7565f60a03)) date 2020-12-15 07:52:55*
%MOMM*%
%LPD*%
G01*
G04 APERTURE LIST*
G04 Aperture macros list*
%AMRoundRect*
0 Rectangle with rounded corners*
0 $1 Rounding radius*
0 $2 $3 $4 $5 $6 $7 $8 $9 X,Y pos of 4 corners*
0 Add a 4 corners polygon primitive as box body*
4,1,4,$2,$3,$4,$5,$6,$7,$8,$9,$2,$3,0*
0 Add four circle primitives for the rounded corners*
1,1,$1+$1,$2,$3,0*
1,1,$1+$1,$4,$5,0*
1,1,$1+$1,$6,$7,0*
1,1,$1+$1,$8,$9,0*
0 Add four rect primitives between the rounded corners*
20,1,$1+$1,$2,$3,$4,$5,0*
20,1,$1+$1,$4,$5,$6,$7,0*
20,1,$1+$1,$6,$7,$8,$9,0*
20,1,$1+$1,$8,$9,$2,$3,0*%
G04 Aperture macros list end*
%TA.AperFunction,SMDPad,CuDef*%
%ADD10RoundRect,0.140000X0.140000X0.170000X-0.140000X0.170000X-0.140000X-0.170000X0.140000X-0.170000X0*%
%TD*%
%TA.AperFunction,SMDPad,CuDef*%
%ADD11R,0.740000X2.400000*%
%TD*%
%TA.AperFunction,SMDPad,CuDef*%
%ADD12RoundRect,0.250000X0.375000X0.625000X-0.375000X0.625000X-0.375000X-0.625000X0.375000X-0.625000X0*%
%TD*%
%TA.AperFunction,SMDPad,CuDef*%
%ADD13R,1.650000X0.400000*%
%TD*%
%TA.AperFunction,SMDPad,CuDef*%
%ADD14R,0.700000X1.825000*%
%TD*%
%TA.AperFunction,SMDPad,CuDef*%
%ADD15R,1.500000X2.000000*%
%TD*%
%TA.AperFunction,ComponentPad*%
%ADD16O,1.700000X1.350000*%
%TD*%
%TA.AperFunction,ComponentPad*%
%ADD17O,1.500000X1.100000*%
%TD*%
%TA.AperFunction,SMDPad,CuDef*%
%ADD18R,2.000000X1.350000*%
%TD*%
%TA.AperFunction,SMDPad,CuDef*%
%ADD19R,2.500000X1.430000*%
%TD*%
%TA.AperFunction,SMDPad,CuDef*%
%ADD20RoundRect,0.200000X-0.275000X0.200000X-0.275000X-0.200000X0.275000X-0.200000X0.275000X0.200000X0*%
%TD*%
%TA.AperFunction,SMDPad,CuDef*%
%ADD21RoundRect,0.225000X0.250000X-0.225000X0.250000X0.225000X-0.250000X0.225000X-0.250000X-0.225000X0*%
%TD*%
%TA.AperFunction,SMDPad,CuDef*%
%ADD22R,2.500000X1.900000*%
%TD*%
%TA.AperFunction,SMDPad,CuDef*%
%ADD23RoundRect,0.140000X-0.140000X-0.170000X0.140000X-0.170000X0.140000X0.170000X-0.140000X0.170000X0*%
%TD*%
%TA.AperFunction,SMDPad,CuDef*%
%ADD24RoundRect,0.075000X-0.700000X-0.075000X0.700000X-0.075000X0.700000X0.075000X-0.700000X0.075000X0*%
%TD*%
%TA.AperFunction,SMDPad,CuDef*%
%ADD25RoundRect,0.075000X-0.075000X-0.700000X0.075000X-0.700000X0.075000X0.700000X-0.075000X0.700000X0*%
%TD*%
%TA.AperFunction,ComponentPad*%
%ADD26R,2.400000X2.400000*%
%TD*%
%TA.AperFunction,ComponentPad*%
%ADD27C,2.400000*%
%TD*%
%TA.AperFunction,SMDPad,CuDef*%
%ADD28R,0.800000X1.000000*%
%TD*%
%TA.AperFunction,SMDPad,CuDef*%
%ADD29R,1.500000X0.700000*%
%TD*%
%TA.AperFunction,SMDPad,CuDef*%
%ADD30RoundRect,0.140000X0.170000X-0.140000X0.170000X0.140000X-0.170000X0.140000X-0.170000X-0.140000X0*%
%TD*%
%TA.AperFunction,SMDPad,CuDef*%
%ADD31RoundRect,0.200000X-0.200000X-0.275000X0.200000X-0.275000X0.200000X0.275000X-0.200000X0.275000X0*%
%TD*%
%TA.AperFunction,SMDPad,CuDef*%
%ADD32RoundRect,0.147500X0.147500X0.172500X-0.147500X0.172500X-0.147500X-0.172500X0.147500X-0.172500X0*%
%TD*%
%TA.AperFunction,SMDPad,CuDef*%
%ADD33RoundRect,0.218750X-0.218750X-0.381250X0.218750X-0.381250X0.218750X0.381250X-0.218750X0.381250X0*%
%TD*%
%TA.AperFunction,SMDPad,CuDef*%
%ADD34R,0.900000X1.200000*%
%TD*%
%TA.AperFunction,SMDPad,CuDef*%
%ADD35RoundRect,0.225000X-0.225000X-0.250000X0.225000X-0.250000X0.225000X0.250000X-0.225000X0.250000X0*%
%TD*%
%TA.AperFunction,SMDPad,CuDef*%
%ADD36RoundRect,0.135000X0.135000X0.185000X-0.135000X0.185000X-0.135000X-0.185000X0.135000X-0.185000X0*%
%TD*%
%TA.AperFunction,SMDPad,CuDef*%
%ADD37RoundRect,0.218750X0.256250X-0.218750X0.256250X0.218750X-0.256250X0.218750X-0.256250X-0.218750X0*%
%TD*%
%TA.AperFunction,SMDPad,CuDef*%
%ADD38RoundRect,0.200000X0.275000X-0.200000X0.275000X0.200000X-0.275000X0.200000X-0.275000X-0.200000X0*%
%TD*%
%TA.AperFunction,SMDPad,CuDef*%
%ADD39RoundRect,0.135000X-0.135000X-0.185000X0.135000X-0.185000X0.135000X0.185000X-0.135000X0.185000X0*%
%TD*%
%TA.AperFunction,ComponentPad*%
%ADD40RoundRect,0.200000X0.200000X0.450000X-0.200000X0.450000X-0.200000X-0.450000X0.200000X-0.450000X0*%
%TD*%
%TA.AperFunction,ComponentPad*%
%ADD41O,0.800000X1.300000*%
%TD*%
%TA.AperFunction,SMDPad,CuDef*%
%ADD42RoundRect,0.225000X-0.250000X0.225000X-0.250000X-0.225000X0.250000X-0.225000X0.250000X0.225000X0*%
%TD*%
%TA.AperFunction,SMDPad,CuDef*%
%ADD43RoundRect,0.150000X0.150000X-0.512500X0.150000X0.512500X-0.150000X0.512500X-0.150000X-0.512500X0*%
%TD*%
%TA.AperFunction,ComponentPad*%
%ADD44C,0.900000*%
%TD*%
%TA.AperFunction,ComponentPad*%
%ADD45C,8.600000*%
%TD*%
%TA.AperFunction,SMDPad,CuDef*%
%ADD46RoundRect,0.250000X0.325000X0.650000X-0.325000X0.650000X-0.325000X-0.650000X0.325000X-0.650000X0*%
%TD*%
%TA.AperFunction,SMDPad,CuDef*%
%ADD47RoundRect,0.250000X-0.325000X-0.650000X0.325000X-0.650000X0.325000X0.650000X-0.325000X0.650000X0*%
%TD*%
%TA.AperFunction,SMDPad,CuDef*%
%ADD48R,1.200000X1.400000*%
%TD*%
%TA.AperFunction,SMDPad,CuDef*%
%ADD49RoundRect,0.150000X0.512500X0.150000X-0.512500X0.150000X-0.512500X-0.150000X0.512500X-0.150000X0*%
%TD*%
%TA.AperFunction,SMDPad,CuDef*%
%ADD50R,0.900000X0.800000*%
%TD*%
%TA.AperFunction,ComponentPad*%
%ADD51RoundRect,0.200000X-0.200000X-0.450000X0.200000X-0.450000X0.200000X0.450000X-0.200000X0.450000X0*%
%TD*%
%TA.AperFunction,SMDPad,CuDef*%
%ADD52RoundRect,0.218750X0.218750X0.256250X-0.218750X0.256250X-0.218750X-0.256250X0.218750X-0.256250X0*%
%TD*%
%TA.AperFunction,ViaPad*%
%ADD53C,0.800000*%
%TD*%
%TA.AperFunction,Conductor*%
%ADD54C,1.000000*%
%TD*%
%TA.AperFunction,Conductor*%
%ADD55C,0.750000*%
%TD*%
%TA.AperFunction,Conductor*%
%ADD56C,0.300000*%
%TD*%
%TA.AperFunction,Conductor*%
%ADD57C,0.500000*%
%TD*%
%TA.AperFunction,Conductor*%
%ADD58C,0.250000*%
%TD*%
%TA.AperFunction,Conductor*%
%ADD59C,0.260000*%
%TD*%
G04 APERTURE END LIST*
D10*
%TO.P,C10,2*%
%TO.N,GND*%
X95520000Y-85575000D03*
%TO.P,C10,1*%
%TO.N,+3V3*%
X96480000Y-85575000D03*
%TD*%
D11*
%TO.P,J2,10,Pin_10*%
%TO.N,NRST*%
X116790000Y-68600000D03*
%TO.P,J2,9,Pin_9*%
%TO.N,GND*%
X116790000Y-72500000D03*
%TO.P,J2,8,Pin_8*%
%TO.N,no_connect_37*%
X115520000Y-68600000D03*
%TO.P,J2,7,Pin_7*%
%TO.N,no_connect_36*%
X115520000Y-72500000D03*
%TO.P,J2,6,Pin_6*%
%TO.N,SWO*%
X114250000Y-68600000D03*
%TO.P,J2,5,Pin_5*%
%TO.N,GND*%
X114250000Y-72500000D03*
%TO.P,J2,4,Pin_4*%
%TO.N,SWCLK*%
X112980000Y-68600000D03*
%TO.P,J2,3,Pin_3*%
%TO.N,GND*%
X112980000Y-72500000D03*
%TO.P,J2,2,Pin_2*%
%TO.N,SWDIO*%
X111710000Y-68600000D03*
%TO.P,J2,1,Pin_1*%
%TO.N,+3V3*%
X111710000Y-72500000D03*
%TD*%
D12*
%TO.P,F1,2*%
%TO.N,Net-(D1-Pad1)*%
X122450000Y-91650000D03*
%TO.P,F1,1*%
%TO.N,Net-(F1-Pad1)*%
X125250000Y-91650000D03*
%TD*%
D13*
%TO.P,J5,1,VBUS*%
%TO.N,+5V*%
X135595000Y-85455000D03*
%TO.P,J5,2,D-*%
%TO.N,USB_CONN_D-*%
X135595000Y-84805000D03*
%TO.P,J5,3,D+*%
%TO.N,USB_CONN_D+*%
X135595000Y-84155000D03*
%TO.P,J5,4,ID*%
%TO.N,no_connect_42*%
X135595000Y-83505000D03*
%TO.P,J5,5,GND*%
%TO.N,GND*%
X135595000Y-82855000D03*
D14*
%TO.P,J5,6,Shield*%
%TO.N,no_connect_43*%
X136795000Y-81155000D03*
X136795000Y-87105000D03*
D15*
X135475000Y-81255000D03*
D16*
X138475000Y-81425000D03*
D17*
X135475000Y-81735000D03*
D15*
X135495000Y-87005000D03*
D18*
X137545000Y-86885000D03*
D19*
X138745000Y-85115000D03*
D18*
X137545000Y-81405000D03*
D16*
X138475000Y-86885000D03*
D19*
X138745000Y-83195000D03*
D17*
X135475000Y-86575000D03*
%TD*%
D20*
%TO.P,R3,1*%
%TO.N,+3V3*%
X129600000Y-103375000D03*
%TO.P,R3,2*%
%TO.N,BUCK_FB*%
X129600000Y-105025000D03*
%TD*%
D10*
%TO.P,C7,1*%
%TO.N,+3V3*%
X98757327Y-101175507D03*
%TO.P,C7,2*%
%TO.N,GND*%
X97797327Y-101175507D03*
%TD*%
D21*
%TO.P,C12,1*%
%TO.N,+3.3VA*%
X93500000Y-97025000D03*
%TO.P,C12,2*%
%TO.N,GND*%
X93500000Y-95475000D03*
%TD*%
D22*
%TO.P,L1,1*%
%TO.N,BUCK_SW*%
X114175000Y-100425000D03*
%TO.P,L1,2*%
%TO.N,+3V3*%
X114175000Y-104525000D03*
%TD*%
D20*
%TO.P,R5,1*%
%TO.N,Net-(R4-Pad2)*%
X127730000Y-103415000D03*
%TO.P,R5,2*%
%TO.N,GND*%
X127730000Y-105065000D03*
%TD*%
%TO.P,R9,1*%
%TO.N,GND*%
X91000000Y-101175000D03*
%TO.P,R9,2*%
%TO.N,Net-(D4-Pad1)*%
X91000000Y-102825000D03*
%TD*%
D23*
%TO.P,C15,1*%
%TO.N,HSE_IN*%
X88770000Y-89250000D03*
%TO.P,C15,2*%
%TO.N,GND*%
X89730000Y-89250000D03*
%TD*%
D24*
%TO.P,U2,1,VBAT*%
%TO.N,+3V3*%
X95575000Y-90000000D03*
%TO.P,U2,2,PC13*%
%TO.N,no_connect_49*%
X95575000Y-90500000D03*
%TO.P,U2,3,PC14*%
%TO.N,no_connect_59*%
X95575000Y-91000000D03*
%TO.P,U2,4,PC15*%
%TO.N,no_connect_67*%
X95575000Y-91500000D03*
%TO.P,U2,5,PH0*%
%TO.N,HSE_IN*%
X95575000Y-92000000D03*
%TO.P,U2,6,PH1*%
%TO.N,HSC_OUT*%
X95575000Y-92500000D03*
%TO.P,U2,7,NRST*%
%TO.N,NRST*%
X95575000Y-93000000D03*
%TO.P,U2,8,PC0*%
%TO.N,no_connect_81*%
X95575000Y-93500000D03*
%TO.P,U2,9,PC1*%
%TO.N,no_connect_82*%
X95575000Y-94000000D03*
%TO.P,U2,10,PC2*%
%TO.N,no_connect_44*%
X95575000Y-94500000D03*
%TO.P,U2,11,PC3*%
%TO.N,no_connect_45*%
X95575000Y-95000000D03*
%TO.P,U2,12,VSSA*%
%TO.N,GND*%
X95575000Y-95500000D03*
%TO.P,U2,13,VDDA*%
%TO.N,+3.3VA*%
X95575000Y-96000000D03*
%TO.P,U2,14,PA0*%
%TO.N,no_connect_46*%
X95575000Y-96500000D03*
%TO.P,U2,15,PA1*%
%TO.N,no_connect_47*%
X95575000Y-97000000D03*
%TO.P,U2,16,PA2*%
%TO.N,LED_STATUS*%
X95575000Y-97500000D03*
D25*
%TO.P,U2,17,PA3*%
%TO.N,no_connect_48*%
X97500000Y-99425000D03*
%TO.P,U2,18,VSS*%
%TO.N,GND*%
X98000000Y-99425000D03*
%TO.P,U2,19,VDD*%
%TO.N,+3V3*%
X98500000Y-99425000D03*
%TO.P,U2,20,PA4*%
%TO.N,no_connect_50*%
X99000000Y-99425000D03*
%TO.P,U2,21,PA5*%
%TO.N,no_connect_51*%
X99500000Y-99425000D03*
%TO.P,U2,22,PA6*%
%TO.N,no_connect_52*%
X100000000Y-99425000D03*
%TO.P,U2,23,PA7*%
%TO.N,no_connect_53*%
X100500000Y-99425000D03*
%TO.P,U2,24,PC4*%
%TO.N,no_connect_54*%
X101000000Y-99425000D03*
%TO.P,U2,25,PC5*%
%TO.N,no_connect_55*%
X101500000Y-99425000D03*
%TO.P,U2,26,PB0*%
%TO.N,no_connect_56*%
X102000000Y-99425000D03*
%TO.P,U2,27,PB1*%
%TO.N,no_connect_57*%
X102500000Y-99425000D03*
%TO.P,U2,28,PB2*%
%TO.N,no_connect_58*%
X103000000Y-99425000D03*
%TO.P,U2,29,PB10*%
%TO.N,USART3_TX*%
X103500000Y-99425000D03*
%TO.P,U2,30,PB11*%
%TO.N,USART3_RX*%
X104000000Y-99425000D03*
%TO.P,U2,31,VCAP_1*%
%TO.N,Net-(C13-Pad1)*%
X104500000Y-99425000D03*
%TO.P,U2,32,VDD*%
%TO.N,+3V3*%
X105000000Y-99425000D03*
D24*
%TO.P,U2,33,PB12*%
%TO.N,no_connect_60*%
X106925000Y-97500000D03*
%TO.P,U2,34,PB13*%
%TO.N,no_connect_61*%
X106925000Y-97000000D03*
%TO.P,U2,35,PB14*%
%TO.N,no_connect_62*%
X106925000Y-96500000D03*
%TO.P,U2,36,PB15*%
%TO.N,no_connect_63*%
X106925000Y-96000000D03*
%TO.P,U2,37,PC6*%
%TO.N,no_connect_64*%
X106925000Y-95500000D03*
%TO.P,U2,38,PC7*%
%TO.N,no_connect_65*%
X106925000Y-95000000D03*
%TO.P,U2,39,PC8*%
%TO.N,no_connect_66*%
X106925000Y-94500000D03*
%TO.P,U2,40,PC9*%
%TO.N,no_connect_68*%
X106925000Y-94000000D03*
%TO.P,U2,41,PA8*%
%TO.N,no_connect_69*%
X106925000Y-93500000D03*
%TO.P,U2,42,PA9*%
%TO.N,no_connect_70*%
X106925000Y-93000000D03*
%TO.P,U2,43,PA10*%
%TO.N,no_connect_71*%
X106925000Y-92500000D03*
%TO.P,U2,44,PA11*%
%TO.N,USB_D-*%
X106925000Y-92000000D03*
%TO.P,U2,45,PA12*%
%TO.N,USB_D+*%
X106925000Y-91500000D03*
%TO.P,U2,46,PA13*%
%TO.N,SWDIO*%
X106925000Y-91000000D03*
%TO.P,U2,47,VCAP_2*%
%TO.N,Net-(C14-Pad1)*%
X106925000Y-90500000D03*
%TO.P,U2,48,VDD*%
%TO.N,+3V3*%
X106925000Y-90000000D03*
D25*
%TO.P,U2,49,PA14*%
%TO.N,SWCLK*%
X105000000Y-88075000D03*
%TO.P,U2,50,PA15*%
%TO.N,no_connect_72*%
X104500000Y-88075000D03*
%TO.P,U2,51,PC10*%
%TO.N,no_connect_73*%
X104000000Y-88075000D03*
%TO.P,U2,52,PC11*%
%TO.N,no_connect_74*%
X103500000Y-88075000D03*
%TO.P,U2,53,PC12*%
%TO.N,no_connect_75*%
X103000000Y-88075000D03*
%TO.P,U2,54,PD2*%
%TO.N,no_connect_76*%
X102500000Y-88075000D03*
%TO.P,U2,55,PB3*%
%TO.N,SWO*%
X102000000Y-88075000D03*
%TO.P,U2,56,PB4*%
%TO.N,no_connect_77*%
X101500000Y-88075000D03*
%TO.P,U2,57,PB5*%
%TO.N,no_connect_78*%
X101000000Y-88075000D03*
%TO.P,U2,58,PB6*%
%TO.N,12C1_SCL*%
X100500000Y-88075000D03*
%TO.P,U2,59,PB7*%
%TO.N,12C1_SDA*%
X100000000Y-88075000D03*
%TO.P,U2,60,BOOT0*%
%TO.N,BOOT0*%
X99500000Y-88075000D03*
%TO.P,U2,61,PB8*%
%TO.N,no_connect_79*%
X99000000Y-88075000D03*
%TO.P,U2,62,PB9*%
%TO.N,no_connect_80*%
X98500000Y-88075000D03*
%TO.P,U2,63,VSS*%
%TO.N,GND*%
X98000000Y-88075000D03*
%TO.P,U2,64,VDD*%
%TO.N,+3V3*%
X97500000Y-88075000D03*
%TD*%
D21*
%TO.P,C11,1*%
%TO.N,+3.3VA*%
X91750000Y-97025000D03*
%TO.P,C11,2*%
%TO.N,GND*%
X91750000Y-95475000D03*
%TD*%
D26*
%TO.P,J1,1,Pin_1*%
%TO.N,+12V*%
X135150000Y-105620000D03*
D27*
%TO.P,J1,2,Pin_2*%
%TO.N,GND*%
X135150000Y-102120000D03*
%TD*%
D28*
%TO.P,SW1,*%
%TO.N,*%
X88030000Y-85400000D03*
X88030000Y-78100000D03*
X85820000Y-85400000D03*
X85820000Y-78100000D03*
D29*
%TO.P,SW1,1,A*%
%TO.N,+3V3*%
X88680000Y-79500000D03*
%TO.P,SW1,2,B*%
%TO.N,Net-(R7-Pad1)*%
X88680000Y-82500000D03*
%TO.P,SW1,3,C*%
%TO.N,GND*%
X88680000Y-84000000D03*
%TD*%
D30*
%TO.P,C6,1*%
%TO.N,+3V3*%
X93750000Y-89980000D03*
%TO.P,C6,2*%
%TO.N,GND*%
X93750000Y-89020000D03*
%TD*%
D31*
%TO.P,R6,1*%
%TO.N,GND*%
X126525000Y-72500000D03*
%TO.P,R6,2*%
%TO.N,Net-(D3-Pad1)*%
X128175000Y-72500000D03*
%TD*%
D32*
%TO.P,L2,1*%
%TO.N,+3V3*%
X93235000Y-98750000D03*
%TO.P,L2,2*%
%TO.N,+3.3VA*%
X92265000Y-98750000D03*
%TD*%
D33*
%TO.P,FB1,1*%
%TO.N,BUCK_IN*%
X122712500Y-88700000D03*
%TO.P,FB1,2*%
%TO.N,Net-(F1-Pad1)*%
X124837500Y-88700000D03*
%TD*%
D34*
%TO.P,D1,1,K*%
%TO.N,Net-(D1-Pad1)*%
X128350000Y-90750000D03*
%TO.P,D1,2,A*%
%TO.N,+5V*%
X131650000Y-90750000D03*
%TD*%
D35*
%TO.P,C13,1*%
%TO.N,Net-(C13-Pad1)*%
X104875000Y-103250000D03*
%TO.P,C13,2*%
%TO.N,GND*%
X106425000Y-103250000D03*
%TD*%
D21*
%TO.P,C14,1*%
%TO.N,Net-(C14-Pad1)*%
X111270000Y-90495000D03*
%TO.P,C14,2*%
%TO.N,GND*%
X111270000Y-88945000D03*
%TD*%
D36*
%TO.P,R8,1*%
%TO.N,HSC_OUT*%
X93260000Y-93500000D03*
%TO.P,R8,2*%
%TO.N,Net-(C16-Pad1)*%
X92240000Y-93500000D03*
%TD*%
D34*
%TO.P,D2,1,K*%
%TO.N,BUCK_SW*%
X114125000Y-96900000D03*
%TO.P,D2,2,A*%
%TO.N,GND*%
X117425000Y-96900000D03*
%TD*%
D37*
%TO.P,D4,1,K*%
%TO.N,Net-(D4-Pad1)*%
X93000000Y-102787500D03*
%TO.P,D4,2,A*%
%TO.N,LED_STATUS*%
X93000000Y-101212500D03*
%TD*%
D38*
%TO.P,R4,1*%
%TO.N,BUCK_FB*%
X126100000Y-105055000D03*
%TO.P,R4,2*%
%TO.N,Net-(R4-Pad2)*%
X126100000Y-103405000D03*
%TD*%
D39*
%TO.P,R10,1*%
%TO.N,+3V3*%
X100340000Y-81250000D03*
%TO.P,R10,2*%
%TO.N,12C1_SDA*%
X101360000Y-81250000D03*
%TD*%
D40*
%TO.P,J3,1,Pin_1*%
%TO.N,no_connect_38*%
X103925000Y-71225000D03*
D41*
%TO.P,J3,2,Pin_2*%
%TO.N,12C1_SCL*%
X102675000Y-71225000D03*
%TO.P,J3,3,Pin_3*%
%TO.N,12C1_SDA*%
X101425000Y-71225000D03*
%TO.P,J3,4,Pin_4*%
%TO.N,no_connect_39*%
X100175000Y-71225000D03*
%TD*%
D36*
%TO.P,R11,1*%
%TO.N,+3V3*%
X103610000Y-81250000D03*
%TO.P,R11,2*%
%TO.N,12C1_SCL*%
X102590000Y-81250000D03*
%TD*%
D42*
%TO.P,C4,1*%
%TO.N,BUCK_SW*%
X119000000Y-101725000D03*
%TO.P,C4,2*%
%TO.N,BUCK_BST*%
X119000000Y-103275000D03*
%TD*%
D43*
%TO.P,U1,1,BST*%
%TO.N,BUCK_BST*%
X121200000Y-103587500D03*
%TO.P,U1,2,GND*%
%TO.N,GND*%
X122150000Y-103587500D03*
%TO.P,U1,3,FB*%
%TO.N,BUCK_FB*%
X123100000Y-103587500D03*
%TO.P,U1,4,EN*%
%TO.N,BUCK_EN*%
X123100000Y-101312500D03*
%TO.P,U1,5,IN*%
%TO.N,BUCK_IN*%
X122150000Y-101312500D03*
%TO.P,U1,6,SW*%
%TO.N,BUCK_SW*%
X121200000Y-101312500D03*
%TD*%
D35*
%TO.P,C5,1*%
%TO.N,+3V3*%
X91195000Y-86590000D03*
%TO.P,C5,2*%
%TO.N,GND*%
X92745000Y-86590000D03*
%TD*%
D39*
%TO.P,R7,1*%
%TO.N,Net-(R7-Pad1)*%
X90820000Y-82260000D03*
%TO.P,R7,2*%
%TO.N,BOOT0*%
X91840000Y-82260000D03*
%TD*%
D30*
%TO.P,C9,1*%
%TO.N,+3V3*%
X108700000Y-89105000D03*
%TO.P,C9,2*%
%TO.N,GND*%
X108700000Y-88145000D03*
%TD*%
D44*
%TO.P,H2,1,1*%
%TO.N,GND*%
X132919581Y-73390419D03*
X135200000Y-74335000D03*
X138425000Y-71110000D03*
X137480419Y-68829581D03*
D45*
X135200000Y-71110000D03*
D44*
X132919581Y-68829581D03*
X135200000Y-67885000D03*
X131975000Y-71110000D03*
X137480419Y-73390419D03*
%TD*%
D46*
%TO.P,C3,1*%
%TO.N,GND*%
X117160000Y-108335000D03*
%TO.P,C3,2*%
%TO.N,+3V3*%
X114210000Y-108335000D03*
%TD*%
D47*
%TO.P,C1,1*%
%TO.N,BUCK_IN*%
X122775000Y-97750000D03*
%TO.P,C1,2*%
%TO.N,GND*%
X125725000Y-97750000D03*
%TD*%
D20*
%TO.P,R2,1*%
%TO.N,BUCK_EN*%
X127550000Y-100075000D03*
%TO.P,R2,2*%
%TO.N,GND*%
X127550000Y-101725000D03*
%TD*%
D44*
%TO.P,H4,1,1*%
%TO.N,GND*%
X90200000Y-74475000D03*
X92480419Y-73530419D03*
X86975000Y-71250000D03*
X87919581Y-68969581D03*
X87919581Y-73530419D03*
X90200000Y-68025000D03*
X93425000Y-71250000D03*
X92480419Y-68969581D03*
D45*
X90200000Y-71250000D03*
%TD*%
D48*
%TO.P,Y1,1,1*%
%TO.N,HSE_IN*%
X88450000Y-91300000D03*
%TO.P,Y1,2,2*%
%TO.N,GND*%
X88450000Y-93500000D03*
%TO.P,Y1,3,3*%
%TO.N,Net-(C16-Pad1)*%
X90150000Y-93500000D03*
%TO.P,Y1,4,4*%
%TO.N,GND*%
X90150000Y-91300000D03*
%TD*%
D49*
%TO.P,U3,1,I/O1*%
%TO.N,USB_CONN_D-*%
X131012500Y-85425000D03*
%TO.P,U3,2,GND*%
%TO.N,GND*%
X131012500Y-84475000D03*
%TO.P,U3,3,I/O2*%
%TO.N,USB_CONN_D+*%
X131012500Y-83525000D03*
%TO.P,U3,4,I/O2*%
%TO.N,USB_D+*%
X128737500Y-83525000D03*
%TO.P,U3,5,VBUS*%
%TO.N,+5V*%
X128737500Y-84475000D03*
%TO.P,U3,6,I/O1*%
%TO.N,USB_D-*%
X128737500Y-85425000D03*
%TD*%
D50*
%TO.P,Q1,1,G*%
%TO.N,GND*%
X130225000Y-93125000D03*
%TO.P,Q1,2,S*%
%TO.N,Net-(D1-Pad1)*%
X130225000Y-95025000D03*
%TO.P,Q1,3,D*%
%TO.N,+12V*%
X132225000Y-94075000D03*
%TD*%
D51*
%TO.P,J4,1,Pin_1*%
%TO.N,no_connect_40*%
X102050000Y-116650000D03*
D41*
%TO.P,J4,2,Pin_2*%
%TO.N,USART3_TX*%
X103300000Y-116650000D03*
%TO.P,J4,3,Pin_3*%
%TO.N,USART3_RX*%
X104550000Y-116650000D03*
%TO.P,J4,4,Pin_4*%
%TO.N,no_connect_41*%
X105800000Y-116650000D03*
%TD*%
D46*
%TO.P,C2,1*%
%TO.N,GND*%
X117160000Y-111635000D03*
%TO.P,C2,2*%
%TO.N,+3V3*%
X114210000Y-111635000D03*
%TD*%
D23*
%TO.P,C8,1*%
%TO.N,+3V3*%
X106170000Y-99700000D03*
%TO.P,C8,2*%
%TO.N,GND*%
X107130000Y-99700000D03*
%TD*%
D52*
%TO.P,D3,1,K*%
%TO.N,Net-(D3-Pad1)*%
X128137500Y-74500000D03*
%TO.P,D3,2,A*%
%TO.N,+3V3*%
X126562500Y-74500000D03*
%TD*%
D44*
%TO.P,H1,1,1*%
%TO.N,GND*%
X93575000Y-116250000D03*
X92630419Y-118530419D03*
X92630419Y-113969581D03*
X90350000Y-113025000D03*
X87125000Y-116250000D03*
X90350000Y-119475000D03*
X88069581Y-113969581D03*
D45*
X90350000Y-116250000D03*
D44*
X88069581Y-118530419D03*
%TD*%
%TO.P,H3,1,1*%
%TO.N,GND*%
X132869581Y-113819581D03*
X135150000Y-112875000D03*
X135150000Y-119325000D03*
X137430419Y-113819581D03*
X131925000Y-116100000D03*
D45*
X135150000Y-116100000D03*
D44*
X132869581Y-118380419D03*
X137430419Y-118380419D03*
X138375000Y-116100000D03*
%TD*%
D38*
%TO.P,R1,1*%
%TO.N,BUCK_IN*%
X125850000Y-101725000D03*
%TO.P,R1,2*%
%TO.N,BUCK_EN*%
X125850000Y-100075000D03*
%TD*%
D10*
%TO.P,C16,1*%
%TO.N,Net-(C16-Pad1)*%
X90000000Y-95750000D03*
%TO.P,C16,2*%
%TO.N,GND*%
X89040000Y-95750000D03*
%TD*%
D53*
%TO.N,GND*%
X119125000Y-98125000D03*
X119100000Y-96975000D03*
X119100000Y-95800000D03*
%TO.N,+3V3*%
X109950000Y-89725000D03*
%TO.N,GND*%
X133625000Y-83150000D03*
X132700000Y-83175000D03*
X132725000Y-82150000D03*
X133575000Y-82150000D03*
X128850000Y-102275000D03*
X128850000Y-101375000D03*
X128050000Y-98750000D03*
X127125000Y-98750000D03*
X127125000Y-97850000D03*
X128050000Y-97850000D03*
X128050000Y-96925000D03*
X127125000Y-96925000D03*
X107925000Y-99725000D03*
X109825000Y-87825000D03*
X118725000Y-110850000D03*
X116775000Y-74025000D03*
X125225000Y-72400000D03*
X107600000Y-103250000D03*
X122150000Y-104975000D03*
X93875000Y-87600000D03*
X89475000Y-97125000D03*
X112900000Y-74125000D03*
X128450000Y-93250000D03*
X92700000Y-96050000D03*
X118750000Y-112425000D03*
X112675000Y-88950000D03*
X94825000Y-89000000D03*
X114225000Y-74100000D03*
X129800000Y-82575000D03*
X97025000Y-101200000D03*
X89700000Y-101000000D03*
X96225000Y-88800000D03*
X95600000Y-87050000D03*
X89975000Y-83275000D03*
X89750000Y-88125000D03*
X118725000Y-109000000D03*
X92625000Y-94775000D03*
X127775000Y-106350000D03*
X118775000Y-107725000D03*
%TO.N,+3V3*%
X112625000Y-107675000D03*
X99700000Y-81275000D03*
X94650000Y-83775000D03*
X106200000Y-100475000D03*
X112575000Y-112125000D03*
X94075000Y-98400000D03*
X130750000Y-103450000D03*
X93075000Y-90200000D03*
X104550000Y-81275000D03*
X112575000Y-108975000D03*
X125250000Y-74550000D03*
X112575000Y-111100000D03*
X110850000Y-74500000D03*
X90025000Y-79500000D03*
X89425000Y-85850000D03*
X99525000Y-101175000D03*
%TO.N,SWDIO*%
X105148942Y-90823942D03*
X108500000Y-70950000D03*
%TO.N,NRST*%
X102150000Y-91100000D03*
X107112852Y-69281456D03*
%TD*%
D54*
%TO.N,GND*%
X117425000Y-96900000D02*
X117900000Y-96900000D01*
X117900000Y-96900000D02*
X119125000Y-98125000D01*
X117425000Y-96900000D02*
X118000000Y-96900000D01*
X118000000Y-96900000D02*
X119100000Y-95800000D01*
X117425000Y-96900000D02*
X119025000Y-96900000D01*
X119025000Y-96900000D02*
X119100000Y-96975000D01*
D55*
%TO.N,BUCK_SW*%
X114175000Y-100425000D02*
X114175000Y-96950000D01*
X114175000Y-96950000D02*
X114125000Y-96900000D01*
D56*
%TO.N,GND*%
X95520000Y-85575000D02*
X95520000Y-86970000D01*
X95520000Y-86970000D02*
X95600000Y-87050000D01*
D55*
%TO.N,+3V3*%
X111710000Y-72500000D02*
X111710000Y-73640000D01*
X111710000Y-73640000D02*
X110850000Y-74500000D01*
%TO.N,GND*%
X117160000Y-111635000D02*
X117170000Y-111625000D01*
X117170000Y-111625000D02*
X118725000Y-111625000D01*
X117160000Y-108335000D02*
X118715000Y-108335000D01*
%TO.N,+3V3*%
X112685000Y-111635000D02*
X114210000Y-111635000D01*
X114210000Y-108335000D02*
X112740000Y-108335000D01*
D56*
X106170000Y-99700000D02*
X105275000Y-99700000D01*
X105275000Y-99700000D02*
X105000000Y-99425000D01*
%TO.N,GND*%
X107925000Y-99725000D02*
X107155000Y-99725000D01*
X107155000Y-99725000D02*
X107130000Y-99700000D01*
X96225000Y-88800000D02*
X95025000Y-88800000D01*
X95025000Y-88800000D02*
X94825000Y-89000000D01*
%TO.N,+3V3*%
X106200000Y-100475000D02*
X106200000Y-99730000D01*
X106200000Y-99730000D02*
X106170000Y-99700000D01*
X108700000Y-89105000D02*
X109330000Y-89105000D01*
X109330000Y-89105000D02*
X109950000Y-89725000D01*
X106925000Y-90000000D02*
X107805000Y-90000000D01*
X107805000Y-90000000D02*
X108700000Y-89105000D01*
%TO.N,GND*%
X112675000Y-88950000D02*
X111275000Y-88950000D01*
X111275000Y-88950000D02*
X111270000Y-88945000D01*
%TO.N,Net-(C14-Pad1)*%
X109820000Y-90495000D02*
X111270000Y-90495000D01*
D55*
%TO.N,BUCK_IN*%
X122775000Y-97750000D02*
X122150000Y-98375000D01*
X122150000Y-98375000D02*
X122150000Y-101312500D01*
X121250000Y-98350020D02*
X121250000Y-98725000D01*
X121249990Y-98350010D02*
X121250000Y-98350020D01*
X121250000Y-98725000D02*
X122150000Y-99625000D01*
X122150000Y-99625000D02*
X122150000Y-101312500D01*
X122712500Y-88700000D02*
X122712500Y-88712500D01*
X122712500Y-88712500D02*
X121249990Y-90175010D01*
X121249990Y-90175010D02*
X121249990Y-98350010D01*
%TO.N,Net-(F1-Pad1)*%
X125250000Y-91650000D02*
X125250000Y-89112500D01*
X125250000Y-89112500D02*
X124837500Y-88700000D01*
%TO.N,Net-(D1-Pad1)*%
X122450000Y-91650000D02*
X125825000Y-95025000D01*
X125825000Y-95025000D02*
X130225000Y-95025000D01*
D57*
%TO.N,GND*%
X125725000Y-98550000D02*
X126050000Y-98875000D01*
X125725000Y-97750000D02*
X125725000Y-98550000D01*
X126050000Y-98875000D02*
X127000000Y-98875000D01*
X127000000Y-98875000D02*
X127125000Y-98750000D01*
X125725000Y-97250000D02*
X126175000Y-96800000D01*
X127000000Y-96800000D02*
X127125000Y-96925000D01*
X125725000Y-97750000D02*
X125725000Y-97250000D01*
X126175000Y-96800000D02*
X127000000Y-96800000D01*
X125725000Y-97750000D02*
X127950000Y-97750000D01*
X127950000Y-97750000D02*
X128050000Y-97850000D01*
%TO.N,Net-(R4-Pad2)*%
X126100000Y-103405000D02*
X127720000Y-103405000D01*
X127720000Y-103405000D02*
X127730000Y-103415000D01*
%TO.N,GND*%
X135595000Y-82855000D02*
X133920000Y-82855000D01*
X133920000Y-82855000D02*
X133625000Y-83150000D01*
D56*
%TO.N,HSE_IN*%
X88450000Y-91300000D02*
X88450000Y-89550000D01*
D57*
%TO.N,GND*%
X89730000Y-89250000D02*
X89730000Y-88145000D01*
X89730000Y-88145000D02*
X89750000Y-88125000D01*
X89299990Y-83300010D02*
X89949990Y-83300010D01*
X89949990Y-83300010D02*
X89975000Y-83275000D01*
X88680000Y-84000000D02*
X88680000Y-83920000D01*
X88680000Y-83920000D02*
X89299990Y-83300010D01*
X89299990Y-83300010D02*
X89325000Y-83300010D01*
%TO.N,Net-(R7-Pad1)*%
X88680000Y-82500000D02*
X88920000Y-82260000D01*
X88920000Y-82260000D02*
X90820000Y-82260000D01*
%TO.N,+3V3*%
X90025000Y-79500000D02*
X88680000Y-79500000D01*
D55*
%TO.N,BUCK_EN*%
X127550000Y-100075000D02*
X124337500Y-100075000D01*
X124337500Y-100075000D02*
X123100000Y-101312500D01*
D57*
%TO.N,BUCK_IN*%
X125850000Y-101725000D02*
X125149990Y-102425010D01*
X125149990Y-102425010D02*
X122600010Y-102425010D01*
X122600010Y-102425010D02*
X122150000Y-101975000D01*
X122150000Y-101975000D02*
X122150000Y-101312500D01*
D55*
%TO.N,Net-(D1-Pad1)*%
X128350000Y-90750000D02*
X128350000Y-91485048D01*
X128350000Y-91485048D02*
X126700010Y-93135038D01*
X126700010Y-93135038D02*
X126700010Y-94737490D01*
X130225000Y-95025000D02*
X126412500Y-95025000D01*
%TO.N,GND*%
X130225000Y-93125000D02*
X128575000Y-93125000D01*
X128575000Y-93125000D02*
X128450000Y-93250000D01*
%TO.N,+12V*%
X135150000Y-105620000D02*
X132225000Y-102695000D01*
X132225000Y-102695000D02*
X132225000Y-94075000D01*
%TO.N,BUCK_SW*%
X121200000Y-101312500D02*
X119412500Y-101312500D01*
X119412500Y-101312500D02*
X119000000Y-101725000D01*
X118750000Y-101475000D02*
X119000000Y-101725000D01*
X114175000Y-100425000D02*
X117700000Y-100425000D01*
X117700000Y-100425000D02*
X119000000Y-101725000D01*
D56*
%TO.N,GND*%
X97025000Y-101200000D02*
X97772834Y-101200000D01*
X97772834Y-101200000D02*
X97797327Y-101175507D01*
%TO.N,+3V3*%
X99525000Y-101175000D02*
X98757834Y-101175000D01*
X98757834Y-101175000D02*
X98757327Y-101175507D01*
%TO.N,GND*%
X98000000Y-99425000D02*
X98000000Y-100972834D01*
X98000000Y-100972834D02*
X97797327Y-101175507D01*
%TO.N,+3V3*%
X98500000Y-99425000D02*
X98500000Y-100918180D01*
X98500000Y-100918180D02*
X98757327Y-101175507D01*
D57*
%TO.N,GND*%
X91750000Y-95475000D02*
X91925000Y-95475000D01*
D56*
X126425000Y-72400000D02*
X126525000Y-72500000D01*
D57*
X93500000Y-95475000D02*
X93275000Y-95475000D01*
D56*
X88450000Y-93500000D02*
X88450000Y-95160000D01*
D57*
X90825000Y-101000000D02*
X91000000Y-101175000D01*
D56*
X97575000Y-90150000D02*
X96225000Y-88800000D01*
X98000000Y-88075000D02*
X98000000Y-90150000D01*
D57*
X127730000Y-105065000D02*
X127730000Y-105055000D01*
X92625000Y-94775000D02*
X92800000Y-94775000D01*
X127775000Y-106350000D02*
X127775000Y-105110000D01*
X93275000Y-95475000D02*
X92700000Y-96050000D01*
X109505000Y-88145000D02*
X109825000Y-87825000D01*
D56*
X90325000Y-91125000D02*
X90150000Y-91300000D01*
D57*
X92325000Y-96050000D02*
X91750000Y-95475000D01*
D56*
X98000000Y-90150000D02*
X97575000Y-90150000D01*
X89325000Y-83275000D02*
X89325000Y-83355000D01*
D57*
X116775000Y-72385000D02*
X116765000Y-72375000D01*
D56*
X88450000Y-95160000D02*
X89040000Y-95750000D01*
D57*
X130451458Y-84475000D02*
X129850010Y-83873552D01*
D56*
X89325000Y-83355000D02*
X88680000Y-84000000D01*
D57*
X91925000Y-95475000D02*
X92625000Y-94775000D01*
X131012500Y-84475000D02*
X130451458Y-84475000D01*
X92700000Y-96050000D02*
X92325000Y-96050000D01*
X127775000Y-105110000D02*
X127730000Y-105065000D01*
D56*
X92865000Y-86590000D02*
X93875000Y-87600000D01*
X93525000Y-95500000D02*
X93500000Y-95475000D01*
D57*
X125725000Y-97750000D02*
X125750000Y-97725000D01*
D56*
X89730000Y-89250000D02*
X90325000Y-89845000D01*
D57*
X127730000Y-105065000D02*
X127785000Y-105065000D01*
X93945000Y-87530000D02*
X93875000Y-87600000D01*
X129850010Y-83873552D02*
X129850010Y-82625010D01*
D56*
X89040000Y-96690000D02*
X89040000Y-95750000D01*
D57*
X107600000Y-103250000D02*
X106425000Y-103250000D01*
X116775000Y-74025000D02*
X116775000Y-72385000D01*
D56*
X125225000Y-72400000D02*
X126425000Y-72400000D01*
X90325000Y-89845000D02*
X90325000Y-91125000D01*
X95575000Y-95500000D02*
X93525000Y-95500000D01*
D57*
X114225000Y-74100000D02*
X114225000Y-72375000D01*
X112900000Y-74125000D02*
X112900000Y-72430000D01*
D56*
X92745000Y-86590000D02*
X92865000Y-86590000D01*
D57*
X94825000Y-89000000D02*
X93770000Y-89000000D01*
X93770000Y-89000000D02*
X93750000Y-89020000D01*
X108700000Y-88145000D02*
X109505000Y-88145000D01*
X122150000Y-104975000D02*
X122150000Y-103587500D01*
X92800000Y-94775000D02*
X93500000Y-95475000D01*
D56*
X89975000Y-83275000D02*
X89325000Y-83275000D01*
X89475000Y-97125000D02*
X89040000Y-96690000D01*
D57*
X89700000Y-101000000D02*
X90825000Y-101000000D01*
X112900000Y-72430000D02*
X112955000Y-72375000D01*
D56*
%TO.N,Net-(D3-Pad1)*%
X128137500Y-74500000D02*
X128137500Y-72537500D01*
X128137500Y-72537500D02*
X128175000Y-72500000D01*
%TO.N,BUCK_FB*%
X126905000Y-104250000D02*
X128825000Y-104250000D01*
D57*
X124632500Y-103587500D02*
X126100000Y-105055000D01*
X123100000Y-103587500D02*
X124632500Y-103587500D01*
D56*
X128825000Y-104250000D02*
X129600000Y-105025000D01*
X126100000Y-105055000D02*
X126905000Y-104250000D01*
%TO.N,+3V3*%
X90455000Y-85850000D02*
X91195000Y-86590000D01*
X93750000Y-89980000D02*
X95555000Y-89980000D01*
X96425000Y-84350000D02*
X96425000Y-85550000D01*
D57*
X100400000Y-81275000D02*
X100400000Y-81225000D01*
D56*
X94675000Y-83800000D02*
X95875000Y-83800000D01*
D57*
X126550000Y-74525000D02*
X126575000Y-74500000D01*
X111700000Y-72390000D02*
X111685000Y-72375000D01*
D56*
X94650000Y-83775000D02*
X94675000Y-83800000D01*
D57*
X93585000Y-98400000D02*
X93235000Y-98750000D01*
D56*
X95875000Y-83800000D02*
X96425000Y-84350000D01*
D57*
X125500000Y-74525000D02*
X126550000Y-74525000D01*
X93750000Y-89980000D02*
X93555000Y-90175000D01*
X93775000Y-98700000D02*
X93275000Y-98700000D01*
X126562500Y-74500000D02*
X126575000Y-74512500D01*
X94075000Y-98400000D02*
X93585000Y-98400000D01*
D54*
X114210000Y-108335000D02*
X114210000Y-111635000D01*
D56*
X97500000Y-88075000D02*
X97500000Y-86625000D01*
X95555000Y-89980000D02*
X95575000Y-90000000D01*
D58*
X103610000Y-81250000D02*
X104500000Y-81250000D01*
D56*
X89425000Y-85850000D02*
X90455000Y-85850000D01*
D57*
X93555000Y-90175000D02*
X93100000Y-90175000D01*
X94075000Y-98400000D02*
X93775000Y-98700000D01*
D58*
X104500000Y-81250000D02*
X104600000Y-81250000D01*
D57*
X100400000Y-81225000D02*
X100425000Y-81200000D01*
D54*
X130750000Y-103450000D02*
X129675000Y-103450000D01*
D56*
X97500000Y-86625000D02*
X96425000Y-85550000D01*
D57*
X100350000Y-81275000D02*
X100400000Y-81275000D01*
D54*
X114175000Y-104525000D02*
X114175000Y-108300000D01*
D57*
X99700000Y-81275000D02*
X100350000Y-81275000D01*
X114175000Y-108300000D02*
X114210000Y-108335000D01*
D56*
%TO.N,12C1_SCL*%
X102590000Y-83540000D02*
X101050000Y-85080000D01*
X101050000Y-86525000D02*
X100500000Y-87075000D01*
X101050000Y-85080000D02*
X101050000Y-86525000D01*
X102590000Y-81250000D02*
X102600000Y-81240000D01*
X102590000Y-82415000D02*
X102590000Y-83540000D01*
X100500000Y-87075000D02*
X100500000Y-88075000D01*
X102600000Y-81240000D02*
X102600000Y-71175000D01*
X102590000Y-81250000D02*
X102590000Y-82415000D01*
%TO.N,12C1_SDA*%
X101360000Y-81250000D02*
X101360000Y-81940000D01*
X101360000Y-81940000D02*
X100000000Y-83300000D01*
X100000000Y-83300000D02*
X100000000Y-88075000D01*
X101400010Y-81209990D02*
X101360000Y-81250000D01*
X101400000Y-71175000D02*
X101425000Y-71150000D01*
X101360000Y-81250000D02*
X101400000Y-81210000D01*
X101400000Y-81210000D02*
X101400000Y-71175000D01*
%TO.N,Net-(C16-Pad1)*%
X90150000Y-93500000D02*
X90150000Y-95600000D01*
X92240000Y-93500000D02*
X90150000Y-93500000D01*
X90150000Y-95600000D02*
X90000000Y-95750000D01*
%TO.N,HSC_OUT*%
X95575000Y-92500000D02*
X94260000Y-92500000D01*
X94260000Y-92500000D02*
X93260000Y-93500000D01*
%TO.N,BOOT0*%
X91840000Y-82260000D02*
X95648188Y-82260000D01*
X95648188Y-82260000D02*
X99500000Y-86111812D01*
X99500000Y-86111812D02*
X99500000Y-88075000D01*
%TO.N,Net-(D4-Pad1)*%
X92962500Y-102825000D02*
X93000000Y-102787500D01*
X91000000Y-102825000D02*
X92962500Y-102825000D01*
D59*
%TO.N,USB_D-*%
X114341342Y-91985000D02*
X121591342Y-84735000D01*
X121591342Y-84735000D02*
X127006162Y-84735000D01*
X127006162Y-84735000D02*
X127401172Y-85130010D01*
X106925000Y-92000000D02*
X106940000Y-91985000D01*
X127792510Y-85130010D02*
X128112500Y-85450000D01*
X127401172Y-85130010D02*
X127792510Y-85130010D01*
X106940000Y-91985000D02*
X114341342Y-91985000D01*
D57*
%TO.N,+5V*%
X132750000Y-87363588D02*
X134658578Y-85455010D01*
X129850010Y-85773552D02*
X131526458Y-87450000D01*
X131650000Y-90750000D02*
X132750000Y-89650000D01*
X129298542Y-84475000D02*
X129850010Y-85026468D01*
X129850010Y-85026468D02*
X129850010Y-85773552D01*
X131526458Y-87450000D02*
X132700000Y-87450000D01*
X132750000Y-89650000D02*
X132750000Y-87363588D01*
X128737500Y-84475000D02*
X129298542Y-84475000D01*
D59*
%TO.N,USB_D+*%
X121396658Y-84265000D02*
X127006162Y-84265000D01*
X127792510Y-83869990D02*
X128112500Y-83550000D01*
X114146658Y-91515000D02*
X121396658Y-84265000D01*
X106925000Y-91500000D02*
X106940000Y-91515000D01*
X106940000Y-91515000D02*
X114146658Y-91515000D01*
X127401172Y-83869990D02*
X127792510Y-83869990D01*
X127006162Y-84265000D02*
X127401172Y-83869990D01*
%TO.N,USB_CONN_D+*%
X131723828Y-83844990D02*
X132123838Y-84245000D01*
X131332490Y-83844990D02*
X131723828Y-83844990D01*
X131012500Y-83525000D02*
X131332490Y-83844990D01*
X132123838Y-84245000D02*
X135054730Y-84245000D01*
%TO.N,USB_CONN_D-*%
X131012500Y-85425000D02*
X131332490Y-85105010D01*
X132098838Y-84705000D02*
X135220270Y-84705000D01*
X131332490Y-85105010D02*
X131723828Y-85105010D01*
X131723828Y-85105010D02*
X132123838Y-84705000D01*
D56*
%TO.N,BUCK_SW*%
X121200000Y-101312500D02*
X120862500Y-101312500D01*
D57*
X119412500Y-101312500D02*
X120862500Y-101312500D01*
D58*
X114000000Y-100700000D02*
X114025000Y-100725000D01*
D56*
X119000000Y-101725000D02*
X118775000Y-101500000D01*
D57*
%TO.N,BUCK_BST*%
X119000000Y-103275000D02*
X120887500Y-103275000D01*
%TO.N,Net-(D1-Pad1)*%
X126412500Y-95025000D02*
X126700010Y-94737490D01*
D56*
X128350000Y-90750000D02*
X128350000Y-91166850D01*
%TO.N,SWO*%
X114225000Y-67680008D02*
X113469982Y-66924990D01*
X105925000Y-72170010D02*
X105925000Y-81750000D01*
X105925000Y-81750000D02*
X102000000Y-85675000D01*
X113469982Y-66924990D02*
X111170020Y-66924990D01*
X114225000Y-68475000D02*
X114225000Y-67680008D01*
X102000000Y-85675000D02*
X102000000Y-88075000D01*
X111170020Y-66924990D02*
X105925000Y-72170010D01*
%TO.N,SWCLK*%
X106850000Y-74100000D02*
X106850000Y-81850000D01*
X105000000Y-83700000D02*
X105000000Y-88075000D01*
X112955000Y-68475000D02*
X112955000Y-69269990D01*
X106850000Y-81850000D02*
X105000000Y-83700000D01*
X112950000Y-69274990D02*
X112950000Y-69800000D01*
X112955000Y-68475000D02*
X112950000Y-68480000D01*
X112950000Y-69800000D02*
X112550000Y-70200000D01*
X110750000Y-70200000D02*
X106850000Y-74100000D01*
X112550000Y-70200000D02*
X110750000Y-70200000D01*
X112955000Y-69269990D02*
X112950000Y-69274990D01*
%TO.N,Net-(C14-Pad1)*%
X106925000Y-90500000D02*
X109815000Y-90500000D01*
X109815000Y-90500000D02*
X109820000Y-90495000D01*
%TO.N,SWDIO*%
X105325000Y-91000000D02*
X106925000Y-91000000D01*
X111685000Y-68475000D02*
X111360000Y-68800000D01*
X111360000Y-68800000D02*
X110650000Y-68800000D01*
X105148942Y-90823942D02*
X105325000Y-91000000D01*
X110650000Y-68800000D02*
X108500000Y-70950000D01*
%TO.N,Net-(C13-Pad1)*%
X104500000Y-102875000D02*
X104500000Y-99425000D01*
X104875000Y-103250000D02*
X104500000Y-102875000D01*
D58*
%TO.N,USART3_RX*%
X104000000Y-99825000D02*
X103975010Y-99849990D01*
D56*
X104000000Y-99425000D02*
X104000000Y-101875000D01*
X104550000Y-114100000D02*
X104550000Y-116650000D01*
X103475000Y-102400000D02*
X103475000Y-113025000D01*
X103475000Y-113025000D02*
X104550000Y-114100000D01*
X104000000Y-101875000D02*
X103475000Y-102400000D01*
%TO.N,USART3_TX*%
X102325000Y-102325000D02*
X102325000Y-113925000D01*
X102325000Y-113925000D02*
X103300000Y-114900000D01*
X103300000Y-114900000D02*
X103300000Y-116650000D01*
X103500000Y-99425000D02*
X103500000Y-101150000D01*
X103500000Y-101150000D02*
X102325000Y-102325000D01*
%TO.N,LED_STATUS*%
X95575000Y-99400000D02*
X95575000Y-97500000D01*
X93762500Y-101212500D02*
X95575000Y-99400000D01*
X93000000Y-101212500D02*
X93762500Y-101212500D01*
D57*
%TO.N,+3.3VA*%
X92265000Y-98750000D02*
X91750000Y-98235000D01*
X91750000Y-98235000D02*
X91750000Y-97125000D01*
X91750000Y-97125000D02*
X91725000Y-97100000D01*
X91750000Y-97025000D02*
X93475000Y-97025000D01*
D56*
X95575000Y-96000000D02*
X94475000Y-96000000D01*
X94475000Y-96000000D02*
X93500000Y-96975000D01*
%TO.N,NRST*%
X101650000Y-91600000D02*
X101650000Y-92801058D01*
X116765000Y-67680008D02*
X116750000Y-67665008D01*
X116175000Y-66150000D02*
X110244308Y-66150000D01*
X101650000Y-92801058D02*
X101451058Y-93000000D01*
X116765000Y-68475000D02*
X116765000Y-66740000D01*
X102150000Y-91100000D02*
X101650000Y-91600000D01*
X116850000Y-68390000D02*
X116765000Y-68475000D01*
X116765000Y-68475000D02*
X116765000Y-67680008D01*
X101451058Y-93000000D02*
X95575000Y-93000000D01*
X116765000Y-66740000D02*
X116175000Y-66150000D01*
X110244308Y-66150000D02*
X107112852Y-69281456D01*
X116765000Y-68475000D02*
X116750000Y-68460000D01*
%TO.N,HSE_IN*%
X88775000Y-89225000D02*
X88775000Y-89200000D01*
X88450000Y-91394990D02*
X89405020Y-92350010D01*
X88450000Y-91300000D02*
X88450000Y-91394990D01*
X95575000Y-92000000D02*
X93075000Y-92000000D01*
X92724990Y-92350010D02*
X89405020Y-92350010D01*
X93075000Y-92000000D02*
X92724990Y-92350010D01*
X88450000Y-89550000D02*
X88775000Y-89225000D01*
D58*
X88450000Y-91359634D02*
X88450000Y-91300000D01*
D56*
%TO.N,no_connect_43*%
X138475000Y-85385000D02*
X138745000Y-85115000D01*
X135475000Y-86575000D02*
X135785000Y-86885000D01*
X138745000Y-82605000D02*
X137545000Y-81405000D01*
X137545000Y-81405000D02*
X135625000Y-81405000D01*
X135785000Y-86885000D02*
X138475000Y-86885000D01*
X138745000Y-83195000D02*
X138745000Y-82605000D01*
X135625000Y-81405000D02*
X135475000Y-81255000D01*
X138745000Y-85115000D02*
X138745000Y-83195000D01*
X138475000Y-86885000D02*
X138475000Y-85385000D01*
%TD*%
%TA.AperFunction,Conductor*%
%TO.N,GND*%
G36*
X128517121Y-96420002D02*
G01*
X128563614Y-96473658D01*
X128575000Y-96526000D01*
X128575000Y-99074000D01*
X128554998Y-99142121D01*
X128501342Y-99188614D01*
X128449000Y-99200000D01*
X128060881Y-99200000D01*
X128030186Y-99196204D01*
X127914425Y-99167127D01*
X127908662Y-99166764D01*
X127908659Y-99166764D01*
X127906470Y-99166626D01*
X127906454Y-99166625D01*
X127904475Y-99166501D01*
X127673260Y-99166501D01*
X127237473Y-99166500D01*
X127233684Y-99166500D01*
X127104807Y-99182096D01*
X127097703Y-99184780D01*
X127090322Y-99186593D01*
X127090041Y-99185449D01*
X127056908Y-99191500D01*
X126637057Y-99191500D01*
X126568936Y-99171498D01*
X126522443Y-99117842D01*
X126512339Y-99047568D01*
X126545584Y-98978847D01*
X126655922Y-98862371D01*
X126664635Y-98850724D01*
X126746043Y-98710571D01*
X126751837Y-98697246D01*
X126799068Y-98541300D01*
X126801516Y-98528677D01*
X126807751Y-98458816D01*
X126808000Y-98453221D01*
X126808000Y-98022115D01*
X126803525Y-98006876D01*
X126802135Y-98005671D01*
X126794452Y-98004000D01*
X125597000Y-98004000D01*
X125528879Y-97983998D01*
X125482386Y-97930342D01*
X125471000Y-97878000D01*
X125471000Y-97622000D01*
X125491002Y-97553879D01*
X125544658Y-97507386D01*
X125597000Y-97496000D01*
X126789885Y-97496000D01*
X126805124Y-97491525D01*
X126806329Y-97490135D01*
X126808000Y-97482452D01*
X126808000Y-97060777D01*
X126807576Y-97053476D01*
X126793383Y-96931745D01*
X126790037Y-96917590D01*
X126734737Y-96765239D01*
X126728227Y-96752240D01*
X126639359Y-96616693D01*
X126631106Y-96606823D01*
X126602754Y-96541733D01*
X126614094Y-96471648D01*
X126661524Y-96418819D01*
X126727768Y-96400000D01*
X128449000Y-96400000D01*
X128517121Y-96420002D01*
G37*
%TD.AperFunction*%
%TD*%
%TA.AperFunction,Conductor*%
%TO.N,GND*%
G36*
X129317121Y-100895002D02*
G01*
X129363614Y-100948658D01*
X129375000Y-101001000D01*
X129375000Y-102343778D01*
X129354998Y-102411899D01*
X129301342Y-102458392D01*
X129264138Y-102468865D01*
X129211565Y-102475227D01*
X129154807Y-102482096D01*
X128994439Y-102542694D01*
X128988181Y-102546995D01*
X128861353Y-102634162D01*
X128853155Y-102639796D01*
X128814821Y-102682821D01*
X128754573Y-102720375D01*
X128720747Y-102725000D01*
X128567815Y-102725000D01*
X128499694Y-102704998D01*
X128484006Y-102693084D01*
X128412204Y-102629111D01*
X128373130Y-102608422D01*
X128322289Y-102558871D01*
X128306307Y-102489696D01*
X128330261Y-102422863D01*
X128338014Y-102413250D01*
X128405428Y-102337586D01*
X128414033Y-102325205D01*
X128487087Y-102187230D01*
X128492492Y-102173150D01*
X128530972Y-102019960D01*
X128532741Y-102008600D01*
X128532874Y-102006473D01*
X128533000Y-102002482D01*
X128533000Y-101997115D01*
X128528525Y-101981876D01*
X128527135Y-101980671D01*
X128519452Y-101979000D01*
X127422000Y-101978999D01*
X127353879Y-101958997D01*
X127307386Y-101905341D01*
X127296000Y-101852999D01*
X127296001Y-101597000D01*
X127316003Y-101528879D01*
X127369659Y-101482386D01*
X127422001Y-101471000D01*
X128513350Y-101471001D01*
X128527332Y-101466896D01*
X128529375Y-101453730D01*
X128518331Y-101362467D01*
X128514735Y-101347824D01*
X128459547Y-101201774D01*
X128452562Y-101188413D01*
X128372806Y-101072367D01*
X128350706Y-101004898D01*
X128368592Y-100936191D01*
X128420783Y-100888060D01*
X128476646Y-100875000D01*
X129249000Y-100875000D01*
X129317121Y-100895002D01*
G37*
%TD.AperFunction*%
%TD*%
%TA.AperFunction,Conductor*%
%TO.N,GND*%
G36*
X133967121Y-81670002D02*
G01*
X134013614Y-81723658D01*
X134025000Y-81776000D01*
X134025000Y-82550000D01*
X134137880Y-82550000D01*
X134206001Y-82570002D01*
X134252494Y-82623658D01*
X134260431Y-82650688D01*
X134275115Y-82655000D01*
X134363474Y-82655000D01*
X134431595Y-82675002D01*
X134434546Y-82677211D01*
X134440571Y-82681083D01*
X134447381Y-82686984D01*
X134455577Y-82690727D01*
X134455700Y-82690806D01*
X134502193Y-82744461D01*
X134512298Y-82814735D01*
X134482805Y-82879316D01*
X134455702Y-82902801D01*
X134441311Y-82912050D01*
X134433729Y-82916923D01*
X134427828Y-82923733D01*
X134351611Y-83011692D01*
X134291885Y-83050075D01*
X134259876Y-83059474D01*
X134258671Y-83060864D01*
X134257729Y-83065195D01*
X134261740Y-83121267D01*
X134264126Y-83134491D01*
X134267741Y-83146803D01*
X134271563Y-83200232D01*
X134257139Y-83300552D01*
X134257138Y-83300559D01*
X134256500Y-83305000D01*
X134256500Y-83480500D01*
X134236498Y-83548621D01*
X134182842Y-83595114D01*
X134130500Y-83606500D01*
X132440503Y-83606500D01*
X132372382Y-83586498D01*
X132351408Y-83569595D01*
X132230918Y-83449105D01*
X132223677Y-83441149D01*
X132219653Y-83434808D01*
X132213872Y-83429379D01*
X132212415Y-83427618D01*
X132184405Y-83362380D01*
X132183500Y-83347302D01*
X132183500Y-83335422D01*
X132175994Y-83276005D01*
X132175000Y-83260213D01*
X132175000Y-81776000D01*
X132195002Y-81707879D01*
X132248658Y-81661386D01*
X132301000Y-81650000D01*
X133899000Y-81650000D01*
X133967121Y-81670002D01*
G37*
%TD.AperFunction*%
%TD*%
%TA.AperFunction,Conductor*%
%TO.N,GND*%
G36*
X119517121Y-106870002D02*
G01*
X119563614Y-106923658D01*
X119575000Y-106976000D01*
X119575000Y-109874000D01*
X119554998Y-109942121D01*
X119501342Y-109988614D01*
X119449000Y-110000000D01*
X116351000Y-110000000D01*
X116282879Y-109979998D01*
X116236386Y-109926342D01*
X116225000Y-109874000D01*
X116225000Y-109726021D01*
X116245002Y-109657900D01*
X116298658Y-109611407D01*
X116368932Y-109601303D01*
X116414285Y-109617067D01*
X116524425Y-109681041D01*
X116537754Y-109686837D01*
X116693700Y-109734068D01*
X116706323Y-109736516D01*
X116776184Y-109742751D01*
X116781779Y-109743000D01*
X116887885Y-109743000D01*
X116903124Y-109738525D01*
X116904329Y-109737135D01*
X116906000Y-109729452D01*
X116906000Y-109724885D01*
X117413999Y-109724885D01*
X117418474Y-109740124D01*
X117419864Y-109741329D01*
X117427547Y-109743000D01*
X117524222Y-109743000D01*
X117531523Y-109742576D01*
X117653254Y-109728383D01*
X117667409Y-109725037D01*
X117819760Y-109669737D01*
X117832759Y-109663227D01*
X117968305Y-109574359D01*
X117979457Y-109565035D01*
X118090921Y-109447371D01*
X118099634Y-109435724D01*
X118181041Y-109295573D01*
X118186838Y-109282241D01*
X118234067Y-109126303D01*
X118236516Y-109113677D01*
X118242751Y-109043816D01*
X118243000Y-109038221D01*
X118243000Y-108607115D01*
X118238525Y-108591876D01*
X118237135Y-108590671D01*
X118229452Y-108589000D01*
X117432115Y-108588999D01*
X117416876Y-108593474D01*
X117415671Y-108594864D01*
X117414000Y-108602547D01*
X117413999Y-109724885D01*
X116906000Y-109724885D01*
X116906001Y-108589000D01*
X116906000Y-108588996D01*
X116906001Y-108207000D01*
X116926003Y-108138879D01*
X116979659Y-108092386D01*
X117032001Y-108081000D01*
X118224885Y-108081001D01*
X118240124Y-108076526D01*
X118241329Y-108075136D01*
X118243000Y-108067453D01*
X118243000Y-107645778D01*
X118242576Y-107638477D01*
X118228383Y-107516746D01*
X118225037Y-107502591D01*
X118169737Y-107350240D01*
X118163227Y-107337241D01*
X118074359Y-107201693D01*
X118065035Y-107190542D01*
X117947367Y-107079075D01*
X117944450Y-107076892D01*
X117942951Y-107074890D01*
X117942055Y-107074042D01*
X117942200Y-107073889D01*
X117901885Y-107020070D01*
X117896798Y-106949256D01*
X117930803Y-106886933D01*
X117993104Y-106852888D01*
X118019927Y-106850000D01*
X119449000Y-106850000D01*
X119517121Y-106870002D01*
G37*
%TD.AperFunction*%
%TD*%
%TA.AperFunction,Conductor*%
%TO.N,GND*%
G36*
X119542121Y-110245002D02*
G01*
X119588614Y-110298658D01*
X119600000Y-110351000D01*
X119600000Y-113324000D01*
X119579998Y-113392121D01*
X119526342Y-113438614D01*
X119474000Y-113450000D01*
X116376000Y-113450000D01*
X116307879Y-113429998D01*
X116261386Y-113376342D01*
X116250000Y-113324000D01*
X116250000Y-113040542D01*
X116270002Y-112972421D01*
X116323658Y-112925928D01*
X116393932Y-112915824D01*
X116439286Y-112931588D01*
X116524429Y-112981043D01*
X116537754Y-112986837D01*
X116693700Y-113034068D01*
X116706323Y-113036516D01*
X116776184Y-113042751D01*
X116781779Y-113043000D01*
X116887885Y-113043000D01*
X116903124Y-113038525D01*
X116904329Y-113037135D01*
X116906000Y-113029452D01*
X116906000Y-113024885D01*
X117413999Y-113024885D01*
X117418474Y-113040124D01*
X117419864Y-113041329D01*
X117427547Y-113043000D01*
X117524222Y-113043000D01*
X117531523Y-113042576D01*
X117653254Y-113028383D01*
X117667409Y-113025037D01*
X117819760Y-112969737D01*
X117832759Y-112963227D01*
X117968305Y-112874359D01*
X117979457Y-112865035D01*
X118090921Y-112747371D01*
X118099634Y-112735724D01*
X118181041Y-112595573D01*
X118186838Y-112582241D01*
X118234067Y-112426303D01*
X118236516Y-112413677D01*
X118242751Y-112343816D01*
X118243000Y-112338221D01*
X118243000Y-111907115D01*
X118238525Y-111891876D01*
X118237135Y-111890671D01*
X118229452Y-111889000D01*
X117432115Y-111888999D01*
X117416876Y-111893474D01*
X117415671Y-111894864D01*
X117414000Y-111902547D01*
X117413999Y-113024885D01*
X116906000Y-113024885D01*
X116906001Y-111889000D01*
X116906000Y-111888996D01*
X116906001Y-111507000D01*
X116926003Y-111438879D01*
X116979659Y-111392386D01*
X117032001Y-111381000D01*
X118224885Y-111381001D01*
X118240124Y-111376526D01*
X118241329Y-111375136D01*
X118243000Y-111367453D01*
X118243000Y-110945778D01*
X118242576Y-110938477D01*
X118228383Y-110816746D01*
X118225037Y-110802591D01*
X118169737Y-110650240D01*
X118163227Y-110637241D01*
X118074359Y-110501693D01*
X118065035Y-110490542D01*
X118014292Y-110442473D01*
X117978594Y-110381104D01*
X117981741Y-110310177D01*
X118022735Y-110252211D01*
X118088560Y-110225610D01*
X118100945Y-110225000D01*
X119474000Y-110225000D01*
X119542121Y-110245002D01*
G37*
%TD.AperFunction*%
%TD*%
%TA.AperFunction,Conductor*%
%TO.N,+3V3*%
G36*
X113386575Y-110195002D02*
G01*
X113433068Y-110248658D01*
X113443172Y-110318932D01*
X113413678Y-110383512D01*
X113399276Y-110397663D01*
X113390543Y-110404965D01*
X113279079Y-110522629D01*
X113270366Y-110534276D01*
X113188959Y-110674427D01*
X113183162Y-110687759D01*
X113135933Y-110843697D01*
X113133484Y-110856323D01*
X113127249Y-110926184D01*
X113127000Y-110931779D01*
X113127000Y-111362885D01*
X113131475Y-111378124D01*
X113132865Y-111379329D01*
X113140548Y-111381000D01*
X113955998Y-111381001D01*
X113956004Y-111381000D01*
X114338000Y-111381001D01*
X114406121Y-111401003D01*
X114452614Y-111454659D01*
X114464000Y-111507001D01*
X114463999Y-113024885D01*
X114468474Y-113040124D01*
X114469864Y-113041329D01*
X114477547Y-113043000D01*
X114574222Y-113043000D01*
X114581523Y-113042576D01*
X114703254Y-113028383D01*
X114717409Y-113025037D01*
X114869760Y-112969737D01*
X114882759Y-112963227D01*
X114929915Y-112932311D01*
X114997851Y-112911688D01*
X115066151Y-112931068D01*
X115113132Y-112984298D01*
X115125000Y-113037683D01*
X115125000Y-113424000D01*
X115104998Y-113492121D01*
X115051342Y-113538614D01*
X114999000Y-113550000D01*
X112076937Y-113550000D01*
X112008816Y-113529998D01*
X111962323Y-113476342D01*
X111950940Y-113423067D01*
X111953756Y-113043000D01*
X111962203Y-111902547D01*
X113127000Y-111902547D01*
X113127000Y-112324222D01*
X113127424Y-112331523D01*
X113141617Y-112453254D01*
X113144963Y-112467409D01*
X113200263Y-112619760D01*
X113206773Y-112632759D01*
X113295641Y-112768307D01*
X113304965Y-112779458D01*
X113422629Y-112890922D01*
X113434276Y-112899635D01*
X113574429Y-112981043D01*
X113587754Y-112986837D01*
X113743700Y-113034068D01*
X113756323Y-113036516D01*
X113826184Y-113042751D01*
X113831779Y-113043000D01*
X113937885Y-113043000D01*
X113953124Y-113038525D01*
X113954329Y-113037135D01*
X113956000Y-113029452D01*
X113956001Y-111907115D01*
X113951526Y-111891876D01*
X113950136Y-111890671D01*
X113942453Y-111889000D01*
X113145115Y-111888999D01*
X113129876Y-111893474D01*
X113128671Y-111894864D01*
X113127000Y-111902547D01*
X111962203Y-111902547D01*
X111965521Y-111454659D01*
X111974074Y-110300067D01*
X111994581Y-110232096D01*
X112048579Y-110186002D01*
X112100071Y-110175000D01*
X113318454Y-110175000D01*
X113386575Y-110195002D01*
G37*
%TD.AperFunction*%
%TD*%
%TA.AperFunction,Conductor*%
%TO.N,+3V3*%
G36*
X113422494Y-106870002D02*
G01*
X113468987Y-106923658D01*
X113479091Y-106993932D01*
X113449597Y-107058512D01*
X113423458Y-107081372D01*
X113401695Y-107095641D01*
X113390543Y-107104965D01*
X113279079Y-107222629D01*
X113270366Y-107234276D01*
X113188959Y-107374427D01*
X113183162Y-107387759D01*
X113135933Y-107543697D01*
X113133484Y-107556323D01*
X113127249Y-107626184D01*
X113127000Y-107631779D01*
X113127000Y-108062885D01*
X113131475Y-108078124D01*
X113132865Y-108079329D01*
X113140548Y-108081000D01*
X114338000Y-108081001D01*
X114406121Y-108101003D01*
X114452614Y-108154659D01*
X114464000Y-108207001D01*
X114463999Y-108463000D01*
X114443997Y-108531121D01*
X114390341Y-108577614D01*
X114337999Y-108589000D01*
X113145115Y-108588999D01*
X113129876Y-108593474D01*
X113128671Y-108594864D01*
X113127000Y-108602547D01*
X113127000Y-109024222D01*
X113127424Y-109031523D01*
X113141617Y-109153254D01*
X113144963Y-109167409D01*
X113200263Y-109319760D01*
X113206773Y-109332759D01*
X113295641Y-109468307D01*
X113304965Y-109479458D01*
X113422629Y-109590922D01*
X113434279Y-109599638D01*
X113503847Y-109640046D01*
X113552706Y-109691557D01*
X113565960Y-109761305D01*
X113539400Y-109827147D01*
X113481461Y-109868178D01*
X113440562Y-109875000D01*
X112145101Y-109875000D01*
X112076980Y-109854998D01*
X112030487Y-109801342D01*
X112019105Y-109747959D01*
X112036640Y-107626184D01*
X112042022Y-106974958D01*
X112062587Y-106907006D01*
X112116625Y-106860958D01*
X112168018Y-106850000D01*
X113354373Y-106850000D01*
X113422494Y-106870002D01*
G37*
%TD.AperFunction*%
%TD*%
M02*
