%TF.GenerationSoftware,KiCad,Pcbnew,(5.99.0-7547-g7565f60a03)*%
%TF.CreationDate,2020-12-15T07:52:55+08:00*%
%TF.ProjectId,STM32F4_REV2,53544d33-3246-4345-9f52-4556322e6b69,rev?*%
%TF.SameCoordinates,Original*%
%TF.FileFunction,Legend,Top*%
%TF.FilePolarity,Positive*%
%FSLAX46Y46*%
G04 Gerber Fmt 4.6, Leading zero omitted, Abs format (unit mm)*
G04 Created by KiCad (PCBNEW (5.99.0-7547-g7565f60a03)) date 2020-12-15 07:52:55*
%MOMM*%
%LPD*%
G01*
G04 APERTURE LIST*
%ADD10C,0.150000*%
%ADD11C,0.120000*%
G04 APERTURE END LIST*
D10*
X109700000Y-72100000D02*
X109700000Y-72100000D01*
X109700000Y-72100000D02*
X109700000Y-72675000D01*
X109700000Y-72675000D02*
X109700000Y-72675000D01*
X109700000Y-72675000D02*
X109700000Y-72100000D01*
X110600000Y-73000000D02*
X109700000Y-72100000D01*
X94541063Y-89970000D02*
G75*
G03*
X94541063Y-89970000I-71063J0D01*
G01*
X109700000Y-73900000D02*
X110600000Y-73000000D01*
X108450000Y-73300000D02*
X109700000Y-73300000D01*
X109700000Y-72675000D02*
X108450000Y-72675000D01*
X120815139Y-104800000D02*
G75*
G03*
X120815139Y-104800000I-90139J0D01*
G01*
X108450000Y-72675000D02*
X108450000Y-73300000D01*
X109700000Y-73300000D02*
X109700000Y-73900000D01*
X132090139Y-85700000D02*
G75*
G03*
X132090139Y-85700000I-90139J0D01*
G01*
X134863095Y-77977380D02*
X134863095Y-78786904D01*
X134910714Y-78882142D01*
X134958333Y-78929761D01*
X135053571Y-78977380D01*
X135244047Y-78977380D01*
X135339285Y-78929761D01*
X135386904Y-78882142D01*
X135434523Y-78786904D01*
X135434523Y-77977380D01*
X135863095Y-78929761D02*
X136005952Y-78977380D01*
X136244047Y-78977380D01*
X136339285Y-78929761D01*
X136386904Y-78882142D01*
X136434523Y-78786904D01*
X136434523Y-78691666D01*
X136386904Y-78596428D01*
X136339285Y-78548809D01*
X136244047Y-78501190D01*
X136053571Y-78453571D01*
X135958333Y-78405952D01*
X135910714Y-78358333D01*
X135863095Y-78263095D01*
X135863095Y-78167857D01*
X135910714Y-78072619D01*
X135958333Y-78025000D01*
X136053571Y-77977380D01*
X136291666Y-77977380D01*
X136434523Y-78025000D01*
X137196428Y-78453571D02*
X137339285Y-78501190D01*
X137386904Y-78548809D01*
X137434523Y-78644047D01*
X137434523Y-78786904D01*
X137386904Y-78882142D01*
X137339285Y-78929761D01*
X137244047Y-78977380D01*
X136863095Y-78977380D01*
X136863095Y-77977380D01*
X137196428Y-77977380D01*
X137291666Y-78025000D01*
X137339285Y-78072619D01*
X137386904Y-78167857D01*
X137386904Y-78263095D01*
X137339285Y-78358333D01*
X137291666Y-78405952D01*
X137196428Y-78453571D01*
X136863095Y-78453571D01*
X108242857Y-120160714D02*
X108433333Y-120827380D01*
X108623809Y-120351190D01*
X108814285Y-120827380D01*
X109004761Y-120160714D01*
X109290476Y-120160714D02*
X109480952Y-120827380D01*
X109671428Y-120351190D01*
X109861904Y-120827380D01*
X110052380Y-120160714D01*
X110338095Y-120160714D02*
X110528571Y-120827380D01*
X110719047Y-120351190D01*
X110909523Y-120827380D01*
X111100000Y-120160714D01*
X111480952Y-120732142D02*
X111528571Y-120779761D01*
X111480952Y-120827380D01*
X111433333Y-120779761D01*
X111480952Y-120732142D01*
X111480952Y-120827380D01*
X111957142Y-120160714D02*
X111957142Y-120827380D01*
X111957142Y-120255952D02*
X112004761Y-120208333D01*
X112100000Y-120160714D01*
X112242857Y-120160714D01*
X112338095Y-120208333D01*
X112385714Y-120303571D01*
X112385714Y-120827380D01*
X113290476Y-120827380D02*
X113290476Y-120303571D01*
X113242857Y-120208333D01*
X113147619Y-120160714D01*
X112957142Y-120160714D01*
X112861904Y-120208333D01*
X113290476Y-120779761D02*
X113195238Y-120827380D01*
X112957142Y-120827380D01*
X112861904Y-120779761D01*
X112814285Y-120684523D01*
X112814285Y-120589285D01*
X112861904Y-120494047D01*
X112957142Y-120446428D01*
X113195238Y-120446428D01*
X113290476Y-120398809D01*
X113766666Y-120160714D02*
X113766666Y-120827380D01*
X113766666Y-120255952D02*
X113814285Y-120208333D01*
X113909523Y-120160714D01*
X114052380Y-120160714D01*
X114147619Y-120208333D01*
X114195238Y-120303571D01*
X114195238Y-120827380D01*
X114814285Y-120827380D02*
X114719047Y-120779761D01*
X114671428Y-120732142D01*
X114623809Y-120636904D01*
X114623809Y-120351190D01*
X114671428Y-120255952D01*
X114719047Y-120208333D01*
X114814285Y-120160714D01*
X114957142Y-120160714D01*
X115052380Y-120208333D01*
X115100000Y-120255952D01*
X115147619Y-120351190D01*
X115147619Y-120636904D01*
X115100000Y-120732142D01*
X115052380Y-120779761D01*
X114957142Y-120827380D01*
X114814285Y-120827380D01*
X115528571Y-120779761D02*
X115623809Y-120827380D01*
X115814285Y-120827380D01*
X115909523Y-120779761D01*
X115957142Y-120684523D01*
X115957142Y-120636904D01*
X115909523Y-120541666D01*
X115814285Y-120494047D01*
X115671428Y-120494047D01*
X115576190Y-120446428D01*
X115528571Y-120351190D01*
X115528571Y-120303571D01*
X115576190Y-120208333D01*
X115671428Y-120160714D01*
X115814285Y-120160714D01*
X115909523Y-120208333D01*
X116528571Y-120827380D02*
X116433333Y-120779761D01*
X116385714Y-120732142D01*
X116338095Y-120636904D01*
X116338095Y-120351190D01*
X116385714Y-120255952D01*
X116433333Y-120208333D01*
X116528571Y-120160714D01*
X116671428Y-120160714D01*
X116766666Y-120208333D01*
X116814285Y-120255952D01*
X116861904Y-120351190D01*
X116861904Y-120636904D01*
X116814285Y-120732142D01*
X116766666Y-120779761D01*
X116671428Y-120827380D01*
X116528571Y-120827380D01*
X117147619Y-120160714D02*
X117528571Y-120160714D01*
X117290476Y-120827380D02*
X117290476Y-119970238D01*
X117338095Y-119875000D01*
X117433333Y-119827380D01*
X117528571Y-119827380D01*
X117719047Y-120160714D02*
X118100000Y-120160714D01*
X117861904Y-119827380D02*
X117861904Y-120684523D01*
X117909523Y-120779761D01*
X118004761Y-120827380D01*
X118100000Y-120827380D01*
X118433333Y-120732142D02*
X118480952Y-120779761D01*
X118433333Y-120827380D01*
X118385714Y-120779761D01*
X118433333Y-120732142D01*
X118433333Y-120827380D01*
X119338095Y-120779761D02*
X119242857Y-120827380D01*
X119052380Y-120827380D01*
X118957142Y-120779761D01*
X118909523Y-120732142D01*
X118861904Y-120636904D01*
X118861904Y-120351190D01*
X118909523Y-120255952D01*
X118957142Y-120208333D01*
X119052380Y-120160714D01*
X119242857Y-120160714D01*
X119338095Y-120208333D01*
X119909523Y-120827380D02*
X119814285Y-120779761D01*
X119766666Y-120732142D01*
X119719047Y-120636904D01*
X119719047Y-120351190D01*
X119766666Y-120255952D01*
X119814285Y-120208333D01*
X119909523Y-120160714D01*
X120052380Y-120160714D01*
X120147619Y-120208333D01*
X120195238Y-120255952D01*
X120242857Y-120351190D01*
X120242857Y-120636904D01*
X120195238Y-120732142D01*
X120147619Y-120779761D01*
X120052380Y-120827380D01*
X119909523Y-120827380D01*
X120671428Y-120827380D02*
X120671428Y-120160714D01*
X120671428Y-120255952D02*
X120719047Y-120208333D01*
X120814285Y-120160714D01*
X120957142Y-120160714D01*
X121052380Y-120208333D01*
X121100000Y-120303571D01*
X121100000Y-120827380D01*
X121100000Y-120303571D02*
X121147619Y-120208333D01*
X121242857Y-120160714D01*
X121385714Y-120160714D01*
X121480952Y-120208333D01*
X121528571Y-120303571D01*
X121528571Y-120827380D01*
X122004761Y-120732142D02*
X122052380Y-120779761D01*
X122004761Y-120827380D01*
X121957142Y-120779761D01*
X122004761Y-120732142D01*
X122004761Y-120827380D01*
X122909523Y-120827380D02*
X122909523Y-120303571D01*
X122861904Y-120208333D01*
X122766666Y-120160714D01*
X122576190Y-120160714D01*
X122480952Y-120208333D01*
X122909523Y-120779761D02*
X122814285Y-120827380D01*
X122576190Y-120827380D01*
X122480952Y-120779761D01*
X122433333Y-120684523D01*
X122433333Y-120589285D01*
X122480952Y-120494047D01*
X122576190Y-120446428D01*
X122814285Y-120446428D01*
X122909523Y-120398809D01*
X123814285Y-120160714D02*
X123814285Y-120827380D01*
X123385714Y-120160714D02*
X123385714Y-120684523D01*
X123433333Y-120779761D01*
X123528571Y-120827380D01*
X123671428Y-120827380D01*
X123766666Y-120779761D01*
X123814285Y-120732142D01*
X125004761Y-119779761D02*
X124147619Y-121065476D01*
X125766666Y-120827380D02*
X125766666Y-119827380D01*
X125766666Y-120779761D02*
X125671428Y-120827380D01*
X125480952Y-120827380D01*
X125385714Y-120779761D01*
X125338095Y-120732142D01*
X125290476Y-120636904D01*
X125290476Y-120351190D01*
X125338095Y-120255952D01*
X125385714Y-120208333D01*
X125480952Y-120160714D01*
X125671428Y-120160714D01*
X125766666Y-120208333D01*
X126623809Y-120779761D02*
X126528571Y-120827380D01*
X126338095Y-120827380D01*
X126242857Y-120779761D01*
X126195238Y-120684523D01*
X126195238Y-120303571D01*
X126242857Y-120208333D01*
X126338095Y-120160714D01*
X126528571Y-120160714D01*
X126623809Y-120208333D01*
X126671428Y-120303571D01*
X126671428Y-120398809D01*
X126195238Y-120494047D01*
X127004761Y-120160714D02*
X127242857Y-120827380D01*
X127480952Y-120160714D01*
X128242857Y-120779761D02*
X128147619Y-120827380D01*
X127957142Y-120827380D01*
X127861904Y-120779761D01*
X127814285Y-120684523D01*
X127814285Y-120303571D01*
X127861904Y-120208333D01*
X127957142Y-120160714D01*
X128147619Y-120160714D01*
X128242857Y-120208333D01*
X128290476Y-120303571D01*
X128290476Y-120398809D01*
X127814285Y-120494047D01*
X128861904Y-120827380D02*
X128766666Y-120779761D01*
X128719047Y-120684523D01*
X128719047Y-119827380D01*
X129385714Y-120827380D02*
X129290476Y-120779761D01*
X129242857Y-120732142D01*
X129195238Y-120636904D01*
X129195238Y-120351190D01*
X129242857Y-120255952D01*
X129290476Y-120208333D01*
X129385714Y-120160714D01*
X129528571Y-120160714D01*
X129623809Y-120208333D01*
X129671428Y-120255952D01*
X129719047Y-120351190D01*
X129719047Y-120636904D01*
X129671428Y-120732142D01*
X129623809Y-120779761D01*
X129528571Y-120827380D01*
X129385714Y-120827380D01*
X130147619Y-120160714D02*
X130147619Y-121160714D01*
X130147619Y-120208333D02*
X130242857Y-120160714D01*
X130433333Y-120160714D01*
X130528571Y-120208333D01*
X130576190Y-120255952D01*
X130623809Y-120351190D01*
X130623809Y-120636904D01*
X130576190Y-120732142D01*
X130528571Y-120779761D01*
X130433333Y-120827380D01*
X130242857Y-120827380D01*
X130147619Y-120779761D01*
X131433333Y-120779761D02*
X131338095Y-120827380D01*
X131147619Y-120827380D01*
X131052380Y-120779761D01*
X131004761Y-120684523D01*
X131004761Y-120303571D01*
X131052380Y-120208333D01*
X131147619Y-120160714D01*
X131338095Y-120160714D01*
X131433333Y-120208333D01*
X131480952Y-120303571D01*
X131480952Y-120398809D01*
X131004761Y-120494047D01*
X131909523Y-120827380D02*
X131909523Y-120160714D01*
X131909523Y-120351190D02*
X131957142Y-120255952D01*
X132004761Y-120208333D01*
X132100000Y-120160714D01*
X132195238Y-120160714D01*
X132480952Y-120779761D02*
X132576190Y-120827380D01*
X132766666Y-120827380D01*
X132861904Y-120779761D01*
X132909523Y-120684523D01*
X132909523Y-120636904D01*
X132861904Y-120541666D01*
X132766666Y-120494047D01*
X132623809Y-120494047D01*
X132528571Y-120446428D01*
X132480952Y-120351190D01*
X132480952Y-120303571D01*
X132528571Y-120208333D01*
X132623809Y-120160714D01*
X132766666Y-120160714D01*
X132861904Y-120208333D01*
X105154761Y-113777380D02*
X105154761Y-114586904D01*
X105202380Y-114682142D01*
X105250000Y-114729761D01*
X105345238Y-114777380D01*
X105535714Y-114777380D01*
X105630952Y-114729761D01*
X105678571Y-114682142D01*
X105726190Y-114586904D01*
X105726190Y-113777380D01*
X106154761Y-114491666D02*
X106630952Y-114491666D01*
X106059523Y-114777380D02*
X106392857Y-113777380D01*
X106726190Y-114777380D01*
X107630952Y-114777380D02*
X107297619Y-114301190D01*
X107059523Y-114777380D02*
X107059523Y-113777380D01*
X107440476Y-113777380D01*
X107535714Y-113825000D01*
X107583333Y-113872619D01*
X107630952Y-113967857D01*
X107630952Y-114110714D01*
X107583333Y-114205952D01*
X107535714Y-114253571D01*
X107440476Y-114301190D01*
X107059523Y-114301190D01*
X107916666Y-113777380D02*
X108488095Y-113777380D01*
X108202380Y-114777380D02*
X108202380Y-113777380D01*
X89717857Y-78003571D02*
X89860714Y-78051190D01*
X89908333Y-78098809D01*
X89955952Y-78194047D01*
X89955952Y-78336904D01*
X89908333Y-78432142D01*
X89860714Y-78479761D01*
X89765476Y-78527380D01*
X89384523Y-78527380D01*
X89384523Y-77527380D01*
X89717857Y-77527380D01*
X89813095Y-77575000D01*
X89860714Y-77622619D01*
X89908333Y-77717857D01*
X89908333Y-77813095D01*
X89860714Y-77908333D01*
X89813095Y-77955952D01*
X89717857Y-78003571D01*
X89384523Y-78003571D01*
X90575000Y-77527380D02*
X90765476Y-77527380D01*
X90860714Y-77575000D01*
X90955952Y-77670238D01*
X91003571Y-77860714D01*
X91003571Y-78194047D01*
X90955952Y-78384523D01*
X90860714Y-78479761D01*
X90765476Y-78527380D01*
X90575000Y-78527380D01*
X90479761Y-78479761D01*
X90384523Y-78384523D01*
X90336904Y-78194047D01*
X90336904Y-77860714D01*
X90384523Y-77670238D01*
X90479761Y-77575000D01*
X90575000Y-77527380D01*
X91622619Y-77527380D02*
X91813095Y-77527380D01*
X91908333Y-77575000D01*
X92003571Y-77670238D01*
X92051190Y-77860714D01*
X92051190Y-78194047D01*
X92003571Y-78384523D01*
X91908333Y-78479761D01*
X91813095Y-78527380D01*
X91622619Y-78527380D01*
X91527380Y-78479761D01*
X91432142Y-78384523D01*
X91384523Y-78194047D01*
X91384523Y-77860714D01*
X91432142Y-77670238D01*
X91527380Y-77575000D01*
X91622619Y-77527380D01*
X92336904Y-77527380D02*
X92908333Y-77527380D01*
X92622619Y-78527380D02*
X92622619Y-77527380D01*
X103398809Y-74177380D02*
X103398809Y-73177380D01*
X103827380Y-73272619D02*
X103875000Y-73225000D01*
X103970238Y-73177380D01*
X104208333Y-73177380D01*
X104303571Y-73225000D01*
X104351190Y-73272619D01*
X104398809Y-73367857D01*
X104398809Y-73463095D01*
X104351190Y-73605952D01*
X103779761Y-74177380D01*
X104398809Y-74177380D01*
X105398809Y-74082142D02*
X105351190Y-74129761D01*
X105208333Y-74177380D01*
X105113095Y-74177380D01*
X104970238Y-74129761D01*
X104875000Y-74034523D01*
X104827380Y-73939285D01*
X104779761Y-73748809D01*
X104779761Y-73605952D01*
X104827380Y-73415476D01*
X104875000Y-73320238D01*
X104970238Y-73225000D01*
X105113095Y-73177380D01*
X105208333Y-73177380D01*
X105351190Y-73225000D01*
X105398809Y-73272619D01*
X119617857Y-69899761D02*
X119760714Y-69947380D01*
X119998809Y-69947380D01*
X120094047Y-69899761D01*
X120141666Y-69852142D01*
X120189285Y-69756904D01*
X120189285Y-69661666D01*
X120141666Y-69566428D01*
X120094047Y-69518809D01*
X119998809Y-69471190D01*
X119808333Y-69423571D01*
X119713095Y-69375952D01*
X119665476Y-69328333D01*
X119617857Y-69233095D01*
X119617857Y-69137857D01*
X119665476Y-69042619D01*
X119713095Y-68995000D01*
X119808333Y-68947380D01*
X120046428Y-68947380D01*
X120189285Y-68995000D01*
X120522619Y-68947380D02*
X120760714Y-69947380D01*
X120951190Y-69233095D01*
X121141666Y-69947380D01*
X121379761Y-68947380D01*
X121760714Y-69947380D02*
X121760714Y-68947380D01*
X121998809Y-68947380D01*
X122141666Y-68995000D01*
X122236904Y-69090238D01*
X122284523Y-69185476D01*
X122332142Y-69375952D01*
X122332142Y-69518809D01*
X122284523Y-69709285D01*
X122236904Y-69804523D01*
X122141666Y-69899761D01*
X121998809Y-69947380D01*
X121760714Y-69947380D01*
X118594047Y-71938333D02*
X118546428Y-71890714D01*
X118451190Y-71747857D01*
X118403571Y-71652619D01*
X118355952Y-71509761D01*
X118308333Y-71271666D01*
X118308333Y-71081190D01*
X118355952Y-70843095D01*
X118403571Y-70700238D01*
X118451190Y-70605000D01*
X118546428Y-70462142D01*
X118594047Y-70414523D01*
X119403571Y-71557380D02*
X119403571Y-70557380D01*
X119403571Y-71509761D02*
X119308333Y-71557380D01*
X119117857Y-71557380D01*
X119022619Y-71509761D01*
X118975000Y-71462142D01*
X118927380Y-71366904D01*
X118927380Y-71081190D01*
X118975000Y-70985952D01*
X119022619Y-70938333D01*
X119117857Y-70890714D01*
X119308333Y-70890714D01*
X119403571Y-70938333D01*
X120260714Y-71509761D02*
X120165476Y-71557380D01*
X119975000Y-71557380D01*
X119879761Y-71509761D01*
X119832142Y-71414523D01*
X119832142Y-71033571D01*
X119879761Y-70938333D01*
X119975000Y-70890714D01*
X120165476Y-70890714D01*
X120260714Y-70938333D01*
X120308333Y-71033571D01*
X120308333Y-71128809D01*
X119832142Y-71224047D01*
X120736904Y-71557380D02*
X120736904Y-70557380D01*
X120736904Y-70938333D02*
X120832142Y-70890714D01*
X121022619Y-70890714D01*
X121117857Y-70938333D01*
X121165476Y-70985952D01*
X121213095Y-71081190D01*
X121213095Y-71366904D01*
X121165476Y-71462142D01*
X121117857Y-71509761D01*
X121022619Y-71557380D01*
X120832142Y-71557380D01*
X120736904Y-71509761D01*
X122070238Y-70890714D02*
X122070238Y-71557380D01*
X121641666Y-70890714D02*
X121641666Y-71414523D01*
X121689285Y-71509761D01*
X121784523Y-71557380D01*
X121927380Y-71557380D01*
X122022619Y-71509761D01*
X122070238Y-71462142D01*
X122975000Y-70890714D02*
X122975000Y-71700238D01*
X122927380Y-71795476D01*
X122879761Y-71843095D01*
X122784523Y-71890714D01*
X122641666Y-71890714D01*
X122546428Y-71843095D01*
X122975000Y-71509761D02*
X122879761Y-71557380D01*
X122689285Y-71557380D01*
X122594047Y-71509761D01*
X122546428Y-71462142D01*
X122498809Y-71366904D01*
X122498809Y-71081190D01*
X122546428Y-70985952D01*
X122594047Y-70938333D01*
X122689285Y-70890714D01*
X122879761Y-70890714D01*
X122975000Y-70938333D01*
X123355952Y-71938333D02*
X123403571Y-71890714D01*
X123498809Y-71747857D01*
X123546428Y-71652619D01*
X123594047Y-71509761D01*
X123641666Y-71271666D01*
X123641666Y-71081190D01*
X123594047Y-70843095D01*
X123546428Y-70700238D01*
X123498809Y-70605000D01*
X123403571Y-70462142D01*
X123355952Y-70414523D01*
X133615476Y-99727380D02*
X133615476Y-98727380D01*
X133996428Y-98727380D01*
X134091666Y-98775000D01*
X134139285Y-98822619D01*
X134186904Y-98917857D01*
X134186904Y-99060714D01*
X134139285Y-99155952D01*
X134091666Y-99203571D01*
X133996428Y-99251190D01*
X133615476Y-99251190D01*
X134805952Y-98727380D02*
X134996428Y-98727380D01*
X135091666Y-98775000D01*
X135186904Y-98870238D01*
X135234523Y-99060714D01*
X135234523Y-99394047D01*
X135186904Y-99584523D01*
X135091666Y-99679761D01*
X134996428Y-99727380D01*
X134805952Y-99727380D01*
X134710714Y-99679761D01*
X134615476Y-99584523D01*
X134567857Y-99394047D01*
X134567857Y-99060714D01*
X134615476Y-98870238D01*
X134710714Y-98775000D01*
X134805952Y-98727380D01*
X135567857Y-98727380D02*
X135805952Y-99727380D01*
X135996428Y-99013095D01*
X136186904Y-99727380D01*
X136425000Y-98727380D01*
X136805952Y-99203571D02*
X137139285Y-99203571D01*
X137282142Y-99727380D02*
X136805952Y-99727380D01*
X136805952Y-98727380D01*
X137282142Y-98727380D01*
X138282142Y-99727380D02*
X137948809Y-99251190D01*
X137710714Y-99727380D02*
X137710714Y-98727380D01*
X138091666Y-98727380D01*
X138186904Y-98775000D01*
X138234523Y-98822619D01*
X138282142Y-98917857D01*
X138282142Y-99060714D01*
X138234523Y-99155952D01*
X138186904Y-99203571D01*
X138091666Y-99251190D01*
X137710714Y-99251190D01*
X90461904Y-84952380D02*
X90128571Y-84476190D01*
X89890476Y-84952380D02*
X89890476Y-83952380D01*
X90271428Y-83952380D01*
X90366666Y-84000000D01*
X90414285Y-84047619D01*
X90461904Y-84142857D01*
X90461904Y-84285714D01*
X90414285Y-84380952D01*
X90366666Y-84428571D01*
X90271428Y-84476190D01*
X89890476Y-84476190D01*
X90890476Y-83952380D02*
X90890476Y-84761904D01*
X90938095Y-84857142D01*
X90985714Y-84904761D01*
X91080952Y-84952380D01*
X91271428Y-84952380D01*
X91366666Y-84904761D01*
X91414285Y-84857142D01*
X91461904Y-84761904D01*
X91461904Y-83952380D01*
X91938095Y-84952380D02*
X91938095Y-83952380D01*
X92509523Y-84952380D01*
X92509523Y-83952380D01*
X111131071Y-81349761D02*
X111245357Y-81397380D01*
X111435833Y-81397380D01*
X111512023Y-81349761D01*
X111550119Y-81302142D01*
X111588214Y-81206904D01*
X111588214Y-81111666D01*
X111550119Y-81016428D01*
X111512023Y-80968809D01*
X111435833Y-80921190D01*
X111283452Y-80873571D01*
X111207261Y-80825952D01*
X111169166Y-80778333D01*
X111131071Y-80683095D01*
X111131071Y-80587857D01*
X111169166Y-80492619D01*
X111207261Y-80445000D01*
X111283452Y-80397380D01*
X111473928Y-80397380D01*
X111588214Y-80445000D01*
X111931071Y-81397380D02*
X111931071Y-80397380D01*
X112197738Y-81111666D01*
X112464404Y-80397380D01*
X112464404Y-81397380D01*
X112731071Y-80397380D02*
X113188214Y-80397380D01*
X112959642Y-81397380D02*
X112959642Y-80397380D01*
X113378690Y-80397380D02*
X113873928Y-80397380D01*
X113607261Y-80778333D01*
X113721547Y-80778333D01*
X113797738Y-80825952D01*
X113835833Y-80873571D01*
X113873928Y-80968809D01*
X113873928Y-81206904D01*
X113835833Y-81302142D01*
X113797738Y-81349761D01*
X113721547Y-81397380D01*
X113492976Y-81397380D01*
X113416785Y-81349761D01*
X113378690Y-81302142D01*
X114178690Y-80492619D02*
X114216785Y-80445000D01*
X114292976Y-80397380D01*
X114483452Y-80397380D01*
X114559642Y-80445000D01*
X114597738Y-80492619D01*
X114635833Y-80587857D01*
X114635833Y-80683095D01*
X114597738Y-80825952D01*
X114140595Y-81397380D01*
X114635833Y-81397380D01*
X115931071Y-81397380D02*
X115931071Y-80397380D01*
X115931071Y-81349761D02*
X115854880Y-81397380D01*
X115702500Y-81397380D01*
X115626309Y-81349761D01*
X115588214Y-81302142D01*
X115550119Y-81206904D01*
X115550119Y-80921190D01*
X115588214Y-80825952D01*
X115626309Y-80778333D01*
X115702500Y-80730714D01*
X115854880Y-80730714D01*
X115931071Y-80778333D01*
X116616785Y-81349761D02*
X116540595Y-81397380D01*
X116388214Y-81397380D01*
X116312023Y-81349761D01*
X116273928Y-81254523D01*
X116273928Y-80873571D01*
X116312023Y-80778333D01*
X116388214Y-80730714D01*
X116540595Y-80730714D01*
X116616785Y-80778333D01*
X116654880Y-80873571D01*
X116654880Y-80968809D01*
X116273928Y-81064047D01*
X116921547Y-80730714D02*
X117112023Y-81397380D01*
X117302500Y-80730714D01*
X117912023Y-81349761D02*
X117835833Y-81397380D01*
X117683452Y-81397380D01*
X117607261Y-81349761D01*
X117569166Y-81254523D01*
X117569166Y-80873571D01*
X117607261Y-80778333D01*
X117683452Y-80730714D01*
X117835833Y-80730714D01*
X117912023Y-80778333D01*
X117950119Y-80873571D01*
X117950119Y-80968809D01*
X117569166Y-81064047D01*
X118407261Y-81397380D02*
X118331071Y-81349761D01*
X118292976Y-81254523D01*
X118292976Y-80397380D01*
X118826309Y-81397380D02*
X118750119Y-81349761D01*
X118712023Y-81302142D01*
X118673928Y-81206904D01*
X118673928Y-80921190D01*
X118712023Y-80825952D01*
X118750119Y-80778333D01*
X118826309Y-80730714D01*
X118940595Y-80730714D01*
X119016785Y-80778333D01*
X119054880Y-80825952D01*
X119092976Y-80921190D01*
X119092976Y-81206904D01*
X119054880Y-81302142D01*
X119016785Y-81349761D01*
X118940595Y-81397380D01*
X118826309Y-81397380D01*
X119435833Y-80730714D02*
X119435833Y-81730714D01*
X119435833Y-80778333D02*
X119512023Y-80730714D01*
X119664404Y-80730714D01*
X119740595Y-80778333D01*
X119778690Y-80825952D01*
X119816785Y-80921190D01*
X119816785Y-81206904D01*
X119778690Y-81302142D01*
X119740595Y-81349761D01*
X119664404Y-81397380D01*
X119512023Y-81397380D01*
X119435833Y-81349761D01*
X120159642Y-81397380D02*
X120159642Y-80730714D01*
X120159642Y-80825952D02*
X120197738Y-80778333D01*
X120273928Y-80730714D01*
X120388214Y-80730714D01*
X120464404Y-80778333D01*
X120502500Y-80873571D01*
X120502500Y-81397380D01*
X120502500Y-80873571D02*
X120540595Y-80778333D01*
X120616785Y-80730714D01*
X120731071Y-80730714D01*
X120807261Y-80778333D01*
X120845357Y-80873571D01*
X120845357Y-81397380D01*
X121531071Y-81349761D02*
X121454880Y-81397380D01*
X121302500Y-81397380D01*
X121226309Y-81349761D01*
X121188214Y-81254523D01*
X121188214Y-80873571D01*
X121226309Y-80778333D01*
X121302500Y-80730714D01*
X121454880Y-80730714D01*
X121531071Y-80778333D01*
X121569166Y-80873571D01*
X121569166Y-80968809D01*
X121188214Y-81064047D01*
X121912023Y-80730714D02*
X121912023Y-81397380D01*
X121912023Y-80825952D02*
X121950119Y-80778333D01*
X122026309Y-80730714D01*
X122140595Y-80730714D01*
X122216785Y-80778333D01*
X122254880Y-80873571D01*
X122254880Y-81397380D01*
X122521547Y-80730714D02*
X122826309Y-80730714D01*
X122635833Y-80397380D02*
X122635833Y-81254523D01*
X122673928Y-81349761D01*
X122750119Y-81397380D01*
X122826309Y-81397380D01*
X123702500Y-81397380D02*
X123702500Y-80397380D01*
X123702500Y-80778333D02*
X123778690Y-80730714D01*
X123931071Y-80730714D01*
X124007261Y-80778333D01*
X124045357Y-80825952D01*
X124083452Y-80921190D01*
X124083452Y-81206904D01*
X124045357Y-81302142D01*
X124007261Y-81349761D01*
X123931071Y-81397380D01*
X123778690Y-81397380D01*
X123702500Y-81349761D01*
X124540595Y-81397380D02*
X124464404Y-81349761D01*
X124426309Y-81302142D01*
X124388214Y-81206904D01*
X124388214Y-80921190D01*
X124426309Y-80825952D01*
X124464404Y-80778333D01*
X124540595Y-80730714D01*
X124654880Y-80730714D01*
X124731071Y-80778333D01*
X124769166Y-80825952D01*
X124807261Y-80921190D01*
X124807261Y-81206904D01*
X124769166Y-81302142D01*
X124731071Y-81349761D01*
X124654880Y-81397380D01*
X124540595Y-81397380D01*
X125492976Y-81397380D02*
X125492976Y-80873571D01*
X125454880Y-80778333D01*
X125378690Y-80730714D01*
X125226309Y-80730714D01*
X125150119Y-80778333D01*
X125492976Y-81349761D02*
X125416785Y-81397380D01*
X125226309Y-81397380D01*
X125150119Y-81349761D01*
X125112023Y-81254523D01*
X125112023Y-81159285D01*
X125150119Y-81064047D01*
X125226309Y-81016428D01*
X125416785Y-81016428D01*
X125492976Y-80968809D01*
X125873928Y-81397380D02*
X125873928Y-80730714D01*
X125873928Y-80921190D02*
X125912023Y-80825952D01*
X125950119Y-80778333D01*
X126026309Y-80730714D01*
X126102500Y-80730714D01*
X126712023Y-81397380D02*
X126712023Y-80397380D01*
X126712023Y-81349761D02*
X126635833Y-81397380D01*
X126483452Y-81397380D01*
X126407261Y-81349761D01*
X126369166Y-81302142D01*
X126331071Y-81206904D01*
X126331071Y-80921190D01*
X126369166Y-80825952D01*
X126407261Y-80778333D01*
X126483452Y-80730714D01*
X126635833Y-80730714D01*
X126712023Y-80778333D01*
X122826309Y-83007380D02*
X122559642Y-82531190D01*
X122369166Y-83007380D02*
X122369166Y-82007380D01*
X122673928Y-82007380D01*
X122750119Y-82055000D01*
X122788214Y-82102619D01*
X122826309Y-82197857D01*
X122826309Y-82340714D01*
X122788214Y-82435952D01*
X122750119Y-82483571D01*
X122673928Y-82531190D01*
X122369166Y-82531190D01*
X123169166Y-82483571D02*
X123435833Y-82483571D01*
X123550119Y-83007380D02*
X123169166Y-83007380D01*
X123169166Y-82007380D01*
X123550119Y-82007380D01*
X123778690Y-82007380D02*
X124045357Y-83007380D01*
X124312023Y-82007380D01*
X125607261Y-83007380D02*
X125150119Y-83007380D01*
X125378690Y-83007380D02*
X125378690Y-82007380D01*
X125302500Y-82150238D01*
X125226309Y-82245476D01*
X125150119Y-82293095D01*
X125950119Y-82912142D02*
X125988214Y-82959761D01*
X125950119Y-83007380D01*
X125912023Y-82959761D01*
X125950119Y-82912142D01*
X125950119Y-83007380D01*
X126483452Y-82007380D02*
X126559642Y-82007380D01*
X126635833Y-82055000D01*
X126673928Y-82102619D01*
X126712023Y-82197857D01*
X126750119Y-82388333D01*
X126750119Y-82626428D01*
X126712023Y-82816904D01*
X126673928Y-82912142D01*
X126635833Y-82959761D01*
X126559642Y-83007380D01*
X126483452Y-83007380D01*
X126407261Y-82959761D01*
X126369166Y-82912142D01*
X126331071Y-82816904D01*
X126292976Y-82626428D01*
X126292976Y-82388333D01*
X126331071Y-82197857D01*
X126369166Y-82102619D01*
X126407261Y-82055000D01*
X126483452Y-82007380D01*
X97654761Y-93877380D02*
X97654761Y-94591666D01*
X97616666Y-94734523D01*
X97540476Y-94829761D01*
X97426190Y-94877380D01*
X97350000Y-94877380D01*
X98416666Y-94877380D02*
X98035714Y-94877380D01*
X98035714Y-93877380D01*
X99140476Y-94782142D02*
X99102380Y-94829761D01*
X98988095Y-94877380D01*
X98911904Y-94877380D01*
X98797619Y-94829761D01*
X98721428Y-94734523D01*
X98683333Y-94639285D01*
X98645238Y-94448809D01*
X98645238Y-94305952D01*
X98683333Y-94115476D01*
X98721428Y-94020238D01*
X98797619Y-93925000D01*
X98911904Y-93877380D01*
X98988095Y-93877380D01*
X99102380Y-93925000D01*
X99140476Y-93972619D01*
X99711904Y-93877380D02*
X99711904Y-94591666D01*
X99673809Y-94734523D01*
X99597619Y-94829761D01*
X99483333Y-94877380D01*
X99407142Y-94877380D01*
X100473809Y-94877380D02*
X100092857Y-94877380D01*
X100092857Y-93877380D01*
X101197619Y-94782142D02*
X101159523Y-94829761D01*
X101045238Y-94877380D01*
X100969047Y-94877380D01*
X100854761Y-94829761D01*
X100778571Y-94734523D01*
X100740476Y-94639285D01*
X100702380Y-94448809D01*
X100702380Y-94305952D01*
X100740476Y-94115476D01*
X100778571Y-94020238D01*
X100854761Y-93925000D01*
X100969047Y-93877380D01*
X101045238Y-93877380D01*
X101159523Y-93925000D01*
X101197619Y-93972619D01*
X101769047Y-93877380D02*
X101769047Y-94591666D01*
X101730952Y-94734523D01*
X101654761Y-94829761D01*
X101540476Y-94877380D01*
X101464285Y-94877380D01*
X102530952Y-94877380D02*
X102150000Y-94877380D01*
X102150000Y-93877380D01*
X103254761Y-94782142D02*
X103216666Y-94829761D01*
X103102380Y-94877380D01*
X103026190Y-94877380D01*
X102911904Y-94829761D01*
X102835714Y-94734523D01*
X102797619Y-94639285D01*
X102759523Y-94448809D01*
X102759523Y-94305952D01*
X102797619Y-94115476D01*
X102835714Y-94020238D01*
X102911904Y-93925000D01*
X103026190Y-93877380D01*
X103102380Y-93877380D01*
X103216666Y-93925000D01*
X103254761Y-93972619D01*
X103826190Y-93877380D02*
X103826190Y-94591666D01*
X103788095Y-94734523D01*
X103711904Y-94829761D01*
X103597619Y-94877380D01*
X103521428Y-94877380D01*
X104588095Y-94877380D02*
X104207142Y-94877380D01*
X104207142Y-93877380D01*
X105311904Y-94782142D02*
X105273809Y-94829761D01*
X105159523Y-94877380D01*
X105083333Y-94877380D01*
X104969047Y-94829761D01*
X104892857Y-94734523D01*
X104854761Y-94639285D01*
X104816666Y-94448809D01*
X104816666Y-94305952D01*
X104854761Y-94115476D01*
X104892857Y-94020238D01*
X104969047Y-93925000D01*
X105083333Y-93877380D01*
X105159523Y-93877380D01*
X105273809Y-93925000D01*
X105311904Y-93972619D01*
X134594047Y-108371428D02*
X135355952Y-108371428D01*
X134975000Y-108752380D02*
X134975000Y-107990476D01*
D11*
%TO.C,C10*%
X96107836Y-85215000D02*
X95892164Y-85215000D01*
X96107836Y-85935000D02*
X95892164Y-85935000D01*
%TO.C,J2*%
X117420000Y-68785000D02*
X117485000Y-68785000D01*
X117420000Y-72315000D02*
X117485000Y-72315000D01*
X111015000Y-68785000D02*
X111080000Y-68785000D01*
X111015000Y-72315000D02*
X111080000Y-72315000D01*
X111080000Y-73640000D02*
X111080000Y-72315000D01*
X117485000Y-72315000D02*
X117485000Y-68785000D01*
X111015000Y-72315000D02*
X111015000Y-68785000D01*
%TO.C,F1*%
X124452064Y-90740000D02*
X123247936Y-90740000D01*
X124452064Y-92560000D02*
X123247936Y-92560000D01*
%TO.C,J5*%
X140095000Y-88005000D02*
X137295000Y-88005000D01*
X137295000Y-88305000D02*
X135745000Y-88305000D01*
X134495000Y-85455000D02*
X134045000Y-85855000D01*
X137295000Y-88305000D02*
X137295000Y-88005000D01*
X137295000Y-80305000D02*
X137295000Y-80005000D01*
X134045000Y-85855000D02*
X134045000Y-85055000D01*
X137295000Y-80005000D02*
X135745000Y-80005000D01*
X134045000Y-85055000D02*
X134495000Y-85455000D01*
X140095000Y-80305000D02*
X137295000Y-80305000D01*
%TO.C,R3*%
X129077500Y-103962742D02*
X129077500Y-104437258D01*
X130122500Y-103962742D02*
X130122500Y-104437258D01*
%TO.C,C7*%
X98385163Y-100815507D02*
X98169491Y-100815507D01*
X98385163Y-101535507D02*
X98169491Y-101535507D01*
%TO.C,C12*%
X92990000Y-96390580D02*
X92990000Y-96109420D01*
X94010000Y-96390580D02*
X94010000Y-96109420D01*
%TO.C,L1*%
X116875000Y-105275000D02*
X115725000Y-105275000D01*
X111475000Y-99675000D02*
X111475000Y-105275000D01*
X116875000Y-99675000D02*
X115725000Y-99675000D01*
X111475000Y-105275000D02*
X112625000Y-105275000D01*
X111475000Y-99675000D02*
X112625000Y-99675000D01*
X116875000Y-99675000D02*
X116875000Y-105275000D01*
%TO.C,R5*%
X128252500Y-104002742D02*
X128252500Y-104477258D01*
X127207500Y-104002742D02*
X127207500Y-104477258D01*
%TO.C,R9*%
X90477500Y-101762742D02*
X90477500Y-102237258D01*
X91522500Y-101762742D02*
X91522500Y-102237258D01*
%TO.C,C15*%
X89142164Y-89610000D02*
X89357836Y-89610000D01*
X89142164Y-88890000D02*
X89357836Y-88890000D01*
%TO.C,U2*%
X106360000Y-88640000D02*
X106360000Y-89590000D01*
X105410000Y-88640000D02*
X106360000Y-88640000D01*
X106360000Y-98860000D02*
X106360000Y-97910000D01*
X105410000Y-98860000D02*
X106360000Y-98860000D01*
X97090000Y-98860000D02*
X96140000Y-98860000D01*
X96140000Y-88640000D02*
X96140000Y-89590000D01*
X96140000Y-98860000D02*
X96140000Y-97910000D01*
X96140000Y-89590000D02*
X94800000Y-89590000D01*
X97090000Y-88640000D02*
X96140000Y-88640000D01*
%TO.C,C11*%
X92260000Y-96390580D02*
X92260000Y-96109420D01*
X91240000Y-96390580D02*
X91240000Y-96109420D01*
%TO.C,J1*%
X139310000Y-107670000D02*
X139950000Y-107670000D01*
X133875000Y-101050000D02*
X133969000Y-101144000D01*
X139710000Y-107430000D02*
X139710000Y-100310000D01*
X136091000Y-103265000D02*
X136219000Y-103394000D01*
X134081000Y-100845000D02*
X134209000Y-100974000D01*
X139950000Y-107670000D02*
X139950000Y-107270000D01*
X131990000Y-100310000D02*
X139710000Y-100310000D01*
X138150000Y-107430000D02*
X138150000Y-100310000D01*
X131990000Y-107430000D02*
X131990000Y-100310000D01*
X136331000Y-103095000D02*
X136424000Y-103189000D01*
X139250000Y-107430000D02*
X139250000Y-100310000D01*
X131990000Y-107430000D02*
X139710000Y-107430000D01*
X136039894Y-107045358D02*
G75*
G02*
X134284000Y-107060000I-889894J1425358D01*
G01*
X136830099Y-105591326D02*
G75*
G02*
X136590000Y-106486000I-1680099J-28674D01*
G01*
X134259807Y-104194495D02*
G75*
G02*
X136041000Y-104195000I890193J-1425505D01*
G01*
X133724642Y-106509894D02*
G75*
G02*
X133710000Y-104754000I1425358J889894D01*
G01*
X136574721Y-104729736D02*
G75*
G02*
X136830000Y-105620000I-1424721J-890264D01*
G01*
X136830000Y-102120000D02*
G75*
G03*
X136830000Y-102120000I-1680000J0D01*
G01*
%TO.C,SW1*%
X84020000Y-80550000D02*
X84020000Y-81450000D01*
X87320000Y-78300000D02*
X86530000Y-78300000D01*
X88370000Y-80150000D02*
X88370000Y-81850000D01*
X85520000Y-80350000D02*
X84230000Y-80350000D01*
X84230000Y-80350000D02*
X84020000Y-80550000D01*
X85520000Y-78900000D02*
X85520000Y-84600000D01*
X84230000Y-81650000D02*
X85520000Y-81650000D01*
X86530000Y-85200000D02*
X87320000Y-85200000D01*
X84230000Y-81650000D02*
X84020000Y-81450000D01*
X88370000Y-83150000D02*
X88370000Y-83350000D01*
%TO.C,C6*%
X94110000Y-89607836D02*
X94110000Y-89392164D01*
X93390000Y-89607836D02*
X93390000Y-89392164D01*
%TO.C,R6*%
X127112742Y-73022500D02*
X127587258Y-73022500D01*
X127112742Y-71977500D02*
X127587258Y-71977500D01*
%TO.C,FB1*%
X123375378Y-89260000D02*
X124174622Y-89260000D01*
X123375378Y-88140000D02*
X124174622Y-88140000D01*
%TO.C,D1*%
X127750000Y-91750000D02*
X131650000Y-91750000D01*
X127750000Y-89750000D02*
X127750000Y-91750000D01*
X127750000Y-89750000D02*
X131650000Y-89750000D01*
%TO.C,C13*%
X105509420Y-102740000D02*
X105790580Y-102740000D01*
X105509420Y-103760000D02*
X105790580Y-103760000D01*
%TO.C,C14*%
X111780000Y-89860580D02*
X111780000Y-89579420D01*
X110760000Y-89860580D02*
X110760000Y-89579420D01*
%TO.C,G\u002A\u002A\u002A*%
G36*
X109367534Y-78861521D02*
G01*
X109410585Y-78877526D01*
X109456604Y-78908313D01*
X109498486Y-78947911D01*
X109529128Y-78990346D01*
X109534832Y-79002173D01*
X109548769Y-79062681D01*
X109545022Y-79128209D01*
X109525221Y-79191254D01*
X109490996Y-79244312D01*
X109479702Y-79255762D01*
X109426474Y-79290901D01*
X109363274Y-79311316D01*
X109297626Y-79315637D01*
X109237053Y-79302491D01*
X109232883Y-79300745D01*
X109185883Y-79271970D01*
X109143382Y-79231415D01*
X109112170Y-79186328D01*
X109101933Y-79161014D01*
X109089824Y-79088375D01*
X109097761Y-79025175D01*
X109126722Y-78967865D01*
X109167995Y-78921698D01*
X109223382Y-78880210D01*
X109280974Y-78859753D01*
X109346585Y-78858576D01*
X109367534Y-78861521D01*
G37*
G36*
X121115343Y-77377511D02*
G01*
X121233209Y-77393935D01*
X121360278Y-77419541D01*
X121486022Y-77451899D01*
X121599911Y-77488576D01*
X121606027Y-77490820D01*
X121693539Y-77523184D01*
X121616174Y-77693474D01*
X121589740Y-77751230D01*
X121566423Y-77801363D01*
X121547960Y-77840204D01*
X121536088Y-77864084D01*
X121532714Y-77869859D01*
X121519964Y-77869066D01*
X121489718Y-77862417D01*
X121446475Y-77851020D01*
X121394736Y-77835979D01*
X121393769Y-77835686D01*
X121272408Y-77803044D01*
X121157318Y-77780141D01*
X121050570Y-77766935D01*
X120954237Y-77763379D01*
X120870388Y-77769430D01*
X120801095Y-77785043D01*
X120748429Y-77810174D01*
X120714462Y-77844778D01*
X120711332Y-77850347D01*
X120693905Y-77901930D01*
X120698586Y-77947678D01*
X120725565Y-77988952D01*
X120731455Y-77994755D01*
X120755226Y-78014216D01*
X120784196Y-78031527D01*
X120821590Y-78047851D01*
X120870632Y-78064346D01*
X120934544Y-78082174D01*
X121016552Y-78102494D01*
X121057826Y-78112204D01*
X121158576Y-78136470D01*
X121241822Y-78158603D01*
X121312818Y-78180256D01*
X121376818Y-78203078D01*
X121439075Y-78228720D01*
X121463769Y-78239728D01*
X121538237Y-78281924D01*
X121609549Y-78337605D01*
X121671767Y-78401261D01*
X121718954Y-78467384D01*
X121728561Y-78485382D01*
X121741423Y-78512998D01*
X121750234Y-78537720D01*
X121755756Y-78564851D01*
X121758749Y-78599695D01*
X121759974Y-78647555D01*
X121760195Y-78705780D01*
X121760007Y-78768864D01*
X121758826Y-78814416D01*
X121755729Y-78847978D01*
X121749789Y-78875087D01*
X121740083Y-78901284D01*
X121725685Y-78932107D01*
X121720724Y-78942247D01*
X121662193Y-79035943D01*
X121585460Y-79115478D01*
X121490553Y-79180831D01*
X121377497Y-79231982D01*
X121325657Y-79248917D01*
X121290441Y-79258285D01*
X121254603Y-79265200D01*
X121213498Y-79270094D01*
X121162486Y-79273403D01*
X121096923Y-79275562D01*
X121027725Y-79276796D01*
X120956902Y-79277497D01*
X120891428Y-79277618D01*
X120835854Y-79277191D01*
X120794733Y-79276249D01*
X120773955Y-79275000D01*
X120627816Y-79249616D01*
X120475794Y-79208173D01*
X120325975Y-79152974D01*
X120288373Y-79136651D01*
X120221639Y-79106702D01*
X120310354Y-78928463D01*
X120343384Y-78862849D01*
X120368343Y-78815475D01*
X120386943Y-78783690D01*
X120400898Y-78764841D01*
X120411920Y-78756276D01*
X120421723Y-78755345D01*
X120422139Y-78755434D01*
X120441785Y-78761530D01*
X120477611Y-78774124D01*
X120524315Y-78791307D01*
X120570684Y-78808894D01*
X120698465Y-78851824D01*
X120820756Y-78878967D01*
X120947043Y-78892080D01*
X121029869Y-78893942D01*
X121089789Y-78893287D01*
X121132770Y-78891122D01*
X121164937Y-78886464D01*
X121192417Y-78878332D01*
X121221334Y-78865743D01*
X121229038Y-78862014D01*
X121281468Y-78829253D01*
X121313274Y-78790977D01*
X121326790Y-78743969D01*
X121327634Y-78725960D01*
X121324397Y-78694583D01*
X121313310Y-78667152D01*
X121292312Y-78642542D01*
X121259339Y-78619627D01*
X121212328Y-78597282D01*
X121149218Y-78574381D01*
X121067946Y-78549799D01*
X120966448Y-78522410D01*
X120943949Y-78516602D01*
X120832547Y-78487142D01*
X120740448Y-78460631D01*
X120664275Y-78435779D01*
X120600653Y-78411297D01*
X120546206Y-78385897D01*
X120497558Y-78358289D01*
X120455314Y-78330041D01*
X120377816Y-78261460D01*
X120319513Y-78180617D01*
X120280905Y-78088763D01*
X120262492Y-77987153D01*
X120264772Y-77877038D01*
X120267184Y-77858056D01*
X120287463Y-77768192D01*
X120322839Y-77688644D01*
X120376373Y-77613322D01*
X120407374Y-77579003D01*
X120496353Y-77502745D01*
X120600349Y-77443556D01*
X120718635Y-77401642D01*
X120850485Y-77377211D01*
X120995170Y-77370469D01*
X121115343Y-77377511D01*
G37*
G36*
X122031679Y-78100334D02*
G01*
X122072226Y-77981152D01*
X122125167Y-77868908D01*
X122188215Y-77770150D01*
X122198040Y-77757363D01*
X122296752Y-77650010D01*
X122408630Y-77559946D01*
X122531315Y-77487396D01*
X122662449Y-77432583D01*
X122799674Y-77395731D01*
X122940633Y-77377064D01*
X123082966Y-77376806D01*
X123224315Y-77395180D01*
X123362324Y-77432412D01*
X123494632Y-77488723D01*
X123618883Y-77564340D01*
X123685216Y-77616181D01*
X123792648Y-77721681D01*
X123879398Y-77837352D01*
X123945689Y-77963609D01*
X123991746Y-78100870D01*
X124015607Y-78230193D01*
X124020552Y-78349670D01*
X124008503Y-78474756D01*
X123980868Y-78598674D01*
X123939056Y-78714644D01*
X123898597Y-78793407D01*
X123864887Y-78842260D01*
X123818341Y-78899628D01*
X123764262Y-78959770D01*
X123707955Y-79016947D01*
X123654723Y-79065421D01*
X123626246Y-79088103D01*
X123527239Y-79150681D01*
X123412564Y-79204880D01*
X123304971Y-79242777D01*
X123256432Y-79256176D01*
X123211768Y-79265410D01*
X123164066Y-79271371D01*
X123106416Y-79274948D01*
X123040577Y-79276860D01*
X122978780Y-79277704D01*
X122922564Y-79277690D01*
X122877318Y-79276874D01*
X122848430Y-79275312D01*
X122844482Y-79274825D01*
X122808121Y-79267011D01*
X122757374Y-79253327D01*
X122699461Y-79235995D01*
X122641601Y-79217231D01*
X122591013Y-79199257D01*
X122565584Y-79189104D01*
X122481657Y-79145147D01*
X122394087Y-79085291D01*
X122308928Y-79014571D01*
X122232233Y-78938023D01*
X122170053Y-78860681D01*
X122169089Y-78859290D01*
X122103712Y-78748563D01*
X122052186Y-78627686D01*
X122016495Y-78502722D01*
X121998624Y-78379734D01*
X121996912Y-78333314D01*
X121997085Y-78331101D01*
X122479700Y-78331101D01*
X122489178Y-78428466D01*
X122516758Y-78522405D01*
X122562073Y-78609959D01*
X122624756Y-78688171D01*
X122704439Y-78754082D01*
X122729958Y-78770054D01*
X122790821Y-78802781D01*
X122845776Y-78824400D01*
X122902414Y-78836716D01*
X122968322Y-78841531D01*
X123029661Y-78841274D01*
X123087087Y-78839430D01*
X123128596Y-78836185D01*
X123161338Y-78829987D01*
X123192465Y-78819283D01*
X123229129Y-78802524D01*
X123245694Y-78794396D01*
X123342151Y-78734931D01*
X123420982Y-78661442D01*
X123481224Y-78575678D01*
X123521914Y-78479392D01*
X123542087Y-78374335D01*
X123540781Y-78262257D01*
X123540403Y-78258837D01*
X123518502Y-78164028D01*
X123476661Y-78075364D01*
X123417708Y-77995266D01*
X123344470Y-77926158D01*
X123259775Y-77870464D01*
X123166450Y-77830606D01*
X123067325Y-77809008D01*
X123011739Y-77805790D01*
X122916965Y-77816114D01*
X122820540Y-77845245D01*
X122729005Y-77890428D01*
X122648907Y-77948906D01*
X122630165Y-77966541D01*
X122563558Y-78048030D01*
X122516523Y-78137926D01*
X122488693Y-78233269D01*
X122479700Y-78331101D01*
X121997085Y-78331101D01*
X122005812Y-78219904D01*
X122031679Y-78100334D01*
G37*
G36*
X125065249Y-76672884D02*
G01*
X125154702Y-76677846D01*
X125242133Y-76686801D01*
X125321442Y-76699360D01*
X125386524Y-76715133D01*
X125405693Y-76721674D01*
X125434083Y-76732467D01*
X125434083Y-77088448D01*
X125298272Y-77082191D01*
X125193071Y-77082215D01*
X125107260Y-77093512D01*
X125039626Y-77116977D01*
X124988954Y-77153505D01*
X124954030Y-77203992D01*
X124933641Y-77269336D01*
X124926571Y-77350431D01*
X124926544Y-77356494D01*
X124926544Y-77402067D01*
X125780132Y-77402067D01*
X125780132Y-76686899D01*
X126264600Y-76686899D01*
X126264600Y-77402067D01*
X126772139Y-77402067D01*
X126772139Y-77805790D01*
X126264600Y-77805790D01*
X126264600Y-78199918D01*
X126264938Y-78326027D01*
X126266081Y-78431322D01*
X126268225Y-78518050D01*
X126271565Y-78588457D01*
X126276299Y-78644792D01*
X126282620Y-78689301D01*
X126290726Y-78724232D01*
X126300811Y-78751833D01*
X126313071Y-78774350D01*
X126314859Y-78777057D01*
X126337451Y-78806853D01*
X126361823Y-78828772D01*
X126391844Y-78843966D01*
X126431383Y-78853588D01*
X126484310Y-78858789D01*
X126554495Y-78860721D01*
X126596231Y-78860823D01*
X126772139Y-78860406D01*
X126772139Y-79219482D01*
X126694278Y-79238870D01*
X126561054Y-79265984D01*
X126432873Y-79280277D01*
X126312825Y-79281816D01*
X126204003Y-79270669D01*
X126109500Y-79246901D01*
X126058131Y-79225183D01*
X126002390Y-79189026D01*
X125945029Y-79138944D01*
X125893199Y-79082101D01*
X125854054Y-79025659D01*
X125848439Y-79015175D01*
X125832878Y-78983656D01*
X125819877Y-78954551D01*
X125809208Y-78925489D01*
X125800639Y-78894099D01*
X125793942Y-78858009D01*
X125788886Y-78814849D01*
X125785241Y-78762248D01*
X125782777Y-78697834D01*
X125781264Y-78619236D01*
X125780473Y-78524085D01*
X125780173Y-78410007D01*
X125780132Y-78310906D01*
X125780132Y-77805790D01*
X124927543Y-77805790D01*
X124920777Y-79461058D01*
X124894083Y-79536036D01*
X124847000Y-79639543D01*
X124785571Y-79725083D01*
X124709165Y-79793235D01*
X124617155Y-79844579D01*
X124526231Y-79875433D01*
X124487055Y-79882262D01*
X124432033Y-79887581D01*
X124367872Y-79891194D01*
X124301276Y-79892909D01*
X124238952Y-79892530D01*
X124187605Y-79889863D01*
X124159469Y-79886065D01*
X124132012Y-79880768D01*
X124112163Y-79875990D01*
X124098701Y-79868308D01*
X124090406Y-79854300D01*
X124086058Y-79830544D01*
X124084435Y-79793618D01*
X124084318Y-79740100D01*
X124084491Y-79675835D01*
X124084491Y-79481561D01*
X124185802Y-79475784D01*
X124260244Y-79468183D01*
X124316221Y-79453445D01*
X124357856Y-79429124D01*
X124389272Y-79392772D01*
X124414592Y-79341942D01*
X124415617Y-79339369D01*
X124419736Y-79327425D01*
X124423285Y-79312792D01*
X124426316Y-79293705D01*
X124428883Y-79268394D01*
X124431040Y-79235093D01*
X124432840Y-79192036D01*
X124434335Y-79137454D01*
X124435581Y-79069581D01*
X124436629Y-78986649D01*
X124437533Y-78886891D01*
X124438347Y-78768540D01*
X124439124Y-78629829D01*
X124439541Y-78546912D01*
X124443176Y-77805790D01*
X124188306Y-77805790D01*
X124188306Y-77402067D01*
X124442075Y-77402067D01*
X124442227Y-77306903D01*
X124447213Y-77218932D01*
X124460821Y-77127019D01*
X124481420Y-77038947D01*
X124507381Y-76962503D01*
X124520223Y-76934277D01*
X124573845Y-76852964D01*
X124645270Y-76783571D01*
X124731253Y-76728574D01*
X124828549Y-76690448D01*
X124845799Y-76685868D01*
X124904695Y-76676505D01*
X124979880Y-76672307D01*
X125065249Y-76672884D01*
G37*
G36*
X117040600Y-77381783D02*
G01*
X117172193Y-77404401D01*
X117287710Y-77443215D01*
X117387644Y-77498561D01*
X117472485Y-77570770D01*
X117542728Y-77660178D01*
X117598864Y-77767118D01*
X117638331Y-77880768D01*
X117643882Y-77901282D01*
X117648591Y-77921259D01*
X117652543Y-77942752D01*
X117655821Y-77967810D01*
X117658508Y-77998484D01*
X117660689Y-78036825D01*
X117662446Y-78084884D01*
X117663863Y-78144712D01*
X117665024Y-78218359D01*
X117666012Y-78307877D01*
X117666911Y-78415316D01*
X117667805Y-78542727D01*
X117668285Y-78616122D01*
X117672451Y-79259196D01*
X117186580Y-79259196D01*
X117186443Y-78696867D01*
X117186339Y-78561154D01*
X117185987Y-78446361D01*
X117185227Y-78350336D01*
X117183895Y-78270927D01*
X117181830Y-78205985D01*
X117178868Y-78153359D01*
X117174848Y-78110897D01*
X117169607Y-78076449D01*
X117162983Y-78047863D01*
X117154813Y-78022989D01*
X117144934Y-77999677D01*
X117133185Y-77975774D01*
X117131787Y-77973047D01*
X117090595Y-77913915D01*
X117034011Y-77868490D01*
X116960235Y-77835648D01*
X116881128Y-77816518D01*
X116774688Y-77809020D01*
X116665454Y-77821541D01*
X116559422Y-77852769D01*
X116462586Y-77901393D01*
X116447195Y-77911482D01*
X116390712Y-77949978D01*
X116390668Y-79259196D01*
X115917734Y-79259196D01*
X115917734Y-77402067D01*
X116390668Y-77402067D01*
X116390668Y-77514411D01*
X116476348Y-77469515D01*
X116563375Y-77429150D01*
X116649392Y-77401122D01*
X116741143Y-77383901D01*
X116845373Y-77375955D01*
X116892439Y-77375028D01*
X117040600Y-77381783D01*
G37*
G36*
X108460907Y-76702265D02*
G01*
X108493617Y-76574978D01*
X108545536Y-76457914D01*
X108617913Y-76348232D01*
X108708371Y-76246679D01*
X108757430Y-76199463D01*
X108798788Y-76164317D01*
X108839887Y-76135904D01*
X108888168Y-76108891D01*
X108928813Y-76088641D01*
X109035108Y-76042914D01*
X109134660Y-76013501D01*
X109235246Y-75998792D01*
X109344644Y-75997174D01*
X109365664Y-75998137D01*
X109505068Y-76016618D01*
X109637618Y-76055971D01*
X109761066Y-76114935D01*
X109873166Y-76192251D01*
X109971670Y-76286658D01*
X110041572Y-76377210D01*
X110112428Y-76502895D01*
X110161009Y-76634400D01*
X110187301Y-76771490D01*
X110191289Y-76913930D01*
X110172960Y-77061483D01*
X110132300Y-77213915D01*
X110097269Y-77307399D01*
X110063357Y-77382828D01*
X110019936Y-77469737D01*
X109970943Y-77560859D01*
X109920315Y-77648928D01*
X109871989Y-77726678D01*
X109861607Y-77742348D01*
X109802414Y-77826368D01*
X109731580Y-77920452D01*
X109653975Y-78018557D01*
X109574473Y-78114638D01*
X109497946Y-78202653D01*
X109439409Y-78266052D01*
X109313435Y-78397567D01*
X109170809Y-78246147D01*
X109064217Y-78130072D01*
X108971688Y-78022598D01*
X108888904Y-77918383D01*
X108811549Y-77812084D01*
X108766141Y-77745376D01*
X108672174Y-77595209D01*
X108595934Y-77452972D01*
X108535497Y-77314505D01*
X108488940Y-77175651D01*
X108470548Y-77105947D01*
X108457023Y-77046672D01*
X108448678Y-76998559D01*
X108444696Y-76952800D01*
X108444262Y-76900584D01*
X108445073Y-76875716D01*
X108913124Y-76875716D01*
X108922267Y-76975157D01*
X108948868Y-77059952D01*
X108993663Y-77131120D01*
X109057388Y-77189679D01*
X109140776Y-77236648D01*
X109186929Y-77254994D01*
X109260979Y-77271385D01*
X109343373Y-77273427D01*
X109424851Y-77261649D01*
X109494644Y-77237332D01*
X109575973Y-77185127D01*
X109641924Y-77115816D01*
X109683539Y-77048437D01*
X109699990Y-77013605D01*
X109710139Y-76983303D01*
X109715471Y-76949839D01*
X109717471Y-76905521D01*
X109717688Y-76871458D01*
X109716756Y-76815342D01*
X109713066Y-76774508D01*
X109705280Y-76741213D01*
X109692057Y-76707711D01*
X109687763Y-76698433D01*
X109641143Y-76624049D01*
X109578078Y-76559005D01*
X109504852Y-76509579D01*
X109492757Y-76503608D01*
X109450406Y-76486728D01*
X109405992Y-76476397D01*
X109350609Y-76470785D01*
X109327242Y-76469608D01*
X109276802Y-76468082D01*
X109240804Y-76469696D01*
X109210663Y-76476174D01*
X109177793Y-76489238D01*
X109140933Y-76506986D01*
X109072291Y-76546968D01*
X109019348Y-76593417D01*
X108976270Y-76652385D01*
X108947183Y-76707912D01*
X108928769Y-76750836D01*
X108918331Y-76787677D01*
X108913819Y-76828530D01*
X108913124Y-76875716D01*
X108445073Y-76875716D01*
X108446153Y-76842621D01*
X108460907Y-76702265D01*
G37*
G36*
X113580323Y-78146108D02*
G01*
X113612684Y-78012241D01*
X113661915Y-77885430D01*
X113727239Y-77767923D01*
X113807877Y-77661967D01*
X113903049Y-77569811D01*
X114011978Y-77493701D01*
X114065352Y-77465250D01*
X114145791Y-77429071D01*
X114218819Y-77403483D01*
X114291583Y-77386957D01*
X114371225Y-77377966D01*
X114464890Y-77374981D01*
X114487398Y-77374976D01*
X114594637Y-77378710D01*
X114687417Y-77390129D01*
X114773563Y-77410955D01*
X114860903Y-77442912D01*
X114922843Y-77470862D01*
X115018006Y-77516353D01*
X115018006Y-77402067D01*
X115502475Y-77402067D01*
X115502475Y-79259196D01*
X115018006Y-79259196D01*
X115018006Y-79194793D01*
X115016622Y-79160581D01*
X115013041Y-79138825D01*
X115009355Y-79134329D01*
X114995667Y-79141166D01*
X114967019Y-79155816D01*
X114928924Y-79175455D01*
X114917894Y-79181163D01*
X114834207Y-79219987D01*
X114752564Y-79247384D01*
X114665896Y-79265037D01*
X114567138Y-79274628D01*
X114516235Y-79276781D01*
X114457842Y-79278032D01*
X114406282Y-79278311D01*
X114366757Y-79277647D01*
X114344467Y-79276069D01*
X114343211Y-79275822D01*
X114319056Y-79270559D01*
X114282267Y-79262860D01*
X114257349Y-79257756D01*
X114138287Y-79222184D01*
X114024027Y-79166002D01*
X113917235Y-79091570D01*
X113820580Y-79001248D01*
X113736729Y-78897398D01*
X113668349Y-78782380D01*
X113635160Y-78707184D01*
X113592251Y-78567569D01*
X113569328Y-78426020D01*
X113566844Y-78331607D01*
X114029514Y-78331607D01*
X114039381Y-78429985D01*
X114069058Y-78526828D01*
X114119548Y-78619474D01*
X114126583Y-78629529D01*
X114183771Y-78698866D01*
X114245973Y-78751483D01*
X114320663Y-78793596D01*
X114327720Y-78796843D01*
X114367959Y-78814579D01*
X114401026Y-78826925D01*
X114432531Y-78834742D01*
X114468078Y-78838888D01*
X114513276Y-78840224D01*
X114573730Y-78839611D01*
X114602747Y-78839027D01*
X114670930Y-78836752D01*
X114722289Y-78832689D01*
X114763051Y-78825984D01*
X114799444Y-78815786D01*
X114816144Y-78809795D01*
X114865414Y-78788335D01*
X114919068Y-78760770D01*
X114951579Y-78741683D01*
X115017805Y-78699750D01*
X115017905Y-78330447D01*
X115018006Y-77961143D01*
X114960524Y-77923512D01*
X114853067Y-77865829D01*
X114738207Y-77827392D01*
X114619928Y-77808952D01*
X114502214Y-77811261D01*
X114430722Y-77823569D01*
X114330051Y-77858162D01*
X114242158Y-77909852D01*
X114168047Y-77975979D01*
X114108722Y-78053879D01*
X114065189Y-78140892D01*
X114038452Y-78234355D01*
X114029514Y-78331607D01*
X113566844Y-78331607D01*
X113565612Y-78284784D01*
X113580323Y-78146108D01*
G37*
G36*
X110048141Y-77726192D02*
G01*
X110096195Y-77796172D01*
X110141877Y-77878474D01*
X110179459Y-77962599D01*
X110184699Y-77976512D01*
X110224032Y-78116244D01*
X110240342Y-78256459D01*
X110233659Y-78396714D01*
X110204012Y-78536565D01*
X110151429Y-78675570D01*
X110137024Y-78705518D01*
X110108749Y-78759988D01*
X110082888Y-78803271D01*
X110054655Y-78841841D01*
X110019261Y-78882171D01*
X109971918Y-78930733D01*
X109966318Y-78936315D01*
X109900345Y-78998727D01*
X109842795Y-79045659D01*
X109789124Y-79080715D01*
X109773676Y-79089154D01*
X109734725Y-79109225D01*
X109704249Y-79124327D01*
X109687464Y-79131893D01*
X109685924Y-79132312D01*
X109682034Y-79121863D01*
X109677267Y-79094688D01*
X109673338Y-79062813D01*
X109666084Y-79017980D01*
X109655169Y-78976738D01*
X109647101Y-78956622D01*
X109635996Y-78929111D01*
X109639478Y-78916372D01*
X109641436Y-78915495D01*
X109671049Y-78900618D01*
X109711331Y-78873835D01*
X109756611Y-78839525D01*
X109801220Y-78802070D01*
X109839488Y-78765850D01*
X109850844Y-78753706D01*
X109923242Y-78655659D01*
X109976664Y-78545677D01*
X110010244Y-78426118D01*
X110023114Y-78299342D01*
X110023228Y-78284952D01*
X110018550Y-78192544D01*
X110003223Y-78110352D01*
X109974910Y-78028544D01*
X109948692Y-77971439D01*
X109929620Y-77931937D01*
X109915341Y-77900669D01*
X109908338Y-77883126D01*
X109908015Y-77881522D01*
X109914069Y-77869230D01*
X109930289Y-77842613D01*
X109953767Y-77806356D01*
X109967214Y-77786230D01*
X110026413Y-77698501D01*
X110048141Y-77726192D01*
G37*
G36*
X118014172Y-78067037D02*
G01*
X118064569Y-77936103D01*
X118135413Y-77812807D01*
X118226190Y-77698978D01*
X118312559Y-77616181D01*
X118432921Y-77528347D01*
X118564436Y-77459771D01*
X118704879Y-77410913D01*
X118852026Y-77382236D01*
X119003652Y-77374200D01*
X119157534Y-77387268D01*
X119285158Y-77414412D01*
X119397051Y-77454492D01*
X119510217Y-77512614D01*
X119618805Y-77584876D01*
X119716962Y-77667380D01*
X119798836Y-77756225D01*
X119799735Y-77757363D01*
X119858983Y-77845146D01*
X119911535Y-77947226D01*
X119953426Y-78054995D01*
X119977342Y-78142987D01*
X119995247Y-78252290D01*
X119999416Y-78352231D01*
X119989876Y-78451964D01*
X119978363Y-78511999D01*
X119935311Y-78655860D01*
X119872995Y-78787857D01*
X119792544Y-78906913D01*
X119695088Y-79011950D01*
X119581754Y-79101892D01*
X119453673Y-79175661D01*
X119311972Y-79232181D01*
X119189984Y-79264167D01*
X119118840Y-79274505D01*
X119034899Y-79279932D01*
X118946610Y-79280442D01*
X118862419Y-79276029D01*
X118790774Y-79266688D01*
X118779709Y-79264449D01*
X118641296Y-79227017D01*
X118519076Y-79177193D01*
X118408320Y-79112309D01*
X118304301Y-79029695D01*
X118224650Y-78951071D01*
X118157011Y-78873488D01*
X118104985Y-78800395D01*
X118064219Y-78724724D01*
X118030364Y-78639404D01*
X118027348Y-78630538D01*
X117990810Y-78487358D01*
X117976778Y-78344495D01*
X117977025Y-78340119D01*
X118452072Y-78340119D01*
X118465167Y-78440271D01*
X118499746Y-78539869D01*
X118507393Y-78555680D01*
X118566273Y-78648724D01*
X118641140Y-78725393D01*
X118732486Y-78786111D01*
X118818628Y-78823796D01*
X118853592Y-78833849D01*
X118893258Y-78839664D01*
X118943935Y-78841834D01*
X119003338Y-78841185D01*
X119061229Y-78839211D01*
X119103330Y-78835733D01*
X119136921Y-78829226D01*
X119169282Y-78818169D01*
X119207694Y-78801038D01*
X119217480Y-78796398D01*
X119314404Y-78738531D01*
X119393579Y-78666507D01*
X119454149Y-78581879D01*
X119495255Y-78486205D01*
X119516041Y-78381040D01*
X119515648Y-78267940D01*
X119514548Y-78257455D01*
X119492522Y-78160271D01*
X119451039Y-78071204D01*
X119392838Y-77992083D01*
X119320658Y-77924735D01*
X119237238Y-77870989D01*
X119145318Y-77832675D01*
X119047637Y-77811621D01*
X118946933Y-77809655D01*
X118864458Y-77823458D01*
X118759663Y-77860852D01*
X118668228Y-77914350D01*
X118591313Y-77981573D01*
X118530080Y-78060141D01*
X118485688Y-78147674D01*
X118459299Y-78241794D01*
X118452072Y-78340119D01*
X117977025Y-78340119D01*
X117984737Y-78203778D01*
X118014172Y-78067037D01*
G37*
G36*
X108328846Y-76936415D02*
G01*
X108334022Y-76983348D01*
X108339701Y-77029090D01*
X108342655Y-77050250D01*
X108345316Y-77073812D01*
X108342589Y-77091423D01*
X108331159Y-77108451D01*
X108307708Y-77130264D01*
X108278091Y-77154745D01*
X108200908Y-77226625D01*
X108122328Y-77315968D01*
X108045936Y-77417708D01*
X107975318Y-77526782D01*
X107914058Y-77638126D01*
X107874356Y-77725046D01*
X107825072Y-77864565D01*
X107787073Y-78013057D01*
X107761998Y-78162530D01*
X107751488Y-78304991D01*
X107751270Y-78324864D01*
X107753545Y-78377610D01*
X107759927Y-78445656D01*
X107769480Y-78521788D01*
X107781269Y-78598794D01*
X107794359Y-78669460D01*
X107798372Y-78688215D01*
X107811189Y-78745890D01*
X107864711Y-78748375D01*
X107937740Y-78760013D01*
X108001821Y-78789233D01*
X108062104Y-78838526D01*
X108071867Y-78848576D01*
X108113301Y-78899287D01*
X108139159Y-78950234D01*
X108151604Y-79008055D01*
X108152798Y-79079388D01*
X108151965Y-79094489D01*
X108146477Y-79147072D01*
X108136254Y-79185827D01*
X108118733Y-79219895D01*
X108115358Y-79225104D01*
X108084043Y-79272424D01*
X108116320Y-79314834D01*
X108205649Y-79417316D01*
X108313871Y-79516288D01*
X108436807Y-79608431D01*
X108570280Y-79690426D01*
X108625888Y-79719741D01*
X108798570Y-79793891D01*
X108976740Y-79845819D01*
X109159384Y-79875439D01*
X109345487Y-79882662D01*
X109534035Y-79867402D01*
X109724012Y-79829570D01*
X109766848Y-79817939D01*
X109911718Y-79766622D01*
X110056766Y-79696374D01*
X110197239Y-79610369D01*
X110328381Y-79511784D01*
X110445439Y-79403793D01*
X110528562Y-79309207D01*
X110629431Y-79169676D01*
X110710947Y-79030388D01*
X110776024Y-78885544D01*
X110827574Y-78729345D01*
X110836612Y-78695870D01*
X110871416Y-78517643D01*
X110883956Y-78337708D01*
X110874764Y-78157899D01*
X110844371Y-77980054D01*
X110793308Y-77806007D01*
X110722108Y-77637595D01*
X110631302Y-77476653D01*
X110521422Y-77325018D01*
X110401286Y-77192675D01*
X110288841Y-77081330D01*
X110300290Y-77020960D01*
X110307139Y-76975790D01*
X110311230Y-76931325D01*
X110311739Y-76915307D01*
X110311739Y-76870025D01*
X110365769Y-76908230D01*
X110419560Y-76950466D01*
X110482454Y-77006610D01*
X110549850Y-77072010D01*
X110617145Y-77142019D01*
X110679739Y-77211984D01*
X110733028Y-77277256D01*
X110739766Y-77286130D01*
X110846286Y-77446932D01*
X110933131Y-77618442D01*
X110999936Y-77798751D01*
X111046341Y-77985952D01*
X111071984Y-78178137D01*
X111076502Y-78373396D01*
X111059534Y-78569823D01*
X111020718Y-78765508D01*
X111020509Y-78766324D01*
X110990696Y-78868358D01*
X110954143Y-78971123D01*
X110914189Y-79065770D01*
X110886887Y-79120777D01*
X110778866Y-79299074D01*
X110655838Y-79460729D01*
X110518886Y-79605085D01*
X110369097Y-79731483D01*
X110207555Y-79839268D01*
X110035345Y-79927783D01*
X109853553Y-79996369D01*
X109663262Y-80044370D01*
X109465559Y-80071129D01*
X109308197Y-80076840D01*
X109237965Y-80075123D01*
X109164127Y-80071153D01*
X109095788Y-80065533D01*
X109045188Y-80059363D01*
X108886417Y-80025566D01*
X108723691Y-79973615D01*
X108563226Y-79906065D01*
X108411240Y-79825467D01*
X108299958Y-79753330D01*
X108258075Y-79720807D01*
X108205659Y-79675976D01*
X108147845Y-79623458D01*
X108089770Y-79567873D01*
X108054455Y-79532434D01*
X107907259Y-79381465D01*
X107837769Y-79379844D01*
X107752613Y-79367200D01*
X107676831Y-79333478D01*
X107614139Y-79282519D01*
X107576937Y-79234138D01*
X107546340Y-79175644D01*
X107526229Y-79115804D01*
X107520277Y-79070530D01*
X107528091Y-79010293D01*
X107549051Y-78944826D01*
X107579436Y-78884633D01*
X107593224Y-78864612D01*
X107630962Y-78815100D01*
X107610611Y-78736044D01*
X107586393Y-78623066D01*
X107570915Y-78503816D01*
X107563456Y-78371862D01*
X107562526Y-78307562D01*
X107573155Y-78109427D01*
X107606285Y-77915962D01*
X107661675Y-77727955D01*
X107739086Y-77546194D01*
X107838275Y-77371466D01*
X107856397Y-77343848D01*
X107900407Y-77283716D01*
X107956998Y-77214798D01*
X108021589Y-77141985D01*
X108089602Y-77070168D01*
X108156455Y-77004239D01*
X108217569Y-76949086D01*
X108252085Y-76921304D01*
X108321957Y-76868720D01*
X108328846Y-76936415D01*
G37*
G36*
X108615036Y-77722574D02*
G01*
X108633345Y-77746708D01*
X108657769Y-77781741D01*
X108672251Y-77803471D01*
X108731311Y-77893431D01*
X108691722Y-77973612D01*
X108668819Y-78024911D01*
X108647810Y-78080294D01*
X108634116Y-78124667D01*
X108622909Y-78188319D01*
X108617283Y-78263214D01*
X108617399Y-78339830D01*
X108623414Y-78408646D01*
X108628880Y-78437990D01*
X108646776Y-78494100D01*
X108674991Y-78560426D01*
X108709681Y-78629495D01*
X108747002Y-78693838D01*
X108783108Y-78745981D01*
X108794289Y-78759450D01*
X108825705Y-78790939D01*
X108866499Y-78826374D01*
X108910771Y-78861199D01*
X108952619Y-78890859D01*
X108986141Y-78910799D01*
X108995768Y-78914987D01*
X108998235Y-78927108D01*
X108993188Y-78955088D01*
X108983438Y-78987926D01*
X108967163Y-79053694D01*
X108967007Y-79100392D01*
X108970740Y-79128029D01*
X108971389Y-79142751D01*
X108970936Y-79143512D01*
X108960079Y-79138328D01*
X108934071Y-79124906D01*
X108898082Y-79105923D01*
X108890037Y-79101638D01*
X108772360Y-79026065D01*
X108666305Y-78931955D01*
X108574443Y-78821989D01*
X108499342Y-78698850D01*
X108493989Y-78688215D01*
X108442343Y-78558546D01*
X108411704Y-78422446D01*
X108402132Y-78283153D01*
X108413685Y-78143905D01*
X108446424Y-78007937D01*
X108479828Y-77921208D01*
X108499853Y-77879900D01*
X108524000Y-77835058D01*
X108549427Y-77791355D01*
X108573292Y-77753469D01*
X108592754Y-77726075D01*
X108604970Y-77713848D01*
X108605993Y-77713612D01*
X108615036Y-77722574D01*
G37*
G36*
X112616516Y-77382636D02*
G01*
X112747370Y-77405284D01*
X112861940Y-77443803D01*
X112960824Y-77498600D01*
X113044620Y-77570085D01*
X113113925Y-77658666D01*
X113169338Y-77764750D01*
X113209287Y-77880768D01*
X113214773Y-77901349D01*
X113219429Y-77921509D01*
X113223336Y-77943298D01*
X113226578Y-77968768D01*
X113229237Y-77999973D01*
X113231396Y-78038964D01*
X113233138Y-78087792D01*
X113234544Y-78148510D01*
X113235698Y-78223170D01*
X113236683Y-78313823D01*
X113237580Y-78422523D01*
X113238472Y-78551320D01*
X113238893Y-78616122D01*
X113243023Y-79259196D01*
X112770421Y-79259196D01*
X112765859Y-78696867D01*
X112764704Y-78565129D01*
X112763505Y-78454348D01*
X112762181Y-78362407D01*
X112760651Y-78287195D01*
X112758834Y-78226596D01*
X112756648Y-78178496D01*
X112754013Y-78140781D01*
X112750847Y-78111337D01*
X112747070Y-78088050D01*
X112742599Y-78068806D01*
X112741635Y-78065327D01*
X112707393Y-77979752D01*
X112658176Y-77911716D01*
X112593802Y-77861052D01*
X112514085Y-77827595D01*
X112466734Y-77816981D01*
X112355040Y-77808848D01*
X112242514Y-77820642D01*
X112134603Y-77851257D01*
X112036756Y-77899590D01*
X112026383Y-77906242D01*
X111961240Y-77949142D01*
X111961240Y-79259196D01*
X111488306Y-79259196D01*
X111488306Y-77402067D01*
X111961240Y-77402067D01*
X111961240Y-77514411D01*
X112046920Y-77469515D01*
X112130519Y-77430375D01*
X112212196Y-77402899D01*
X112298561Y-77385613D01*
X112396224Y-77377045D01*
X112468778Y-77375451D01*
X112616516Y-77382636D01*
G37*
%TO.C,R8*%
X92903641Y-93880000D02*
X92596359Y-93880000D01*
X92903641Y-93120000D02*
X92596359Y-93120000D01*
%TO.C,D2*%
X113525000Y-95900000D02*
X113525000Y-97900000D01*
X113525000Y-97900000D02*
X117425000Y-97900000D01*
X113525000Y-95900000D02*
X117425000Y-95900000D01*
%TO.C,D4*%
X92265000Y-101200000D02*
X92265000Y-103485000D01*
X92265000Y-103485000D02*
X93735000Y-103485000D01*
X93735000Y-103485000D02*
X93735000Y-101200000D01*
%TO.C,R4*%
X125577500Y-104467258D02*
X125577500Y-103992742D01*
X126622500Y-104467258D02*
X126622500Y-103992742D01*
%TO.C,R10*%
X100696359Y-81630000D02*
X101003641Y-81630000D01*
X100696359Y-80870000D02*
X101003641Y-80870000D01*
%TO.C,J3*%
X98565000Y-66665000D02*
X102050000Y-66665000D01*
X104465000Y-72085000D02*
X104465000Y-72385000D01*
X104465000Y-72385000D02*
X105535000Y-72385000D01*
X99635000Y-72085000D02*
X99635000Y-72385000D01*
X98565000Y-72385000D02*
X98565000Y-66665000D01*
X105535000Y-72385000D02*
X105535000Y-66665000D01*
X102050000Y-72085000D02*
X99635000Y-72085000D01*
X105535000Y-66665000D02*
X102050000Y-66665000D01*
X102050000Y-72085000D02*
X104465000Y-72085000D01*
X104175000Y-72375000D02*
X104175000Y-72675000D01*
X104175000Y-72675000D02*
X104675000Y-72675000D01*
X99635000Y-72385000D02*
X98565000Y-72385000D01*
%TO.C,R11*%
X103253641Y-81630000D02*
X102946359Y-81630000D01*
X103253641Y-80870000D02*
X102946359Y-80870000D01*
%TO.C,C4*%
X118490000Y-102359420D02*
X118490000Y-102640580D01*
X119510000Y-102359420D02*
X119510000Y-102640580D01*
%TO.C,U1*%
X123710000Y-102450000D02*
X123710000Y-103250000D01*
X120590000Y-102450000D02*
X120590000Y-104250000D01*
X120590000Y-102450000D02*
X120590000Y-101650000D01*
X123710000Y-102450000D02*
X123710000Y-101650000D01*
%TO.C,C5*%
X91829420Y-87100000D02*
X92110580Y-87100000D01*
X91829420Y-86080000D02*
X92110580Y-86080000D01*
%TO.C,R7*%
X91176359Y-82640000D02*
X91483641Y-82640000D01*
X91176359Y-81880000D02*
X91483641Y-81880000D01*
%TO.C,C9*%
X108340000Y-88732836D02*
X108340000Y-88517164D01*
X109060000Y-88732836D02*
X109060000Y-88517164D01*
%TO.C,C3*%
X116396252Y-109245000D02*
X114973748Y-109245000D01*
X116396252Y-107425000D02*
X114973748Y-107425000D01*
%TO.C,C1*%
X123538748Y-98660000D02*
X124961252Y-98660000D01*
X123538748Y-96840000D02*
X124961252Y-96840000D01*
%TO.C,R2*%
X127027500Y-100662742D02*
X127027500Y-101137258D01*
X128072500Y-100662742D02*
X128072500Y-101137258D01*
%TO.C,Y1*%
X87650000Y-90400000D02*
X87650000Y-94400000D01*
X90950000Y-90400000D02*
X87650000Y-90400000D01*
%TO.C,U3*%
X129875000Y-82915000D02*
X129075000Y-82915000D01*
X129875000Y-86035000D02*
X131675000Y-86035000D01*
X129875000Y-82915000D02*
X130675000Y-82915000D01*
X129875000Y-86035000D02*
X129075000Y-86035000D01*
%TO.C,Q1*%
X131985000Y-95655000D02*
X131985000Y-94725000D01*
X131985000Y-95655000D02*
X130525000Y-95655000D01*
X131985000Y-92495000D02*
X129825000Y-92495000D01*
X131985000Y-92495000D02*
X131985000Y-93425000D01*
%TO.C,J4*%
X107410000Y-121210000D02*
X103925000Y-121210000D01*
X101510000Y-115490000D02*
X100440000Y-115490000D01*
X101800000Y-115500000D02*
X101800000Y-115200000D01*
X103925000Y-115790000D02*
X106340000Y-115790000D01*
X106340000Y-115490000D02*
X107410000Y-115490000D01*
X101800000Y-115200000D02*
X101300000Y-115200000D01*
X103925000Y-115790000D02*
X101510000Y-115790000D01*
X101510000Y-115790000D02*
X101510000Y-115490000D01*
X106340000Y-115790000D02*
X106340000Y-115490000D01*
X107410000Y-115490000D02*
X107410000Y-121210000D01*
X100440000Y-115490000D02*
X100440000Y-121210000D01*
X100440000Y-121210000D02*
X103925000Y-121210000D01*
%TO.C,C2*%
X116396252Y-110725000D02*
X114973748Y-110725000D01*
X116396252Y-112545000D02*
X114973748Y-112545000D01*
%TO.C,C8*%
X106542164Y-100060000D02*
X106757836Y-100060000D01*
X106542164Y-99340000D02*
X106757836Y-99340000D01*
%TO.C,D3*%
X126550000Y-75235000D02*
X128835000Y-75235000D01*
X128835000Y-73765000D02*
X126550000Y-73765000D01*
X128835000Y-75235000D02*
X128835000Y-73765000D01*
%TO.C,R1*%
X125327500Y-101137258D02*
X125327500Y-100662742D01*
X126372500Y-101137258D02*
X126372500Y-100662742D01*
%TO.C,C16*%
X89627836Y-96110000D02*
X89412164Y-96110000D01*
X89627836Y-95390000D02*
X89412164Y-95390000D01*
%TD*%
M02*
